<?xml version="1.0" encoding="iso-8859-1"?>
<!-- Generator: Adobe Illustrator 18.0.0, SVG Export Plug-In . SVG Version: 6.00 Build 0)  -->
<!DOCTYPE svg PUBLIC "-//W3C//DTD SVG 1.1//EN" "http://www.w3.org/Graphics/SVG/1.1/DTD/svg11.dtd">
<svg version="1.1" id="Capa_1" xmlns="http://www.w3.org/2000/svg" xmlns:xlink="http://www.w3.org/1999/xlink" x="0px" y="0px"
	 viewBox="0 0 444.577 444.577" style="enable-background:new 0 0 444.577 444.577;" xml:space="preserve">
<g id="XMLID_304_">
	<path id="XMLID_253_" d="M222.279,134.5c37.05,0,67.075-30.023,67.075-67.072c0-37.052-30.025-67.075-67.075-67.075
		c-37.035,0-67.073,30.022-67.073,67.075C155.205,104.477,185.243,134.5,222.279,134.5z"/>
	<path id="XMLID_254_" d="M439.884,195.625c5.316-8.614,6.164-19.249,2.295-28.604L382.995,23.733
		c-6.656-16.106-25.073-23.766-41.21-17.122c-16.121,6.658-23.78,25.106-17.14,41.228l42.569,103.015l-85.23,6.395H162.587
		l-85.213-6.395l42.552-103.015c6.645-16.121-1.017-34.57-17.122-41.228C86.699-0.063,68.235,7.627,61.576,23.733L2.393,167.02
		c-3.869,9.355-3.006,19.991,2.298,28.604c5.3,8.615,14.425,14.165,24.521,14.919l98.313,7.367l16.569,59.028
		c8.892,31.719,7.105,65.5-5.134,96.094l-23.35,58.367c-1.155,2.883-0.801,6.15,0.939,8.708c1.743,2.574,4.641,4.115,7.737,4.115
		h195.998c3.099,0,5.995-1.541,7.752-4.115c1.725-2.558,2.096-5.825,0.924-8.708l-23.334-58.367
		c-12.235-30.594-14.04-64.375-5.147-96.094l16.584-59.028l98.299-7.367C425.472,209.79,434.581,204.24,439.884,195.625z
		 M222.296,265.858c11.82,0,21.406,14.072,21.406,31.426c0,17.353-9.586,31.424-21.406,31.424
		c-11.822,0-29.947-23.532-29.947-40.871C192.349,270.482,210.474,265.858,222.296,265.858z M222.296,417.84
		c-11.822,0-21.409-14.073-21.409-31.429c0-17.353,9.587-31.408,21.409-31.408c11.82,0,27.51,5.055,27.51,22.408
		C249.806,394.764,234.117,417.84,222.296,417.84z M222.296,239.564c-11.822,0-21.409-14.055-21.409-31.409
		c0-17.354,9.587-31.425,21.409-31.425c11.82,0,29.945,2.82,29.945,20.173C252.242,214.259,234.117,239.564,222.296,239.564z"/>
</g>
<g>
</g>
<g>
</g>
<g>
</g>
<g>
</g>
<g>
</g>
<g>
</g>
<g>
</g>
<g>
</g>
<g>
</g>
<g>
</g>
<g>
</g>
<g>
</g>
<g>
</g>
<g>
</g>
<g>
</g>
</svg>
