<svg xmlns="http://www.w3.org/2000/svg" viewBox="0 0 46.83 37.87"><defs><style>.cls-1{fill:#44341f;}</style></defs><title>bucketldpi</title><g id="Layer_2" data-name="Layer 2"><g id="img"><path class="cls-1" d="M44.71,25.56c-7.14.78-14.28,1.8-21.47,1.86-1.22,0-3.64.42-4.71-.1-6.63-3.28-.45-2.48.57-2.45,3.23.09,6.46,0,9.68-.21q4-.26,7.95-.75c2.22-.28,5.86-.11,7.76-1.2,2.6-1.48,1.39-6.65,1.5-9.13S47.8,5.14,46,3.3c-.72-.75-2.93-.39-3.57-.36-3.9.18-7.8.36-11.71.47-6.32.19-13.26,1.15-19.53.37-2.08-.26-2.68-.84-4.52-1.86C5.52,1.27,2.86-.51,1.28.14A1.79,1.79,0,0,0,.22,2.7c.49,1,2.6,1.33,3.43,1.77A14.09,14.09,0,0,1,10,11.78c1.21,2.84,2.66,7,1.77,10-.38,1.27-1.1,1.71-1.54,2.87A3.89,3.89,0,0,0,10.72,28c.68,1.14,2.82,1.55,3.26,2.34,1,1.81-.75,4,1.32,6.1a5.87,5.87,0,0,0,6,1.13c2.37-.87,2.89-2.51,3.62-4.66,1-3-.95-.3.35-1.73.78-.85,3.16-.5,4.23-.57.37,0,3.58-.43,3.89-.33,1.64.54-.08-.52.45,1s-.59,1.94.69,3.65a6.13,6.13,0,0,0,3.37,2,5.6,5.6,0,0,0,6-2.45c.79-1.3.47-2.32.67-3.67,0-.19-.55-1-.48-1.14.42-.84,1.43-.43,1.94-1.07,1.16-1.46.54-2.6-1.07-3-.53-.13-.9.51-.26.66l-1.87,2.32c-.25,0-.48.28-.3.51,1.59,2.05,1.32,7.76-3,7.28A2.53,2.53,0,0,1,37.16,35q-4.21-1-1.62-5.08c.24-.38-.28-.53-.57-.5-3.72.36-7.44.64-11.18.74-.2,0-.6.15-.48.44.9,2.06.43,7.39-3.54,6.6-1.11.12-1.93-.62-2.46-2.2q-3.9-1.53-1.47-4.53c.17-.26,0-.44-.29-.5q-6.1-4.25-3-6.72l.33-.29c0-.11.35-.24.34-.39a42.5,42.5,0,0,0-.7-5.84c-.77-3.8-2.19-7.68-5-10.47-1-1-2.34-1.47-3.27-2.38C3,3.77,2.7,3.24,3.22,2.26,3.12.94,3.66.79,4.83,1.82c1.54.28,2.62,2.09,4,2.5,3.72,1.09,9.2.06,13.12,0,3.26-.06,6.51-.14,9.77-.24,2.94-.09,6.91-1,9.76-.39A2,2,0,0,1,44,5a2.2,2.2,0,0,1,1.34,3.17,25.23,25.23,0,0,1-.26,4.5c-.07,1.51-.12,3-.17,4.52-.07,2.07.34,3.08-1.38,4.42-2.49,1.92-7.38,1.71-10.42,2s-6.33.49-9.52.55S15.66,22.94,13,25.23a.29.29,0,0,0-.12.33c.9,3.72,7.66,2.57,10.35,2.55C30.52,28.05,37.75,27,45,26.22,45.63,26.15,45.24,25.5,44.71,25.56Z"/><path class="cls-1" d="M42.37,19.57c-2.22.38-4.46.71-6.7,1l.63.33q0-1.56-.06-3.12l-.5.34c2.28,0,4.55,0,6.83,0l-.5-.35L42,19.91c0,.46,1,.46,1,0l.06-2.17c0-.24-.31-.34-.5-.34-2.28,0-4.55,0-6.83,0-.19,0-.5.1-.5.35q0,1.56.06,3.12c0,.31.41.36.63.34,2.25-.28,4.48-.6,6.71-1C43.29,20.13,42.91,19.48,42.37,19.57Z"/><path class="cls-1" d="M42.67,14.62c-2.35,0-4.69,0-7,0l.5.34c0-.82-.08-1.65-.13-2.47l-.5.35c2.42,0,4.84-.07,7.27,0l-.5-.35c0,.83-.07,1.67-.1,2.5,0,.46,1,.47,1,0,0-.83.06-1.67.1-2.5,0-.24-.32-.34-.5-.34-2.43,0-4.85,0-7.27,0-.19,0-.52.1-.5.34,0,.82.09,1.65.13,2.47,0,.24.3.35.5.35,2.35,0,4.69-.05,7,0C43.28,15.32,43.28,14.63,42.67,14.62Z"/><path class="cls-1" d="M42.68,6c-.1,1.22-.19,2.45-.26,3.68l.5-.35q-3.81,0-7.6.06l.5.34c-.09-1.12-.19-2.25-.3-3.37l-.5.35q4.08-.15,8.16-.37c.61,0,.63-.72,0-.69Q39.1,5.9,35,6c-.17,0-.52.1-.5.34.11,1.12.21,2.25.3,3.37,0,.24.29.35.5.35q3.8-.07,7.6-.06c.2,0,.48-.1.5-.34.07-1.23.16-2.46.26-3.68C43.72,5.56,42.72,5.55,42.68,6Z"/><path class="cls-1" d="M32.89,20.85c-2.55.24-5.12.41-7.68.51l.5.34c-.17-1.17-.33-2.34-.49-3.52l-.5.35c2.75-.18,5.5-.3,8.25-.38l-.5-.34c0,1.12.05,2.25.06,3.37,0,.47,1,.47,1,0,0-1.12,0-2.25-.06-3.37,0-.24-.3-.35-.5-.35-2.75.08-5.5.2-8.25.38-.17,0-.54.1-.5.34.16,1.18.32,2.35.49,3.52a.45.45,0,0,0,.5.35c2.65-.1,5.3-.29,7.95-.54C33.82,21.45,33.43,20.8,32.89,20.85Z"/><path class="cls-1" d="M32.86,14.7c-2.84.08-5.68.21-8.51.41l.5.35c-.12-.9-.24-1.79-.35-2.69l-.5.35,8.73-.2-.5-.35c.05.82.09,1.65.13,2.48,0,.46,1,.46,1,0,0-.83-.08-1.66-.13-2.48,0-.24-.3-.35-.5-.34l-8.73.2c-.17,0-.53.1-.5.34.11.9.23,1.79.35,2.69a.45.45,0,0,0,.5.34c2.83-.2,5.67-.33,8.51-.41C33.47,15.37,33.48,14.68,32.86,14.7Z"/><path class="cls-1" d="M31.76,6.48c.1,1.11.2,2.21.29,3.32l.5-.35-8.88.21.5.35q-.18-1.65-.33-3.3l-.5.35Q27.8,7,32.26,6.83c.61,0,.62-.71,0-.69q-4.47.14-8.92.23c-.18,0-.53.1-.5.34q.15,1.65.33,3.3c0,.23.28.35.5.34l8.88-.21c.18,0,.52-.1.5-.34-.09-1.11-.19-2.21-.29-3.32C32.71,6,31.71,6,31.76,6.48Z"/><path class="cls-1" d="M22.44,21.43q-3.51,0-7-.09l.5.34c-.08-.85-.17-1.69-.27-2.54l-.37.34c2.22-.3,4.44-.54,6.67-.74l-.5-.35c.15,1.13.31,2.26.47,3.38.06.47,1.06.45,1,0-.16-1.12-.32-2.25-.47-3.38a.46.46,0,0,0-.5-.34q-3.48.3-6.93.76c-.14,0-.39.15-.37.33.1.85.19,1.69.27,2.54,0,.25.29.34.5.35q3.49.13,7,.09C23.05,22.11,23.06,21.42,22.44,21.43Z"/><path class="cls-1" d="M21.59,15.33q-3.49.31-7,.76l.61.25c-.23-1.2-.51-2.37-.85-3.54l-.48.44q3.67,0,7.33-.06l-.5-.35c.12.95.25,1.9.37,2.84.07.47,1.06.45,1,0-.12-.94-.25-1.89-.37-2.84a.45.45,0,0,0-.5-.34q-3.66.06-7.33.06c-.24,0-.57.15-.48.44.34,1.16.62,2.34.85,3.53.05.24.44.26.62.24q3.34-.44,6.71-.74C22.2,16,22.22,15.27,21.59,15.33Z"/><path class="cls-1" d="M11.18,7.24l9.38-.13-.5-.35c.1,1.1.21,2.2.34,3.3l.5-.34c-2.07,0-4.13.06-6.19.06-1.17,0-1.46-.1-2-1.13C12.38,8,12,7.35,11.61,6.72c-.22-.36-1.16-.12-.86.35a24.7,24.7,0,0,1,1.65,3.14.51.51,0,0,0,.48.25c2.67,0,5.34,0,8-.05.17,0,.52-.11.5-.35-.13-1.1-.24-2.2-.34-3.3,0-.24-.28-.35-.5-.34l-9.38.13C10.57,6.56,10.56,7.25,11.18,7.24Z"/><path class="cls-1" d="M19.59,34.44c-.67-.1-1.41-.07-1.73-.78a1.72,1.72,0,0,1,1-2.23,1.59,1.59,0,0,1,2.13.84c.44,1.23-.68,1.93-1.7,2.17-.64.15-.27.79.27.67,1.31-.31,2.79-1.14,2.47-2.73a2.54,2.54,0,0,0-3-1.73c-1.25.27-2.53,1.34-2.26,2.72s1.4,1.56,2.56,1.74C19.86,35.19,20.24,34.54,19.59,34.44Z"/><path class="cls-1" d="M39.38,33.61c-.66-.1-1.4-.07-1.72-.79a1.71,1.71,0,0,1,1-2.22,1.59,1.59,0,0,1,2.13.83c.44,1.23-.68,1.94-1.7,2.18-.64.15-.27.79.26.67,1.32-.31,2.8-1.14,2.48-2.73a2.55,2.55,0,0,0-3-1.74c-1.25.28-2.53,1.34-2.26,2.73s1.4,1.56,2.56,1.74C39.66,34.36,40,33.71,39.38,33.61Z"/></g></g></svg>