<svg xmlns="http://www.w3.org/2000/svg" viewBox="0 0 33.32 35.98"><defs><style>.cls-1{fill:#44341f;}</style></defs><title>facebookldpi</title><g id="Layer_2" data-name="Layer 2"><g id="img"><path class="cls-1" d="M33.1,1.52A1,1,0,0,0,32.25.05C22.86-.19,10.71.54,1.32.18A.88.88,0,0,0,.64.43a.89.89,0,0,0-.57.87C.07,12.47-.41,23.9,1.16,35a.78.78,0,0,0,.48.66.89.89,0,0,0,.73.33c1.8,0,4.39-.12,6.19-.13a.9.9,0,0,0,.8-.44.89.89,0,0,0,.45-.81V23.41c0-.05,0-.09,0-.14s0-.08,0-.12a1,1,0,0,0-1-1A25,25,0,0,0,6.24,22c0-.23-.08-.86-.13-1.09a13.29,13.29,0,0,1,2.45-.23.94.94,0,0,0,.3-.05.82.82,0,0,0,1-.93,46,46,0,0,1-.14-9.16c1.32-3.18,4.8-4.31,8-3.91V8.21c-5.77.21-6.88,5.89-5.61,10.86a1,1,0,0,0,.14.31.91.91,0,0,0,.94.81H15.6v1.58A7.45,7.45,0,0,1,13,22.2h0a.85.85,0,0,0-.95.95c.24,2.8.39,8.37.52,11.19a1,1,0,0,0,.7.9,1.08,1.08,0,0,0,.42.08c6.36,0,11.94.12,18.3-.13a.91.91,0,0,0,.78-.44.93.93,0,0,0,.47-.81c.24-10.79-.13-21.59-.14-32.38C33.11,1.55,33.1,1.53,33.1,1.52ZM31.29,33.21c-5.84.2-10.9.12-16.75.11-.11-2.74-.23-7.12-.41-9.35a8.71,8.71,0,0,0,3-.79.93.93,0,0,0,.47-.76,1.64,1.64,0,0,0,0-.23v-3a.94.94,0,0,0-1-1,1.09,1.09,0,0,0-.26,0H13.93c-.88-3.83-.38-8.22,4.52-8a.86.86,0,0,0,.9-.64.92.92,0,0,0,.34-.74v-3a.93.93,0,0,0-1-1C14.13,4,9.58,5.62,7.78,10.08a.88.88,0,0,0,0,.57,46.39,46.39,0,0,0,0,8.08,10.74,10.74,0,0,0-3,.54,1.23,1.23,0,0,0-.69,1.34c.14.75.27,1.89.39,2.63a1,1,0,0,0,1,.72h0c.64,0,1.67,0,2.3,0v9.84c-1.35,0-3.48.09-4.83.11-1.42-10.46-1-21.27-1-31.82C11,2.43,22.38,1.82,31.15,2,31.17,12.38,31.5,22.79,31.29,33.21Z"/></g></g></svg>