<svg xmlns="http://www.w3.org/2000/svg" viewBox="0 0 40.69 41.29"><defs><style>.cls-1{fill:#192451;}.cls-1,.cls-2{fill-rule:evenodd;}.cls-2{fill:#44341f;}</style></defs><title>lotionldpi</title><g id="Layer_2" data-name="Layer 2"><g id="img"><path class="cls-1" d="M23,2.66c-.27.07-.79-.2-1.1-.33-3.06,0-5.39-.56-8.55-.11,2-.73,4.5-.2,6.86-.13.51,0,1.21,0,1.76.09.38,0,1.06,0,1,.48Z"/><path class="cls-1" d="M19.37,2.55a13.76,13.76,0,0,1-3.06,0,9,9,0,0,1,3.06,0Z"/><path class="cls-1" d="M19.52,2.47a31.57,31.57,0,0,0,3.8.33.61.61,0,0,1,0,.51c-1.26-.73-2.76-.23-3.82-.84Z"/><path class="cls-2" d="M13,15.67a1.05,1.05,0,0,1,.59.13c1.47,0,2.86-.23,4.3-.21.49,0,1.12,0,1.4.25a10.18,10.18,0,0,1-3.56.69c.35.29.75.13,1.18.26-.19.51-1.24.39-1.89.35-.06-.32.33-.21.57-.24,0-.28-.47-.1-.45-.42,1-.39,2.39-.17,3.13-.54-2-.3-3.54.31-5.26,0v-.29Z"/><path class="cls-2" d="M17.9,40.41c.21.05.63,0,.35-.23-.06.24-.14-.08-.22-.07s-.19.1-.13.3Zm.87-.1c.29.08.38-.35.13-.37-.07.1-.06.27-.13.37ZM17,40.22c-.07-.14.22-.25,0-.29,0,0-.18.28,0,.29Zm2.27,0c.25.05.27-.12.51-.09l0-.36c-.26,0-.35.28-.49.45Zm-.59-.2c-.08-.13.21-.25,0-.29,0,0-.17.28,0,.29ZM16,40.39a.66.66,0,0,1,.44.06c.23-.22.2-.5.12-.88h-.22c-.18.21-.1.66-.34.81Zm4.35-.93c-.06,0-.14,0-.14.08.39.25,0-.5.14-.08Zm-5.09.81c.57.08.72-.66.42-.81,0,.41-.39.43-.42.81Zm-.73-.12c.51.32.58-.59.35-.67.08.41-.08.59-.35.67Zm3.14-.1a.45.45,0,0,1-.3-.06c0,.22-.18.25-.2.44h.43c.06-.45.73-.69.55-1.11-.1.14-.15.32-.42.3.06.19.11.33-.06.44Zm1.67-.2c.12-.29.45-.75.33-1-.17.24-.64.58-.33,1Zm-.67-.27c0-.2.2-.19.29-.3-.07-.18.12-.63-.17-.58-.12.4-.41.55-.12.88Zm-1-.12c.27,0,.26-.31.5-.38,0-.2,0-.36-.16-.43-.54.33-.11.44-.34.81Zm2.52-1.17c0,.11,0,.27.08.29s.24-.52.06-.36c0,.05-.05.08-.14.07ZM38,37.82c-.39.14-.83.59-.85.83a3.19,3.19,0,0,0,1.06-1.12c-.2,0-.35.17-.21.29Zm-19.46,1c0-.26.31-.65.19-.81-.25.21-.48.6-.19.81Zm.8.12c.21-.19.54-.62.26-1,0,.37-.35.81-.26,1Zm-1.61-.17c.14-.19.55-.51.27-.88-.12.22-.53.54-.27.88Zm3.41-.9c0-.19.24-.42.05-.51,0,.16-.4.39-.05.51Zm-1.32-.11c.28-.12,0,.32.23.29,0-.15.16-.6.05-.66,0,.17-.24.2-.28.37Zm-.58.17c.28,0,.31-.33.35-.6-.27.05-.4.24-.35.6Zm1.38-.27c.06-.06.31-.45,0-.43.1.2-.19.37,0,.43ZM18.55,38c.18-.24.64-.57.34-1-.21.23-.68.72-.34,1Zm3.12-.75c.19,0,.26-.46.13-.52,0,.23-.19.25-.13.52Zm-2.2-.15c0-.09.29-.29.07-.37,0,.15-.15.28-.07.37Zm.66,0c0-.12.27-.35.06-.44-.05.08-.28.34-.06.44Zm16.77,1.6c0,.08,0,.19.07.07.3-1.11,2.2-1.7,2.17-3.13-1.41,1.46-3.07,2.69-4.4,4.22a5.68,5.68,0,0,0,2.16-1.16ZM21.08,37c.09-.24.38-.67.26-.88-.19.29-.41.64-.26.88Zm-.53-.34c.08-.08.27-.41.06-.52,0,.12-.27.4-.06.52Zm-2,.5c.27-.34.58-.69.25-1.11-.11.29-.57.64-.25,1.11Zm3.26-.69c.07-.08.13-.52,0-.58,0,.22-.29.5,0,.58ZM9.88,36.2c-1,.42-2,1.62-3.21,2.22A4.18,4.18,0,0,0,5.52,39c2.31,0,5.13,0,4.8-2.7a1.3,1.3,0,0,0-.44-.06ZM20,36.48c0-.3.52-.75.19-.88-.11.35-.52.46-.19.88Zm-.67-.2c.11-.11.41-.65.05-.73,0,.28-.34.64-.05.73ZM22.21,36c.1-.24.19-.64,0-.8-.07.11-.05.93,0,.8Zm-3.71.19c.08-.3.58-.59.26-1-.09.3-.57.6-.26,1Zm2.38-.73c-.06-.19.21-.41,0-.51,0,.13-.19.43,0,.51Zm-1,.1c0-.31.41-.65.27-.88-.15.22-.63.6-.27.88Zm-8.44,3.25c-.34-1.33,0-2.73-.34-3.93-.41.69-.44,3.15.34,3.93Zm7.78-3.45a2.42,2.42,0,0,0,.27-.81c-.34,0-.47.55-.27.81Zm2-.28a1,1,0,0,0,.19-.81c-.21.09-.29.67-.19.81Zm-2.77.09c.11-.21.55-.47.26-.82,0,.28-.55.47-.26.82Zm-.89-.27c.23.88-.06,2,.17,3.13.26-.24.67-.86.18-1.17a1.72,1.72,0,0,0-.05-1.75c.1-.17.38-.53.2-.73-.13.21-.18.49-.5.52Zm-2.85-.2c0,1.45-.32,3.14.21,4.59.1-1.34,0-3.67-.07-4.82v.08c-.09,0-.17,0-.14.15Zm-2-.24a33.18,33.18,0,0,0,.22,5c.45-1.25,0-3.36.07-5,0-.06-.06-.09-.15-.07s-.05.15-.14.07Zm-1.38.27c.12.87.06,1.9.09,2.91,0,.58-.09,1.42.48,1.52-.06-1.83-.17-3-.28-4.66a.11.11,0,0,0-.15-.07c0,.14-.2.1-.14.3Zm5.82-.55c-.11.2-.29.34-.42.53.14,2,0,3.55.16,5,.31-.27.19-.52.48-.82-.19-.75.19-3.18-.25-3.64a1,1,0,0,0,0-1.1Zm.46.43c.06-.2.28-.26.35-.45a.52.52,0,0,1-.37-.06c-.07.06-.14.47,0,.51ZM16,34.48c0,1.71,0,3.77.08,5,.26,0,.17-.26.43-.23,0-1.38,0-2.25-.05-4-.05-.07-.31,0-.3-.28s.52-.55.26-.89c-.15.12-.26.27-.42.38Zm4.74,0c0-.22.27-.26.2-.59-.25,0-.35.46-.2.59Zm-1.9-.23c.18,0,.51-.39.35-.23s-.31.08-.35.23Zm-10.36.46c.06,0,.15,0,.15.07-.29.19-.35.61-.4,1-.17.15,0,.15.07,0A5.23,5.23,0,0,1,9,34.26c-.27,0-.23.35-.43.45ZM34,39.26c1.25-1.21,2.89-2.61,4.19-4,.49-.53,1.5-1.31,1.18-2-2,2-4.1,4.26-6.09,6.17-.3.29-.84.54-.71.82.61.15,1.58-.35,2-.35a36.79,36.79,0,0,1,4.75-4.67c0-.35.29-.76,0-1.1a35.43,35.43,0,0,1-5.46,5.28c0-.07,0-.09.06-.15Zm-14.15-4.6c.18-.26.48-.4.48-.82-.4,0-.51.65-.48.82Zm-4.53,4.88c.49-.08.44-.49.41-1-.05-1,0-2.76,0-3.73-.22-.05-.23.45-.36.23-.2-.4.49-.51.4-1-.1-.11-.37,0-.58-.06-.06,1.68,0,4.25.09,5.55ZM4.57,34.32c0-.06-.2-.08-.22,0s.29.15.22,0Zm9.77-.44c-.81,1-.12,3.63-.36,5.12,0,.22.21-.2.23.06-.28.25-.15.5-.12.95.28.06.25-.18.43-.23a30.07,30.07,0,0,1,0-5.84c.22.1.31.33.44,0-.27.06-.32-.11-.59,0Zm-3.4,1A.74.74,0,0,0,11,34a.89.89,0,0,0,0,.87ZM7.15,37.52c0-.05.06-.08.14-.07.31-.68.47-1.61.74-2.36.12-.35.54-.75.33-1a18.29,18.29,0,0,0-1.21,3.46Zm-.93.62C7.41,37.3,7.28,35.21,8.06,34H7.85a25.85,25.85,0,0,1-1.63,4.14Zm.07-2.63c0-.57.42-1,.47-1.33-1.64.54-2,2.88-3.24,4a2.54,2.54,0,0,0,2.42.14A35.51,35.51,0,0,0,7.55,34c-.82-.16-.81,1.32-1.26,1.5Zm7.13,4.16c-.17,0-.17-.35-.37-.13-.1.38.26.27.45.35.41-1.46.14-3.35.14-5.12.07.15-.18.34-.22.15,0-.47.54-.69.26-1.17h-.22c-.38,2,.25,4.08,0,5.91Zm-.75-5.45a.81.81,0,0,0,.42-.53.45.45,0,0,0-.36-.06c.06.27-.12.32-.06.59ZM12,35.63a25.93,25.93,0,0,0,.33,3.56c.17-.11-.15-.22.14-.22,0,.35-.14.49.16.58-.18-1.35,0-3.36-.21-4.59-.15.07-.05.37-.28.37-.13-.39.81-1.35.09-1.83A3.42,3.42,0,0,0,12,35.63Zm-.69-1.37c.42-.13.45-.74.33-1a1.08,1.08,0,0,0-.33,1Zm-4.47-.45c.31,0,.62-.71.56-.6a1.54,1.54,0,0,0-.56.6Zm-1.88.64c.18-.42.75-.85.69-1.26-.23.38-.72.88-.69,1.26Zm-1-1c0,.23.2.24.16.51.58-.44.89-.71,1.43-1.14-.62.13-.88.58-1.59.63Zm16.34-.35a6.27,6.27,0,0,0,1.07-.91,3.5,3.5,0,0,0-1.07.91Zm8.5-1.43c.05,0-1.61-.17-.59-.05.32,0,0,.27.59.05Zm-2-.16c1.22.19-.33-.21-.65-.05a.75.75,0,0,0,.65.05Zm5.75,1.65c.26-.6.88-.86,1.2-1.42-.92.1-1,1-1.64,1.36,0-.65.62-.73.76-1.26-.47-.09-.79.55-.85.83a.42.42,0,0,1-.22-.14c0-.31.51-.51.34-.74a.64.64,0,0,1-.51.16c0,.19-.13.61-.42.45-.09-.23.5-.4.13-.44-1.29.23-3.22-.11-5-.07a5.38,5.38,0,0,1-1.35,1.21c.26-.58.89-.81,1.27-1.28a12,12,0,0,1-1.25-.25c-.59.64-1.54,1-1.76,2,.19.13.48-.56.72-.39-.27.46-.82.65-.76,1.41.37.1.68-.8,1-.76a3.84,3.84,0,0,1-1,1.2c.16.07-.11.44.16.58.32-.34.72-1,1.14-1-.39.68-1.5,1.05-1.17,2.16.57-.47,1.1-1.37,1.77-1.52-.51.84-2,1.18-1.75,2.47.58-.5,1.15-1.39,1.78-1.59-.52,1-2.19,1.54-2,2.76.55-.54,1.18-1.39,1.85-1.59-.57.69-1.41,1.13-1.84,1.95.15.05.18.22.3.29,1-.55,1.59-1.82,2.57-2.13a25.94,25.94,0,0,1-2.2,2.12c0,.28.26.22.37.35.76-.5,1.17-1.31,2-1.74a15.58,15.58,0,0,1-1.62,1.73c.11.23.49.17.74.27A10.22,10.22,0,0,1,27.68,38c-.52.86-1.46,1.33-2,2.18.25-.06.28.1.51.06.68-.54,1.3-1.52,2.07-1.74-.48.66-1.53,1.16-1.77,1.8,1.19.12,1.62-1.48,2.79-1.83-.6.66-1.32,1.21-1.92,1.88a10.81,10.81,0,0,1,1.54.17A28.25,28.25,0,0,1,33,36.37c-1.2,1.45-2.8,2.51-3.82,4.13,1.24.19,1.52-1.09,2.09-1.08-.31.39-.74.68-1.07,1,.61.12.6-.34,1-.39-.09.09-.21.13-.14.37.22-.06.27.06.44,0,1-1.37,2.26-2.7,3.45-4a30.26,30.26,0,0,1,4-4c-2.43,2.62-5.12,5.37-7.35,8a3.07,3.07,0,0,0,1.5-1.07c2.11-2.12,4.14-4.45,6.23-6.47a2.17,2.17,0,0,0-.69-1.07,84.19,84.19,0,0,1-7,7c2.4-2.09,4.37-4.58,6.58-6.84.14,0,.18-.17.36-.16-.06-.44-.48-.49-.61-.86-1.44.91-2,2.16-3.49,3,.81-1,1.78-1.77,2.62-2.71-1.59.16-2,1.81-3.21,2.43.54-1,1.49-1.52,2.12-2.4-1-.13-1.93,1.57-2.79,2,.3-.69,1.19-1.19,1.41-1.72-1.09.14-1.3,1.45-2.14,1.59ZM23.29,33a17.42,17.42,0,0,1,1.42-1.43,1,1,0,0,1-.81-.13c0,.17-.21.41-.06.44s.26-.25.29-.08c-.25.38-.82.84-.84,1.2ZM26,31.48c0-.18-.36-.26-.37-.14.14,0,.18.15.37.14ZM33,31.33c0-.15.26,0,.36-.08V31c-.16,0-.52.26-.36.37Zm-.65,0c.17,0,.21.11.44.05,0-.16-.16-.36,0-.51-.28,0-.28.31-.42.46ZM21.6,32.56c.34-.44,1.14-.81,1.13-1.35-.19.48-1.08.81-1.13,1.35Zm6.46-1.29c.23,0,.32-.08.28-.3a.26.26,0,0,0-.28.3Zm-3.29-.12c-.31,0-.4-.18-.74-.13,0,.23.59.28.74.13Zm9.85-.23c.18.07.23-.33.13-.29s-.1.18-.13.29Zm-.87.32c0-.14.25,0,.29-.16,0-.27.1-.33,0-.43,0,.25-.47.4-.27.59Zm-.81-.19c.19,0,.47-.31.35-.38,0,.19-.32.16-.35.38Zm-2,.35c.1,0,.38.07.36-.08-.19,0,.17-.5-.09-.59,0,.3-.31.32-.27.67Zm-2.19-.08h.36c0-.13.18-.43,0-.51a5.8,5.8,0,0,0-.34.52Zm-1.47-.1c.18,0,.16.13.37.06-.05-.13.07-.43-.09-.43,0,.17-.23.2-.28.37Zm2.86.2h.51c-.08-.22.13-.75-.17-.73,0,.33-.38.36-.34.74Zm-.66-.05h.36c0-.2.08-.58-.09-.65-.14.21-.46.35-.27.66Zm4.29-.57c0-.09.29-.23.06-.29,0,.1-.29.23-.06.29Zm-2.25.58c.17,0,.22.12.44.06-.05-.27.07-.73-.1-.87-.11.27-.39.39-.34.81Zm-5.12-.28c.11.11.38,0,.59,0-.11-.13,0-.48-.16-.57-.1.21-.33.3-.43.52ZM25.86,31a.36.36,0,0,1,.29.07c0-.17,0-.34,0-.51a.45.45,0,0,0-.28.44Zm-3,.09c0-.16.34-.33.13-.44-.08.14-.55.28-.35.45.18-.28.14-.21.22,0Zm13.33-1s0,.07,0,.08c-.33.4.35-.15,0-.08Zm2.19.15c-.17,0-.17-.21-.3-.28,0,.19.24.44.3.28Zm-5.46.32c.19,0,.48-.3.28-.45,0,.2-.3.19-.28.45Zm2.25-.51c0,.09,0,.21.07.22s.24-.28.07-.3a.11.11,0,0,1-.14.08Zm-10.79.62c.18,0,.16.13.37.06-.05-.14.1-.51-.16-.43a2.22,2.22,0,0,1-.21.37Zm3.45.55c.12-.32.78-.81.26-1.1a1,1,0,0,0-.26,1.1Zm-2.71-.35c0-.14.24.08.43,0-.07-.34,0-.55-.16-.65-.07.2-.49.44-.27.67ZM31.89,30a.75.75,0,0,0-.42.6c-.06.41.43-.21.42-.6Zm-2.46.81c.05-.24.52-.46.27-.74a.56.56,0,0,0-.27.74ZM1.09,35.15c-.74-2.35,2.4-4.13,5.06-4a6.44,6.44,0,0,1,3.7,1.49A5.33,5.33,0,0,0,7.24,31a8.46,8.46,0,0,0-4.36.43c0-.15.09-.15.14-.23A3.87,3.87,0,0,0,.77,34.07C.46,36.15,1.93,37.23,3.23,36c0-.6-.06-1.13-.69-1.07-.22.38.28.33.25.72-.57.9-1.46.28-1.7-.46Zm2-4a1.58,1.58,0,0,0,.72-.31,1.2,1.2,0,0,0-.72.31Zm31.36-.88c.14,0,.16.08.29.06a.35.35,0,0,0-.08-.5c-.06.15-.22.22-.21.44Zm-5.81.91c.16-.39.6-.52.47-1.19-.33.3-.87.78-.47,1.19Zm2.25-.29c.18-.21.54-.62.26-1a.49.49,0,0,1-.35.37c0,.31,0,.61.09.66ZM27.17,31a.74.74,0,0,0,.26-1.1.91.91,0,0,0-.26,1.1ZM37,29.83c.23.08.41-.22.21-.3,0,.15-.19.15-.21.3Zm-3.34.61c.11-.2.56-.47.27-.81,0,.36-.5.52-.27.81ZM33,30.09c0-.19.2-.28.27-.44-.19,0-.48.3-.27.44Zm-.85,1.05a1.06,1.06,0,0,0,.39-1.47c-.46.52-.42.75-.39,1.47Zm-2.21-.81c.12.15,0,.55.16.66.16-.38.73-.74.4-1.33a1.38,1.38,0,0,1-.56.67Zm-3.57.33c.46-.09.71-.8.41-1-.2.34-.5.61-.41,1Zm-25.11.18c.32.32.7-.14.79-.46-.49-.07-.61.23-.79.46Zm35.31-.93c.28,0,.37-.49.19-.66-.06.22-.24.33-.19.66Zm-10.72.62c.15-.19.44-.62.19-1-.13.2-.49.78-.19,1Zm-.87,0c.16-.32.49-.48.56-.89-.3-.18-.42.33-.65.45.25,0-.07.48.09.44Zm7.21-.66c0-.21.39-.48.27-.59-.15.1-.53.34-.27.59ZM35.1,30c.18-.24.43-.66.12-.81-.09.18-.27.64-.12.81Zm-.75-.42h.22c0-.13,0-.31-.15-.36,0,.17-.13.16-.07.36Zm-5.89.69c.26.1.76-.5.49-.89-.17.29-.59.35-.49.89Zm-4.17-.45c.05.19-.08.58.09.65.2-.12.48-.84.19-.95,0,.2-.2.18-.28.3Zm7.16.14c.41,0,.35-.56.41-.74-.39.1-.37.48-.41.74Zm-2.12.14c.3,0,.64-.7.34-.81-.12.26-.41.36-.34.81Zm-8.25,2.15a21.44,21.44,0,0,1,2.13-1.89,4.13,4.13,0,0,1,.05-.88,5.78,5.78,0,0,0-2.18,2.77Zm-19.23-1c.27-.32,1.14-.81.91-1.12-.28.35-.94.7-.91,1.12Zm35.27-1.81c.1-.09.12-.44-.08-.43.14.18-.1.3.08.43Zm-3.56.26c.23-.05.56-.36.34-.59,0,.27-.3.32-.34.59ZM2.86,30.72c.09-.3.66-.51.56-.75-.18.22-.67.51-.56.75ZM30.06,30c.11-.28.64-.53.41-.89,0,.34-.65.51-.41.89Zm-2.25.36c.27-.21.67-.85.33-1.18a1.13,1.13,0,0,0-.33,1.18ZM1.89,30.09H2v-.15H1.88v.14Zm31-.5c.33,0,.52-.59.27-.74-.06.28-.37.31-.27.74Zm-2,.35c.12-.24.44-.66.18-1-.1.29-.51.77-.18,1Zm5.6-.61c0-.31.56-.41.27-.74,0,.28-.54.43-.27.74Zm-.81-.27c.05,0,.15-.41,0-.44-.12.13-.19.34,0,.44Zm-.59-.13c.09-.1,0-.22-.08-.28-.09.1,0,.22.08.28Zm-7.93,1c.21-.19.54-.63.26-1-.14.24-.57.59-.26,1Zm-1.39-.33c.05-.18.24-.24.35-.37-.2.06,0-.35-.16-.29s-.46.41-.19.66Zm.66.13c.13-.18.7-.63.26-.89,0,.29-.58.49-.26.89Zm-22.85,0c.18.06.39.08.36-.23-.23,0-.3.1-.36.23Zm20.8-.27c.09-.22.37-.26.27-.67-.35-.06-.47.46-.27.67ZM30,29.16c.23-.13.52-.22.49-.6-.31.07-.4.34-.49.6Zm-5.12-.06c0,.17-.07.53.1.58a6.15,6.15,0,0,1,.49-.53.58.58,0,0,0-.16-.43.54.54,0,0,1-.43.38Zm7.23.07c0-.27.51-.51.35-.74,0,.29-.59.44-.35.74ZM30.91,29c-.05-.27.49-.38.13-.51-.08.19-.44.33-.13.51Zm-1.67.42c.3-.13.74-.48.49-.89-.2.26-.49.44-.49.89Zm6.91-.8s.16-.35,0-.36-.25.31,0,.36ZM33.61,29c.22-.16.08-.5-.09-.65,0,.19-.08.58.09.65ZM3,29.69c.33,0,.64-.29.5-.45-.17.14-.4.24-.5.45ZM36.52,28.6c0-.18.46-.34.13-.44.13.27-.33.34-.13.44Zm-5,.52c.17-.17.38-.66.12-.81-.16.17-.45.59-.12.81Zm-3.13.38a.78.78,0,0,0,.48-1.11,1.41,1.41,0,0,0-.48,1.11Zm-7.11,1.32a10,10,0,0,1,2-1.67c-.05-.17.08-.53-.09-.58-.5.83-1.72,1.36-1.9,2.25Zm9.49-2.41c0-.11.11-.13.14-.22-.16-.06-.33.2-.14.22Zm5.68-.25c0-.08.13-.17,0-.22s-.13.17,0,.22Zm-3.42.25c-.06-.16.33-.24.06-.36,0,.11-.26.3-.06.36Zm-5.23.82c.17-.24.64-.58.33-1-.24.33-.59.52-.33,1ZM2.1,30c.65-.12.81-.7,1.29-1-.71-.2-1.09.46-1.29,1Zm35.43-1.73c-.13-.12-.15-.35-.31-.43,0,.16.21.58.31.43ZM34,28.46a.67.67,0,0,0,0-.51h-.22c0,.28.12.37.24.5Zm-6.78.5c.12-.21.56-.47.27-.81-.1.21-.55.47-.27.81Zm-.73-.05c.18-.1.16-.38.43-.38-.05-.13.07-.43-.09-.44-.11.23-.72.58-.34.82Zm-.8-.05c.33,0,.64-.43.41-.74a1.07,1.07,0,0,0-.41.74Zm10.12-.75s.16-.35,0-.36-.25.31,0,.36Zm-10.85.7a1.3,1.3,0,0,0,.57-.46c-.21-.06.13-.27-.16-.28-.23.25-.45.4-.41.74Zm-.53-.64a1.9,1.9,0,0,1-.06.51c.22.05.13-.2.36-.16,0-.25-.15-.3,0-.43-.13,0-.15.08-.28.08ZM.5,30.14c.24.19.35.53.68.63.06-.38.37-.34.19-.81.18,0,.16.13.37.06a7.64,7.64,0,0,1,.91-1.19A2,2,0,0,0,.5,30.14Zm29.44-1.63c.27.1.63-.24.57-.68-.48,0-.37.55-.57.68ZM31.53,28c0-.14.35-.38.21-.44,0,.13-.38.34-.21.44Zm-1.46-.18c0-.08.12-.16,0-.21s-.12.17,0,.21Zm6,0c.17-.17.29-.38,0-.51.08.21-.11.51,0,.51Zm-2.41-.29h.14v-.15h-.15v.15Zm-4.42,1.16a1,1,0,0,0,.47-1.19c-.18.38-.61.51-.47,1.19Zm-1.4-.4a1.43,1.43,0,0,0,.49-.74c-.36,0-.72.4-.49.74Zm-5.94,1.35c.45-.58,1.79-1,1.4-1.94-.45.58-1.36,1.46-1.4,1.94Zm10.25-1.19c.12-.15.19-.34.43-.38-.09-.28.11-.64,0-.72-.13.09-.73.6-.41,1.1Zm-3.57,0c.2-.2.67-.78.33-1-.16.3-.71.64-.33,1Zm5.88-1c.05-.06.17-.37-.08-.29,0,.11,0,.27.08.29Zm-7.37.22c.05.15-.07.48.09.51.14-.2.53-.54.34-.81-.2,0-.21.48-.43.3Zm-4.31-.16a1.79,1.79,0,0,0-1.05,1.56,9.9,9.9,0,0,0,1.05-1.56Zm3.6.62a.83.83,0,0,0,.56-.75c-.22-.06-.64.3-.56.75ZM24.3,27.8c.13.18.5-.23.28-.37-.11.11-.25.19-.28.37Zm1.47.32c.21-.1.62-.7.27-.88,0,.31-.59.49-.27.88Zm3.42-.46a1,1,0,0,0,.49-.53c-.22.06-.22-.12-.44-.06a1.37,1.37,0,0,1,0,.59ZM25,28.07c.12-.24.64-.48.34-.88-.13.24-.61.51-.34.88Zm10-1c-.12,0,0-.2-.15-.22-.06.15.08.46.15.22Zm-3.7.55c.3-.42.62-.48.85-.68h-.44c-.06.3-.32.4-.41.67Zm-.51.09a5.85,5.85,0,0,1,.56-.75c-.49-.05-.83.54-.56.75Zm6.28.17c.05-.39-.42-.84-.69-1.15l.69,1.15Zm-9.35-.3c.25-.12.31-.41.64-.45,0,.2,0,.36.16.43.09-.22.33-.31.42-.53a7.68,7.68,0,0,0-1.31,0c.21,0-.18.44.09.51Zm5.6-.68h.14v-.15h-.15s0,.09,0,.14Zm-.14.22c-.22-.05.09-.18,0-.36-.21,0-.4.1-.43.3.16,0,.4.22.44.06Zm-6,.26c.06-.2.41-.13.42-.38s-.31,0-.44-.06c.11.21-.18.38,0,.44Zm-4.43.72c.15-.19.38-.59.64-.46,0-.18.25-.64-.09-.65-.26.26-.63.78-.55,1.11Zm-1.59.49c.47-.38,1.13-1,1.12-1.57-.42.44-1.24.86-1.12,1.57Zm5.22-1.11a5.3,5.3,0,0,0,.56-.6c-.23,0-.26-.13-.51-.06a1.12,1.12,0,0,0-.05.66Zm-.67-.27c.29,0,.28-.31.43-.45H25.8a.6.6,0,0,1-.06.44Zm8.75-.56c0-.15.19-.1.13-.3H34.4c0,.11,0,.27.09.29ZM25,27.27c.1-.27.44-.34.48-.67-.35,0-.68.39-.48.67Zm-5.23,1c.32-.55,1.42-1.1,1.26-1.64-.4.57-1.56.84-1.26,1.64Zm4.63-1.45c0-.14.15-.19.13-.37-.11,0-.27,0-.29.08.2-.06,0,.35.16.29Zm-9.06,0c-.48-.37-1.48.15-1.22.7.24.08,0-.24.29-.16.63.75,2.07.82,3.17.85,0-.1,0-.26.06-.29.71.06,1.38.28,1.82-.05-.69-1.19-2.79-1.11-4.12-1Zm19.55-.52c.2,0,0,.41.3.36s-.08-.91-.09-.88c.08.32-.24.25-.21.52ZM4.19,28.93a5.64,5.64,0,0,1-.37-2.62,3.25,3.25,0,0,0,.37,2.62Zm17.16-2.28c.32-.21.89-.57.77-1-.3.29-.66.52-.77,1Zm.39-1.47c-.31,0-.13.4-.5.31,0,.23-.2.29-.28.45-.38.53-1.53,1-1.26,1.64.74-.75,2.22-1.6,2.1-2.69,0,.14-.07.16-.06.29Zm.8,2.24a2.24,2.24,0,0,1,1-.61c-.14-.7.35-2,0-2.49-.27.5-1.12.84-1.05,1.42a3.6,3.6,0,0,1,1.06-.91c-.53.8-1.67,1.4-1.75,2.39a5.56,5.56,0,0,0,1.27-1.42.31.31,0,0,0,.08.21c0,.18-.22.17-.28.31.18-.11.31.2.36,0-.22,0,.15-.3.15-.07-.31,0,0,.05,0,.14-.54-.09-.91.61-.84,1.05ZM32.65,24c.11,0,.38.08.36-.08-.22,0-.3-.16-.36.08ZM28.13,24a7.52,7.52,0,0,0-3.85.77c-.1.27.12.53-.05.81,1.82,1.11,6.23,1.42,8.49.69.5.11,1.92-.07,2-.79C33.22,24.39,30.53,24,28.13,24ZM6.68,27c.54,0,.93-.59.92-1.05,0-1.12-1.81-2-2.52-1.17a1.42,1.42,0,0,1,2,1.55c-.17.08-.23.26-.5.23-.35-.19.21-.47-.17-.57-.57.31-.11,1,.32,1Zm21.21-3.64a11.59,11.59,0,0,0,1.21-1c-.48.21-1.16.61-1.21,1ZM32,22.53c0-.09.29-.22.07-.29,0,.1-.29.23-.07.29Zm-5.1.38c.32.18.69-.39.94-.25-.11.34-.95.22-.7.68a1.25,1.25,0,0,0,1-1.2c-.32.33-.94.39-1.22.77Zm.14-.37c.43-.23,1.3-.43,1.21-.91-.42.21-1.22.81-1.67.34,0,.06-.06.09-.14.08,0,.22.17.32.23.5.19,0,.41-.32.51-.16-.08,0-.11.08-.14.15Zm1.31,0c.29-.15,1.29-.63,1.29-1.06-.33.45-.95.63-1.29,1.06ZM33,22.21c.22-.3.61-.8.55-1.11A3.46,3.46,0,0,0,33,22.21ZM26.75,22A1.65,1.65,0,0,0,28.4,21c0-.06-.06-.09-.15-.07-.32.34-1,.59-1.5,1Zm-3.86,2.75c.35-.12.44-.49.79-.61a13.05,13.05,0,0,0,0-3.06c-.61.7-1.64,1.38-1.61,2.45.36-.51.91-.84,1.13-1.49.17.32.36-.17.51,0-.24.32-1,1.07-.9,1.71.28-.23.47-.55.85-.68-.64.78-1.62,1.63-1.74,2.68.64-.25.65-1.46,1.19-1.57,0,.2-.32.73-.2.59ZM33.66,21.1c.39.18-.27.58,0,.8.57-.15.56-.85.84-1.27a1.57,1.57,0,0,0-.79.47ZM21.24,23.3a6,6,0,0,0,1.67-2.9,6.09,6.09,0,0,0-1.67,2.9ZM33.84,22c-.61.11-.67.64-.78,1.05,2.64.85,4.32-1.22,5.4-2.72-1.25-.38-2.88-.68-3.87.19.41.2-.57.77-.11,1-.51.35-.49,1.19-1,1.57-.09-.56.24-.73.34-1.11Zm-11.25-.17c.41-.35.68-.83,1.21-1.06,0-.38-.11-.9,0-1.17-.4,0-.35.47-.71.54.2.64-.56,1.23-.53,1.69Zm5.85.26c.49-.25.88-.58,1.36-.84a4.08,4.08,0,0,0-1.4-2.66c-.41,1.29-2.3,1.56-2,3.27.83-.24,1.25-.86,2-1.16.13-.16,0-.59.13-.73.1.09.08.32.09.51.22.09.36-.26.43-.09a.82.82,0,0,1-.43.31c.05.13-.07.43.09.43a1.68,1.68,0,0,1,.79-.39c.05.15.26.31,0,.37s-.06-.24-.23-.21c-.15.3-.66.27-.7.68.34-.11.44-.43.86-.47-.11.54-.91.42-1,1Zm-6-1.64c.43-.36,1.69-.92,1.25-2.08a4.16,4.16,0,0,0-1.25,2.08Zm-.88-.19a8.93,8.93,0,0,0,1.77-2c.19.19.21-.09.43-.08a1.36,1.36,0,0,1,.06-.59c-.86.69-2.07,1.79-2.26,2.63Zm16.06-2.46c.45-.24,1-.73,1-1.2-.23.49-.68.77-1,1.2Zm-15.16.82c.4-.6,1.39-.91,1.33-1.72a2.09,2.09,0,0,0-1.33,1.72Zm14.12-1.38c1.56-.44,2.3-1.65,2.37-3.5-1.35.3-2.51,1.53-2.32,2.63.2-.19.29-.48.56-.61-.17.5-.72.95-.61,1.48Zm-5-4.08q-.66,0-.63.6c0,.18.47,0,.44.21-.88,1-1.8,0-1.92-.82-.44,1.79,2.82,2.07,2.11,0ZM35,17.77c-.93,2-3.05,3.35-4.32,4.58C34,21,37.57,16.42,34.86,12.52A6.52,6.52,0,0,1,35,17.77ZM33.13,11c-.85-.19,0,.26.23.13a.21.21,0,0,1-.23-.13Zm1-2.08c-.13-.2-.8-.67-.59-.35.12.78,0,1.33.49,1.74.11-.13,0-.45.2-.51s0,.32.24.5a3.3,3.3,0,0,0-.34-1.38ZM33.94,11c-.81-.69-.4-3.09-1.42-3.31-.23,1.26.09,3.05,1.42,3.31ZM25.31,3.47c0-.14.22-.33-.08-.29,0,.11,0,.27.08.29Zm-7,29.92c.91-.77,2.24-1.53,2.62-2.56A12.81,12.81,0,0,1,18.11,33c1.25-1.14,2.81-2,3.61-3.54a1.47,1.47,0,0,0-.77.9c-1.32.53-2.29,2.31-3.94,2.52,2-1,3.91-2.5,4.61-4.51a27.45,27.45,0,0,1-4.42,3.56c1.1-1.11,3.38-2.28,3.76-3.69a14.18,14.18,0,0,1-3.28,2.65c1.37-1.28,3.35-2.37,4-4.13a18.4,18.4,0,0,1-3.35,2.73c.42-.44,1.16-.57,1.2-1.35a7.52,7.52,0,0,1-5.71-.56c-.06.17-.36.13-.35.38.34.4,1.22-.19,1.25.47-.55.1-1.5,0-1.62-.61.62-.41.77-1.16,1.64-1.29a17.05,17.05,0,0,1,2-.21,6.65,6.65,0,0,1,2.8.87c1.16-1.21,2.75-2.37,3.17-4a13.73,13.73,0,0,0-1.69,2.17,3.83,3.83,0,0,0,.34-.67c-.78.53-1.47,1.54-2.2,1.89,1-1.17,2.64-2.05,2.8-3.73A13.26,13.26,0,0,1,19.47,25,12.59,12.59,0,0,1,21,23.6a11.42,11.42,0,0,1,.88-2.14c-.72.45-1.13,1.19-1.92,1.59.91-1.06,2.44-1.91,2.6-3.44-.65.87-1.6,1.47-2.19,2.4,0-.22-.28.24-.29,0,.5-.66,1.43-1.29,1.46-2.16-.46.49-.95,1.32-1.48,1.51.75-1.09,2.28-2.12,2.38-3.36-.76.63-1.44,1.72-2.2,2.11a21.94,21.94,0,0,1,3.54-3.47c.06-.16,0-.57.05-.87C22.45,17,21,18.51,19.67,19.55c.7-.72,1.43-1.53,2.19-2.26S23.75,16,23.91,15a14.58,14.58,0,0,1-3,2.72c1.1-.94,2-2.08,3.12-3,0-.38.27-.92.18-1.17a40.48,40.48,0,0,1-3.83,3.69c1.36-1.34,2.6-2.79,4-4.13,0-.33.26-.84.19-1-1.5,1.44-3.26,3-4.69,4.3a33.5,33.5,0,0,1,4.76-4.45c0-.34.29-.81.11-1.1-1.17,1.18-2.5,2.42-3.55,3.32a37.44,37.44,0,0,1,3.76-3.69c0-.44.33-.92.18-1.24a32.78,32.78,0,0,1-4,3.55c1.34-1.41,2.84-2.67,4.26-4,0-.36.08-.68.11-1A26.24,26.24,0,0,1,21.67,11c1.37-1.14,2.54-2.48,4-3.55,0-.39.3-.86.11-1.17-1.3,1.42-2.92,2.57-4.11,3.92,0-.48.51-.82.84-1.12C23.63,8,24.81,6.9,25.9,5.86c0-.4.15-.62.11-1-.08-.1-.12,0-.22-.14.46-.32.44-1.1.68-1.62-.19-.1-.22.29-.29.08.14-.2.55-.52.26-.89,0,.24-.09.48-.28.3.12-.28.39-.43.49-.74-.8-.16-1.08.72-1.57,1.07a4.1,4.1,0,0,1,.59.2c0,.26,0,.57-.13.66s-.19.11-.36.08a1.45,1.45,0,0,0-.68-.56c-.31.39-.79,1-1.2,1.06.89-.93,1.81-1.83,2.76-2.71-.85-.31-1.32,1.1-1.94.93a11.89,11.89,0,0,0,1.35-1.13c-.45-.06-.81.48-1.22.69.12-.64.55-.31.78-.83-.18-.23-.51.18-.66-.05a.54.54,0,0,0,.21-.15C19.66,0,11.74-.08,6.5,1.7c.3,4.91,1.74,9.85,2,13.88A9.79,9.79,0,0,1,9,18.12c.15,1.88.18,4,.33,6.05.23,3.08-.26,7.09,2,8.19a16.48,16.48,0,0,0,6.1,1.28c.43-.24.52-.06,1.09-.11,1.91-.18,2.27-1.48,2.91-2.57a10.37,10.37,0,0,1-3.13,2.43ZM29.62,22.53a10.84,10.84,0,0,0,2.85-2.13,8.89,8.89,0,0,0,2.26-2.62c.91-1.82.59-5.2-1.14-6.24-1.3-.79-4.14-.34-3.67,1.93a.75.75,0,0,0,.61.64c0-.39.26-1.31,1-1.27,1.35.06.21,2.24-.73,2.28-.77,0-1-.64-1.57-1.19,0-2.2,1.39-3.34,3.47-3.32-.81-1.1-.35-2.56-.33-3.64.56.74,1.63,1,2.1,1.84.38.66.15,1.38.22,2.25.11,1.37,1.85,2.78,1.53,4.63a6,6,0,0,1,1.4-1.94c.46-.33,1.12-.46,1.65-.78s.87-.92,1.44-.77c.06.5-.64.84-.84,1.33-.21,2.16-.5,3.93-2.12,4.74-.46.23-1,.13-1.59.34s-.8.77-1.21,1.13c1.41-.44,3.26.22,4.54.38.06.53-.41.5-.71.75-1.49,1.26-2.58,3.72-5.52,3.09a6.58,6.58,0,0,0,2,.81,19.07,19.07,0,0,1,2.43,3c.37.67.47,1.46.79,2.17.2.43.69.77.84,1.21.06.16,0,.24,0,.37s.41.46.53.71a8.15,8.15,0,0,1,.57,2c.36,2.61-1.9,4-3.41,5.5-.23.11-.24,0-.51,0-4.18,2.09-10.9,1.88-15,.24a9.29,9.29,0,0,1-3,.89c-.43,0-1.09-.24-1.24.18-.19-.34-.81-.21-1.24,0-.83-.44-2.35-.2-3.6-.77a10,10,0,0,1-2.09-1.54c-1.82,1.07-5.14.72-7.22.29-.5-.1-1.13.08-1.4-.39,0-.38.36-.16.58-.17,1.35-.67,2-2,2.68-3.29a2.2,2.2,0,0,1-1.45-2c.78.1,1.34-.44,2-.72.58.21,1.39-.14,2.11-.06a3.34,3.34,0,0,1,2.46,1.68c-.38-3.48-8.58-3.38-8.75.41a1.2,1.2,0,0,0,.77,1.22c.21-.23-.19-.91.26-1.18,1.95,0,1.21,2.91-.81,2.36-1.91-1-1.15-4.37.21-5.33C1,31.35.77,30.62,0,30.44.49,29,2.18,27.93,3.6,28.87c-.87-2.1.6-5.12,2.56-4.75A2.37,2.37,0,0,1,8,25.89a1.49,1.49,0,0,1-1,1.49c-1.27.26-2-1.7-.42-1.74-.89-1.26-2.49-.33-2.51,1.39,0,1.25.82,2.86,1.77,3.16.59.19,1.2-.06,1.76,0s.81.46,1.4.47c-.61-7.26-.67-15.55-2.07-22.35-.25-1.22-.66-2.86-.87-4.5S5.53,1,6.75.53A13.56,13.56,0,0,1,9.59.15c3.14-.26,6.69-.1,9.85-.08a32.35,32.35,0,0,1,5.42.49c1.37.25,2.67,0,2.53,1.75-.16,2.05-.95,4.26-1.27,6.24-.09.28.21.13.16.36a6.24,6.24,0,0,0-.68,1.7,48.36,48.36,0,0,0-1.3,9.89c0,1.16.07,2.34,0,3.66a17.93,17.93,0,0,0,2.47-.52c0-.82-.57-1-.7-1.51-.47-1.89,1.73-2.37,2.22-3.79.07-.42-.26-1.18.11-1,.29-.09.13.66.17.79.28.94,1.49,1.68,1.62,2.73.06.47-.23.86-.47,1.54,0,.06-.07.08-.06.15Z"/><path class="cls-1" d="M7.79,3.27c-.07-.21.09-.19.06-.37.16-.17.32,0,.44.13a66.25,66.25,0,0,1,7.94-.53,7.73,7.73,0,0,1-3.42.18C11,3,9.73,3,7.79,3.27Z"/><path class="cls-2" d="M17.07,13.35c-.36-.11-1.36.15-2,0,.35.42,1.72.74,2,0ZM15,13.42Zm.5-.31c-.47-.07-.15.23,0,0Zm-.66,0ZM16,13c0,.15-.81.05-.36.16a4.69,4.69,0,0,0,1.53-.2c-.26-.12-.83.23-1.17,0Zm1.75-.2c-.06,0-.15,0-.15.08s.15,0,.15-.08Zm-.22.08c-.25-.22-.21.27,0,0Zm-2.92-.06c.21,0,.57.19.73,0-.18-.32.93-.76.63-1-.71.09-1.25.35-1.36,1Zm-.74-.2c.27-.05.29.15.52.14,0-.39.61-.6.48-.9-.15.23-.41-.05-.66,0-.06.3-.22.36-.34.73Zm1.54.25,1,0c0-.57.51-.7.77-1-.85-.09-1.31.6-1.79,1.08Zm1.17-.11c.69,0,.84-.2,1.45-.19a1.25,1.25,0,0,1,.41-.89c-.85-.13-1.37.5-1.86,1.08ZM18,11.57Zm-.87,0s0,0,0,0Zm-.08-.07c-.06,0-.14,0-.14.07s.14,0,.14-.07Zm1.24-.11c-.06,0-.15,0-.15.07s.15,0,.15-.07Zm-2.19.13c-.24,0-.44-.09-.58.17.74-.1,1.14-.06.58-.17Zm-1.45.12c.27.05.66.15.72-.17-.25.05-.7-.08-.72.17Zm-.37-.06Zm0-.44Zm-2-.37a.21.21,0,0,0,.22-.16.2.2,0,0,0-.22.16Zm3.14,0c.11.25.47,0,.45.2.29-.08.4-.33.57-.53-.51-.09-.83,0-1,.33Zm-1.09.1c.38-.18,1-.1,1.15-.54-.09-.1-.34,0-.44-.14-.22.34-.62.38-.71.68Zm3.18-1.19c-.32.6-1,.88-1.35,1.43,1.23.21,1.34-1,2-1.08a5.32,5.32,0,0,1-.84,1c.86,0,1.14-.49,1.51-.92a2.46,2.46,0,0,0-1.33-.47Zm-1.31.33c.7.11.82.05,1.16-.4a.84.84,0,0,0-1.16.4Zm-.8-.05c.62.09.79-.24,1-.54-.59-.1-1.14.18-1,.54Zm-.95-.11c.4.14.93-.08.79-.39-.21.12-.77,0-.79.39Zm4.25-1.88c-.07-.06-.21,0-.22.08s.27,0,.22-.08Zm-4.37.42c0-.29-.14-.4-.1-.73-.23,0-.32-.15-.58-.12.2.31.13.91.68.85Zm3.11-1c0-.17,0-.27-.16-.29,0,.14.06.25.16.29ZM16.88,7c-.17-.9-2.1-.65-2.19.14.49-.31,1.7-.69,2.19-.14Zm.58-.09c.17,0,.3-.16.44,0s-.21.09-.21.23c.7.69,1.59-.36,1.56-1.22,0-.3-.29-.52-.24-.79-.76.34-1.82.72-1.55,1.8Zm-4,.92c-.13-.08-.42,0-.51-.13.11-.55,1.23-.3,1.45-.19-.27-1.5,2.24-1.65,2.68-.67.06-1.19,1.25-1.81,2.49-2.12.17.22.63.52.32.8-.3.06-.15-.35-.45-.28s0,.41.09.58a1.55,1.55,0,0,1-.82,1.56.76.76,0,0,1,.59.49c-.06.49-1.18.94-1.37.26-.05-.16.13-.11.13-.22s-.45-.17-.59-.35c0,.24.13.36.09.66-.2-.06-.18.1-.36.08.1-.48-.54-.18-.53-.57,0-.2.11-.25.22-.15-.14-.94-1.95-.59-2.12.06,0,.32.42.52.24.8.35-.12.64-.1.88-.17,0,.19-.29.11-.29.3.32.05.57-.22.81,0-.11.43-.63.45-1.16.48-.07.05-.07.17-.21.15a9.82,9.82,0,0,1,4.62.88c-.54.13-.77.55-1.14.84.15.38.12.34-.13.59.55.1.78-.62,1.14-.91.06.58-.22.41-.34.81a.2.2,0,0,0,.22-.15c.47.89-1.07.27-1.13,1.2.25.05.27-.12.5-.09,0,.76-.9.67-1.43.92-.17,1.41-2.35.46-3.28.1-.07-.23.05-.28.13-.37-.26-.2-.71-.19-.89-.48.28,0,.45-.35.72-.54-.11-.15-.56,0-.45-.35-.3.19-.33.64-.78.68.36-.93,1.33-1.29,1.91-2,0-.22-.35-.09-.45-.21-.81.41-1.2,1.61-2,1.81.4-.71,1.07-1.17,1.48-1.87-.92.31-1.2,1.23-1.92,1.74-.24-.18-.08-.35-.24-.65.2-.38.66-.52.78-1,.13,0,.34.35.36,0,.25.14-.11.31-.13.44.22-.08.22-.36.5-.38a.7.7,0,0,1,.05-.66c.8.05,1.21-.3,1.89-.2-.46-.57-1.54-.47-1.58-1.49Z"/></g></g></svg>