<svg xmlns="http://www.w3.org/2000/svg" viewBox="0 0 43.65 39.21"><defs><style>.cls-1{fill:#44341f;}</style></defs><title>mapsldpi</title><g id="Layer_2" data-name="Layer 2"><g id="img"><path class="cls-1" d="M.62,29.59c.25,1.89.49,1.85,2.11,2.64,2.06,1,6.1.72,8.51,1.24s5,1.19,7.45,1.85a110.56,110.56,0,0,0,14.93,3.32c2.31.29,5.88,1.13,8,0,1.88-1,1.6-2.32,1.61-4.37,0-5,.13-10,.12-15,0-2.29,1.11-7.58-1-9.23-1.73-1.34-5-.19-6.92-.23-.17,0-.53.1-.5.34a8.31,8.31,0,0,1-.57,3.29c-.09.3.25.43.48.44,2.06.05,3-.39,4.09,1.46.67,1.12,0,4.38,0,5.82,0,3.61-.3,7.3-.09,10.91a5.26,5.26,0,0,0,.33,2.88l-1.78,0c-1.8.44-5-.49-6.94-.85-3.77-.7-7.47-1.73-11.17-2.72-3.4-.91-6.81-1.81-10.29-2.41-4.91-.86-4.1-3.24-4.21-7.57-.1-3.68-.17-7.37-.08-11C4.8,7.43,5.05,6.32,8.5,6.4c2.4.06,4.92,1.2,7.15,2,.23.07.76.05.75-.3a9.46,9.46,0,0,1,.38-3.3.32.32,0,0,0-.23-.39C13.35,3.32,4-.45,1.17,2.83-.75,5.05.27,11.32.28,14c0,5.19.22,10.37.34,15.55,0,.47,1,.47,1,0-.11-4.88-.31-9.76-.34-14.64,0-2.31-.31-5,.12-7.26.38-2,1.42-4.23,3.69-5.08,1.28-.48,4.26.49,5.57.8,1.09.25,4.59.69,5,1.66A2.26,2.26,0,0,1,15,7.37c-.64.2-3.88-1.15-4.57-1.31a34.43,34.43,0,0,0-6-.74c-.21,0-.49.11-.5.34-.43,7.65-.12,15.3.07,23a.41.41,0,0,0,.37.33c11.81,1.33,23,6.66,35,6.66.2,0,.5-.11.5-.35,0-7.29.19-14.58,0-21.88,0-.23-.3-.36-.5-.34-1.51.12-5.38.87-3.49-1.91a3.37,3.37,0,0,1,3.43-.8c4.28,1.65,3.06,8.19,3,11.78s-.07,7-.09,10.56c-.05,5.64-3.88,5.87-8.38,5.32a83,83,0,0,1-10.58-2.17c-3.62-.93-7.21-2-10.86-2.81C10.58,32.59,2,32.23,1.62,29.59,1.56,29.13.56,29.15.62,29.59Z"/><path class="cls-1" d="M17,8.61a26.78,26.78,0,0,0,4,10.2c1,1.56,2.84,5.39,5.05,5.41s4.44-4.25,5.27-5.7a23.6,23.6,0,0,0,3-8.35C35.18,3.56,31.29-.3,24.81,0c-5,.24-8.26,3.49-7.8,8.59,0,.46,1,.45,1,0-.44-4.87,2.9-8,7.83-7.93,7,0,8.42,6.26,6.93,11.79a24.39,24.39,0,0,1-1.64,4.36,22,22,0,0,1-2.94,4.59c-1.38,1.61-1.88,2.31-3.62.8C21,19.17,18.71,13.14,18,8.61,17.94,8.14,16.94,8.16,17,8.61Z"/><path class="cls-1" d="M20.08,6.85c.37-3.34,4.68-4.76,7.7-3.89,4.58,1.32,3.78,6.44,2.67,9.92a17.36,17.36,0,0,1-3.34,6.47c-1.7,1.81-2.37-.36-3.4-2C21.79,14.21,20,10.59,20.08,6.85c0-.46-1-.47-1,0C19,12.22,22.31,17.49,25.6,21.49a.61.61,0,0,0,.86,0C29.62,18,36.28,6.69,29.85,3,26.09.77,19.62,2,19.08,6.85,19,7.3,20,7.32,20.08,6.85Z"/><path class="cls-1" d="M21.32,10.64a5.77,5.77,0,0,0,7.13,1.76c2.64-1.32,4-4.74,1.76-7.06a6.74,6.74,0,0,0-7.62-1.11,4.52,4.52,0,0,0-1.27,6.41c.23.37,1.16.13.86-.34a4.09,4.09,0,0,1,.07-4.66c1.55-2.06,5.18-1.69,6.9-.09a3.64,3.64,0,0,1-.34,5.63,4.53,4.53,0,0,1-6.63-.88C21.92,10,21,10.21,21.32,10.64Z"/><path class="cls-1" d="M29.51,8c-.07,4.32-6.61,4.76-7,.52s6.67-4.4,7-.52c0,.47,1,.45,1,0-.35-3.78-6.77-4.81-8.59-1.58-1.47,2.6.71,5.56,3.45,5.78s5.09-1.37,5.14-4.2C30.52,7.5,29.52,7.49,29.51,8Z"/></g></g></svg>