<svg xmlns="http://www.w3.org/2000/svg" viewBox="0 0 31.51 33.66"><defs><style>.cls-1{fill:#44341f;}.cls-2{fill:none;stroke:#44341f;stroke-miterlimit:10;stroke-width:0.5px;}</style></defs><title>phoneldpi</title><g id="Layer_2" data-name="Layer 2"><g id="img"><path class="cls-1" d="M31.15,23.64C28.47,21.81,25.91,16.9,22,18a4.14,4.14,0,0,0-2.88,3.39c-.48,2.35,1.86,6-4.15,4.18-2.61-.8-6.49-6.12-6.3-8.74.46-6.28,8.54-.3,6.4-5.89a13.69,13.69,0,0,0-2.52-3.56C11.49,6.14,9.23,2.65,8.06,2a2.53,2.53,0,0,0-1.9-.46C1.91,1.83.15,8.32,0,11.66c-.24,5.85,2.8,11.7,7.08,15.54s11.49,7.24,17.53,6.3a7.72,7.72,0,0,0,6.66-9.71c-.09-.4-1.07-.31-1,.17,1.61,7.19-5.85,9.78-11.78,8.36a25.14,25.14,0,0,1-9.59-4.63C3.85,23.71.3,16.91,1.12,10.35,1.41,8,2.78,3,5.6,2.5,7.51,2.15,9.2,5,10.23,6.13c1.75,1.92,6,5.78,1.8,6.66-.9.19-2.19-.4-3.07.17-5.55,3.65,3.87,13.57,8,14.19,2.27.34,3.19-.42,3.28-2.6.14-3.29.6-7.69,5.85-4.55,1.77,1.05,2.74,3,4.39,4.1C30.79,24.34,31.65,24,31.15,23.64Z"/><path class="cls-1" d="M6.25,4l1-.81L6.38,3c1.38,3.49,4.74,5.59,6.42,8.9l.48-.41c-1.64-.1-2.36-1.08-3.38-2.28A18.6,18.6,0,0,1,8.13,6.67C7.71,6,7.3,5.24,6.86,4.53l-.41-.62c-.33-.51-.08-.07-.12,0,.36-.38-.59-.62-.87-.33l-.09.1a.26.26,0,0,0,.08.4c.51.3,1,1.52,1.26,2s.71,1.25,1.1,1.85a24.39,24.39,0,0,0,2.94,3.48c.79.82,1.37.67,2.53.74.18,0,.61-.14.48-.41-1.67-3.32-5-5.43-6.42-8.91-.11-.27-.63-.31-.84-.14l-1,.81C5.08,3.88,5.93,4.22,6.25,4Z"/><path class="cls-1" d="M29.8,26c-1.72-1.38-4.08-2.35-5.88-3.71-.92-.7-.73-1.15-1.8-1.37-.17,0-.56,0-.61.23-.73,3,5,4.48,6.59,5.84-.75-.64,1,.43.95.3.43,1-5,3.92-5.91,4.11-4,.9-10-2.44-13.08-4.76a20,20,0,0,1-6.48-9,16,16,0,0,1-1.14-5.19c0-1.11.51-6.67,2.25-6.93.5-.08,3.59,4.51,3.67,5,.37,2.12.57-.17-.51,1.55-4,6.37,1.78,14.7,8.65,16.71,1.95.56,4.48.17,5.34-2,.69-1.76-2.31-6.3,2.86-5.91,1.82.13,4.45,3.72,4.25,5.44-.05.42.94.44,1,0,.32-2.68-4.55-7.63-7.57-6.62-2.58.87-1.16,3.58-1.54,5.37-1.18,5.65-5.17,2.63-7,1.48A16.14,16.14,0,0,1,10,23c-2.05-2.48-5.26-10.1.1-11,.22,0,.49-.24.3-.47A23.75,23.75,0,0,1,5.74,4.18C5.63,3.84,5,3.9,4.83,4.1c-6.9,7-1.95,18.49,5.16,23.4C15.1,31,27.54,36,29.83,27c.09-.36-.37-.42-.62-.4-1.08.09-6.22-3.72-6-3.87-.07.05-.35,0,.95.82a51,51,0,0,1,4.94,2.88C29.42,26.69,30.28,26.35,29.8,26Z"/><path class="cls-2" d="M26.08,15.15c-.73-3.11-3.49-5.94-5.73-8.06a17.79,17.79,0,0,0-2.29-1.88,4.31,4.31,0,0,0-2.71-.74c-.95.08-.73.45-.64.43a6.09,6.09,0,0,1,3.54,1.37c2.22,1.8,6.33,6.22,7,9C25.56,16.32,26.33,16.22,26.08,15.15Z"/><path class="cls-2" d="M25.25,7.27a26,26,0,0,0-10.2-7c-.38-.14-.54.4-.26.6,3.46,1.38,5.8,3.87,8.46,6.38a18.82,18.82,0,0,1,3.3,4.37,29.63,29.63,0,0,1,1.7,4.63c.22.62.81.69,1,0C29.25,13.27,27.23,9.56,25.25,7.27Z"/><path class="cls-2" d="M20.25.27c-.48-.17,0,.76.45,1,1.79,1,4.3,2.37,5.55,4,1,1,1.14,2.47,2,4,.37.66,1.1.8,1,0C28.75,5.1,24.25,2.27,20.25.27Z"/></g></g></svg>