<svg xmlns="http://www.w3.org/2000/svg" viewBox="0 0 48.65 40.42"><defs><style>.cls-1{fill:#44341f;fill-rule:evenodd;}</style></defs><title>spiceldpi</title><g id="Layer_2" data-name="Layer 2"><g id="img"><path class="cls-1" d="M17.06,37.11c.43.2.29-.3,0,0Zm.41,0c.19-.14.54-.14.64-.36-.31-.22-.52.17-.64.36Zm3-.81c.05,0,0,0,0,0Zm-.68-.54s0,0,0,0Zm-2.33.86c-.19-.2.05-.47-.11-.57-.08.11-.06.31-.23.34-.2-.19,0-.49.05-.66-1.08,0-.71,1.48.29.89Zm2.73-1h.16s0-.11,0-.16h-.16v.16Zm.47-.27c-.07.68.35.16,0,0Zm.08-.17c-.06-.14-.06-.33-.19-.4,0,.16.13.59.19.4Zm-.37-.71c.26.21-.23-.24,0,0ZM20,34.1Zm.29.88A1.68,1.68,0,0,0,19,33.9c-.6.38-1.24.61-1.16,1.37s1.39,1.93,2,1.13c-.14-.34-.52-.4-.61-.79.06-.41.48-.5.61-.85.16,0,.43.38.5.22Zm-3.88-.62c.4,0,.5-.33.89-.37-.19-.56-.75.15-.89.37Zm-2.62-.11c.75.32,1.27.89,2.26,1,.07-.15.26-.18.31-.35-.16,0-.6.24-.74,0,0-.46.58-.41.7-.77-.5.39-1.08.18-1.61.57,0-.16-.12-.16-.17-.24.32-.57,1.64-.08,2.16-.92a1.36,1.36,0,0,0-1.22.06c0-.12-.11-.13,0-.25a1.66,1.66,0,0,0-1.67.91Zm4-.21c.71-.74,2.08-.56,2.94-.15,1.13,1.41-.16,4-2.05,3.14-1.08,1.13-3.44.33-2.45-1.43-1.34,0-2-1.17-3.15-.91.15-1.79,4-2.4,4.71-.65Z"/><path class="cls-1" d="M27.67,39.76c.48.09.53-.52.88-.29.07.32-.42.14-.38.43a5.39,5.39,0,0,0,2.6-.22c-.7-.14-1.45.17-2,0,0-.19.37,0,.23-.25a.85.85,0,0,0-1.29.31Zm-.58-.13A1.55,1.55,0,0,0,28,39c-.22.07-.17-.15-.34-.14-.1.34-.53.39-.61.77Zm-.59-.3c.4.1.76-.31.95-.62-.53-.27-.76.33-.95.62ZM26.08,39c.25,0,.71-.38.86-.7-.43.11-.57.48-.86.7Zm-.35-.39c.31.12.69-.29.79-.61-.43-.23-.66.32-.79.61Zm-.51-.46c.28.3.62-.26.79-.53a.44.44,0,0,1-.25-.07c-.1.28-.41.36-.54.6Zm-.35-.31c.35,0,.41-.26.55-.44-.27-.15-.72.21-.55.44Zm-.11-.65c-.17.06-.54-.08-.57.11a.32.32,0,0,0,.57-.11Zm-1.33-.42A9.84,9.84,0,0,0,24.86,36a2.2,2.2,0,0,0-1.43.81Zm.74,0c2.32-.18,3.4,2.16,5.44,2.5a5.24,5.24,0,0,0,2.84-.39,5.66,5.66,0,0,0-8.28-2.11Zm5.5-1.1c.21.37.61-.22.48-.35-.08.19-.4.16-.48.35Zm-4.24.14c.17-.11.52,0,.55-.28-.24,0-.55,0-.55.28Zm2.26-.45c.06,0,0,0,0,0Zm-1.46.24c.42-.14,1.06-.08,1.38-.31-.51,0-1.21-.06-1.38.31Zm3.8-.85c-.68.52.09-.06,0,0ZM23.74,35c.12.32.08-.33,0,0Zm.82-.12Zm-2.32,1c.21.2.63.17,1,.2,0-.43.33-.63.44-1a.8.8,0,0,0-.91-.2.39.39,0,0,1-.22.5c-.26-.13.21-.27,0-.33-.12.26-.34.42-.28.83Zm6.84-.51a1.74,1.74,0,0,0,.85-.94,6.87,6.87,0,0,0-.85.94ZM30.89,34c-.06,0-.16,0-.15.09s.16,0,.15-.09Zm-.64.12c.05.05,0,0,0,0Zm.23-.26c-.06,0-.16,0-.16.09s.16,0,.16-.09Zm.49,0Zm-1-.28c-.17.73-1.27,1-1.22,1.7a17.64,17.64,0,0,0,1.63-1.72l-.41,0Zm-1.72,1.56a4.49,4.49,0,0,0,1.47-1.71,4.49,4.49,0,0,0-1.47,1.71ZM27,35.05c.49-.34,1.31-1.2,1.23-1.54-.31.6-1,.89-1.23,1.54Zm-2.66.71c.58-.75,1.65-1.47,2-2.15a6.66,6.66,0,0,0-2,2.15ZM27.59,35c.84-.31,1.18-1.07,1.72-1.64-1,.16-1.23,1-1.72,1.64Zm-1.54.16c1-.35,1.42-1.21,2.11-1.83-1.28,0-1.57,1.39-2.11,1.83Zm-1.13.38c.74-.23,1.06-.82,1.49-1.3.28-.31.77-.58.61-.85-.62.79-1.52,1.33-2.1,2.15Zm5.2-2.3Zm-5.91,1.19a4.68,4.68,0,0,0,.7-.77,6.74,6.74,0,0,1,4-1.1c1.31.08,2.7.58,3.86.29-.38.76-1.26,1-1.71,1.73-.32.5-.32,1.17-.82,1.59.41.41.88.5,1.35.91s.73,1.23,1.31,1.49c.32.15.74-.12,1,.28-2.13,1.08-5.6,2.17-7.82.64-.92-.82-1.68-2.26-3.29-2-.58-.64-1.3-1.13-1-2.32A2,2,0,0,1,24.18,34c0,.18.18.33,0,.48Z"/><path class="cls-1" d="M21,39.69c.05.05,0,0,0,0Zm.15-.25c-.21.26.24-.24,0,0Zm.07-.25c.05.05,0,0,0,0Zm-.59-.38c.15,0,.18.08.33.07.07-.38-.26-.75-.44-.55.21.1.16.27.11.48Zm-1.34,1a1,1,0,0,0,1.12-.55c-.26,0-.27.23-.57.2-.11-.57.29-.68.61-.85-.72-1.15-2.08.27-1.16,1.2Zm.47-2c.84-.19,1.76,0,1.93,1,.34,2-3.06,2.09-3.17.32-.05-.68.22-1.06,1.24-1.29Z"/><path class="cls-1" d="M30.77,31.59c.54-.19-.26-.25,0,0Zm-.25-.15c-.07,0-.16,0-.16.09s.16,0,.16-.09Zm-.81.12c.05.05,0,0,0,0Zm3.82-.36c-.53-.07-.17.26,0,0Zm-2.35.37a4.71,4.71,0,0,0,1.7-.34c-.67.12-1.25-.05-1.7.34Zm3-.73c-.53-.07-.17.26,0,0Zm.08.08c.14-.08.41-.05.48-.19-.21,0-.48,0-.48.19Zm-1.4-.26Zm-.41,0c.06.05,0,0,0,0Zm-.32,0c.05.05,0,0,0,0Zm1-.13c.21.05.34.06.49-.11-.1-.09-.38,0-.49.11Zm-8.9.29c2.17.78,6,.5,9-.05a87.19,87.19,0,0,1-9,.05Zm-.25,0Zm11.83-.76c.13.26.18-.33,0,0Zm-2.13,0c-.06,0-.16,0-.16.09s.16,0,.16-.09Zm-2.2.19Zm-9,.38c-.1,0-.49-.18-.49-.06s.43.25.49.06Zm-20.64.89c1.21.38,4,1.06,5.42.62-1.75-.18-3.72-1-5.42-.62ZM31,30c.05.05,0,0,0,0Zm-4.56.48a6.41,6.41,0,0,0-2-.15,4.92,4.92,0,0,0,2,.15ZM31.92,30c.92-.14-.24-.29-.74,0,.38,0,.49,0,.74,0Zm.22-.34Zm-.08-.07c-.12.05-.43-.08-.41.1.12-.05.43.07.41-.1Zm-.73.2h.16v-.16h-.17v.16Zm-2,.1.82,0c.47,0,.27-.16-.09-.08-.16-.22-.7-.07-1,.05.1,0,.24,0,.25.07Zm-25.3,1Zm25.12-1.36Zm-3.19,0a9.63,9.63,0,0,0,2.8.26c-.17-.36.28-.15.31-.34a15.4,15.4,0,0,0-3.11.08Zm10.77-.63c0,.05,0,0,0,0Zm-.25-.07c-.14.05-.48-.07-.49.11s.39,0,.49-.11ZM5.69,30.57c0-.18.45,0,.4-.27-.25-.06-.67.12-.4.27Zm.72-.28Zm-1,.05c.06.05,0,0,0,0Zm30.5-1.8c-.06,0-.16,0-.16.09s.16,0,.16-.09Zm-6,.88c2,0,4.52,0,5.77-.86-1.62.39-4,.51-5.77.86Zm8.62-1c.06.05,0,0,0,0Zm-2.36.12s0,0,0,0Zm.24-.09Zm2.52-.3c-.06,0-.16,0-.16.09s.16,0,.16-.09Zm-1.22.23c.19.16.44-.06.57-.19-.24.1-.5.13-.57.19Zm-1-.11c-.07,0-.17,0-.16.09s.16,0,.16-.09Zm1.87-.18c0,.05,0,0,0,0Zm-1.79.17c.23,0,.41,0,.48-.19-.22,0-.48,0-.48.19Zm-12,1a4.44,4.44,0,0,0-2.4-.37,6.41,6.41,0,0,0,2.4.37ZM13.78,30.41c.54-.24,1.41-.6,1.25-1.21-.29.46-1.13.85-1.25,1.21ZM39.17,28Zm-1.55.08c.06.05,0,0,0,0Zm1.8-.18c0,.06,0,0,0,0Zm-17.71.82c.05,0,0,0,0,0Zm18-1.08c-.06,0-.16,0-.16.09s.16,0,.16-.09ZM5.24,29.69c0-.14.37-.27.14-.33,0,.08-.35.29-.14.33Zm-.51-.3ZM40.38,27.5c-.87.61.11.38.4-.19-.09.16-.31.12-.4.19Zm.56-.19c.06.05,0,0,0,0Zm-26,1.16c-.39.63.24-.4,0,0Zm26.27-1.34c.2,0,.19-.19.31-.26-.2,0-.25.14-.31.26Zm.39-.26c.06.05,0,0,0,0Zm-.65,0Zm.16-.09Zm-3.91.36c-.05-.11.31-.21.07-.25,0,.09-.34.18-.07.25Zm.61.79a4.92,4.92,0,0,0,2.31-1.35c-.71.51-1.64.81-2.31,1.35Zm2.55-1.44c.05.05,0,0,0,0Zm-2.2.27c.09-.15.31-.18.4-.34-.2,0-.57.26-.4.34Zm2.44-.45c0,.05,0,0,0,0ZM11,27.76c-.21.26.23-.23,0,0Zm12.88,2.46c.3.06,0-.4.4-.27,1.82.06,3.17.34,4.92.32a20.48,20.48,0,0,0-4.69-.58A16.76,16.76,0,0,1,21.39,29a14.27,14.27,0,0,1-4.09-1.67c1.82,1.59,4,2.19,6.61,2.94Zm-6.78-3c.11.32.08-.33,0,0Zm16.76,1.44c2.61-.34,4.65-1.21,5.92-2.76-.92.27-1.31,1-2.14,1.34,0-.17.42-.33.22-.42a15.6,15.6,0,0,1-4,1.84ZM15.58,27.12c-.13.73,0-.23,0,0ZM5,29.3a6,6,0,0,0,1.7-1.89c-.49.65-1.45,1.28-1.7,1.89Zm35.84-3.05c.1-.27.76-.45.61-.69-.14.24-.74.47-.61.69Zm-26.64.62a3.52,3.52,0,0,1-2.18.52c-1.73,2-5.52,3.37-7.82,3.91.74.06,1.51.34,2.31.38a23.29,23.29,0,0,0,4.33-.14,6.22,6.22,0,0,0,3.76-3.3,2.57,2.57,0,0,1-1.29.39c.51-.45,1.61-.36,1.74-1.15a28.41,28.41,0,0,1-3.57.51c1.1-.42,2.78-.37,3.63-.92-.05-.35-.54-.21-.91-.2Zm-7.34.45c.5-.12.19-.4,0,0Zm.4-.34Zm4.91.24a8.67,8.67,0,0,0,2.59-.71,2.58,2.58,0,0,0-2.59.71Zm26.29-1A2.55,2.55,0,0,0,40,25a4,4,0,0,0-1.57,1.23Zm-24.54,0a.24.24,0,0,0,.24-.18c-.13,0-.28,0-.24.18Zm26.39-.69c.18-.33.87-.61.77-.94a3,3,0,0,0-1.33,1.13c.3-.13.57-.63.56-.19Zm-2.05,0c.42-.32,1.16-.36,1.35-.88a1.44,1.44,0,0,0-1.35.88Zm-16.69,3a20.49,20.49,0,0,1-5.62-2.66c1.62,1.11,3.48,2.41,5.62,2.66Zm18.14-2A13.5,13.5,0,0,0,42.49,24c-.94.78-2.1,1.78-2.81,2.51Zm.15-1.72A4,4,0,0,0,41,24.11c-.43.21-1.05.24-1.19.72Zm-24.34.58c.24.46.47.2,0,0ZM6,30.15c.67-.2.64-1,1.24-1.29A11.05,11.05,0,0,1,6.56,30c.61-.09.53-.82.92-1.11a2.12,2.12,0,0,1-.28.92c.48,0,.39-.48.71-.61,0,.14,0,.27,0,.41a19,19,0,0,0,2.71-1.37c0-.22-.14-.15,0-.32a11.62,11.62,0,0,1,2.44-2c-.58-.08-1.34.47-1.92.92s-.85,1-1.34,1a14.52,14.52,0,0,1,2.67-2.18c-4.32-.57-5.92,2.92-7.83,5.14.35,0,.62-.11.72-.37-.24,0-.19.34-.33,0,.72-.57,1.3-1.67,1.94-2.06-.22.64-1,1.13-1,1.77Zm2.33-3.89a9.06,9.06,0,0,1,1.59-.89c-.59.19-1.56.45-1.59.89Zm3.22-1.06Zm27.7-.59c.46-.33,1.12-.49,1.34-1.05-.55.21-1.31.63-1.34,1.05Zm-28.86.32c-.06,0-.16,0-.16.09s.16,0,.16-.09Zm2-.1Zm-.82,0c.21,0,.28-.16.4-.26-.21,0-.57.44-.4.26Zm28.81-1.3c.11-.31.63-.25.79-.53-.34.06-.93.3-.79.53Zm.35.39c.64-.2,1.7-.83,1.57-1.22a3.28,3.28,0,0,0-1.57,1.22Zm-29.27.43Zm1.07-.06a.46.46,0,0,0-.52-.38c0,.27.29.31.52.38Zm-3.15,1c.62-.43,1.25-.85,1.82-1.32-.67,0-1.51,1-1.82,1.32Zm-1.13.14c1-.33,1.48-1.15,2.28-1.67C9.71,24,9,24.9,8.21,25.37ZM41,22.73c.47,0,1.06-.58.87-.62-.33.17-.75.25-.87.62ZM42.4,23.8c.85-.22,1.47-1.32,1.78-2-.54.71-1.22,1.29-1.78,2Zm-30.76-.08c0-.18-.32-.32-.33-.14s.21.11.33.14Zm-2.7-.1c-1.11,0-2.42.76-3.39,1.07.62.38,1,1,2,1,.29-.73,1.58-1.2,2.19-1.91-.32.25-.48-.12-.82-.12Zm6.93,2.83a1.54,1.54,0,0,0,1.11.93c-.15-.07-.19-.25-.19-.48a10.2,10.2,0,0,1-2.65-2.24c-.34-.36-.92-1.29-1.12-1.17,1,.94,1.49,2.43,2.85,3ZM11.14,23.5c0,.05,0,0,0,0Zm31.15-1.82c.06.05,0,0,0,0ZM12.84,23.17ZM45.53,21.1c.06,0,0,0,0,0Zm-6.12,1.79c.78-.55,2.3-.83,2.36-1.76a3.86,3.86,0,0,0-2.36,1.76ZM12.83,23a.74.74,0,0,0-.35-.47.74.74,0,0,0,.35.47Zm27.4-1.64c.26.05.53-.29.39-.35,0,.19-.38.13-.39.35Zm2.1-.43c0,.28-.33.32-.37.59.31-.19,1-.42.94-.7-.13.11-.43.23-.57.11Zm.6.54c.26-.11.49-.61.73-.28-.32.57-1.24.59-1.58,1.14,1.36-.25,1.77-1.36,2.51-2.17a5.36,5.36,0,0,0-1.66,1.31Zm-2-.22c.66-.24,1.78-.47,1.66-1.15-.6.32-1.32.44-1.66,1.15ZM44.74,20c.06.05,0,0,0,0Zm-2.09.68a1.94,1.94,0,0,0,1.26-1,1.42,1.42,0,0,0-1.26,1Zm0-.82c.27.08.45-.31.31-.35-.07.15-.3.15-.31.35Zm-1.57,4.49a6.85,6.85,0,0,0,2.35-2,10.19,10.19,0,0,0,2.44-3.56,34.08,34.08,0,0,1-4.79,5.56Zm1-4.55a5.52,5.52,0,0,0,1.35-.88,2,2,0,0,0-1.35.88ZM42,19.15a.61.61,0,0,0,.63-.44,3.22,3.22,0,0,0-.63.44Zm1.41.42c.61-.3,1.27-.62,1.34-1.05a2,2,0,0,0-1.34,1.05Zm-5,1.65a15.28,15.28,0,0,0,2.14-1.42c-.13,0-.28,0-.25-.15.82.06,1-.4,1.26-1-1.64.07-1.88,1.88-3.15,2.53ZM41.83,19c.13-.24.51-.26.63-.52-.37,0-.78.2-.63.52Zm.71-.53c.05.05,0,0,0,0Zm-3.6.1Zm4.32-.38c.14.37-.49.44-.21.67.15-.11.51-.23.65-.12,0-.34.41-.4.45-.76-.36,0-.51.22-.89.21Zm-8.58.27c.06.05,0,0,0,0ZM41.37,18c0-.15.27-.07.23-.26l-.24,0c0,.14-.11.21,0,.24ZM39.55,19.2c.39.08,1.19-.78,1.48-1.3-.29.11-.65-.13-.73,0,.09.43-.41,1-.75,1.27Zm4.7-.81a3.34,3.34,0,0,0,1.26-.89,1.55,1.55,0,0,0-1.26.89Zm-3.18.16c.66.15,1.32-.7,1.18-1-.34.37-.88.56-1.18,1Zm-1.89-.15a7.55,7.55,0,0,0,1.18-.88c-.12-.14-.39.15-.57-.05-.08.42-.52.52-.61.93Zm-2.5.7c.55-.54,1.42-.79,1.72-1.56-.82,0-1.42,1.12-1.72,1.56Zm7.37-1.36c.16-.06.7-.19.71-.61-.28.12-.76.46-.71.61Zm-5.24-.22c-.26.16.39-.26,0,0Zm3.47.8c.65-.24,1.6-.63,1.58-1.22-.82.09-1.56.67-1.58,1.22Zm-1.5-.66c.43,0,.68-.1.71-.44-.31.08-.63.15-.71.44Zm3.41-.5a.21.21,0,0,0,.23-.17.21.21,0,0,0-.23.17Zm-2.44.29a.93.93,0,0,0,.79-.45.74.74,0,0,0-.79.45Zm-1.32-.26ZM42.62,17c.06.05,0,0,0,0ZM12.25,21.16c-.62-.66-.77-1.85-1.37-2.71.34,1,.7,2.38,1.37,2.71Zm35.26-4.58Zm-6,.39c.14,0,.41.06.32-.18a.37.37,0,0,0-.32.18Zm-7.06,2.65a6.09,6.09,0,0,0,1.87-1.73c.19-.25.61-.61.37-.84-.65.63-2.1,1.51-2.24,2.57Zm8.27-2.95c.06,0,0,0,0,0Zm-.09-.08c-.06,0-.16,0-.15.09s.16,0,.15-.09Zm-2.19.27c0-.13.22-.05.24-.17-.17-.06-.45.15-.24.17ZM36.9,17c.05.05,0,0,0,0ZM10.79,18.21c.11.31.07-.33,0,0Zm32.09-1.06c.61-.32,1.62-.25,1.59-.82-.53.22-1.56.41-1.59.82Zm-1.26-.59c.06.05,0,0,0,0Zm-.41-.06c-.12.05-.43-.08-.4.1.11-.05.42.07.4-.1Zm-3.15.89a4.09,4.09,0,0,0,1-.54c0,.12,0,.3.1.32.35-.17.81-.25.95-.62a2,2,0,0,0-2.09.84ZM10.69,18ZM45,16.14c0,.23-.26.28-.3.51.34,0,.43-.44.73-.2A2.37,2.37,0,0,1,45.6,16c-.3-.05-.34.15-.65.11ZM41,16.26c-.06,0-.16,0-.16.09s.17,0,.16-.09Zm-3.8.85a4.29,4.29,0,0,0-.84,1.19c.63-.71,1.86-1.25,2.12-1.83-.26.17-.88-.13-1.31.07a1.38,1.38,0,0,0,0,.57Zm2.58-.71c.51-.07.79.14,1-.21-.28.06-1,.1-1,.21Zm1.39-.07c.47-.17.77.08,1-.3-.36.1-.89,0-1,.3Zm-30.6,1.4c.11.31.08-.33,0,0Zm32-1.71c.05.05,0,0,0,0Zm-15.84.72c-.27.07-.76-.07-.89.13.27-.07.76.06.89-.13Zm20.92-.41c-.07-.28.22-.63,0-.81,0,.17-.12.86,0,.81Zm-22,.47a3.59,3.59,0,0,0-1.88,0c.72-.1,1.19.06,1.88,0ZM42.74,16A2.37,2.37,0,0,0,44,15.62a3.74,3.74,0,0,0-1.21.39Zm-19.19.65c-.14.05-.48-.08-.49.1.15-.05.49.08.49-.1Zm-1.06.05ZM44,20c1.16-.15,2.78-2,2.66-3.81,0,0-.06.09-.08,0s0-.68.23-.34a1.5,1.5,0,0,0-.11-.64c-.27.07-.26.39-.55.43,0,.27.47.33.1.49,0-.15-.06-.27-.18-.32-.14.68-1.11,1-1.06,1.61.11-.36.49,0,.74,0a3.5,3.5,0,0,1,.77-.86c-.12.17,0,.11,0,.33A31.11,31.11,0,0,0,44,20Zm3.68-4.84Zm-.9,0c.05,0,0,0,0,0Zm-21.87,1c-.06,0-.16,0-.16.09s.16,0,.16-.09Zm-4.08.21c-.06,0-.16,0-.16.09s.16,0,.16-.09Zm24.91-.78c.28.18.35-.37.46-.59-.33.17-.29.43-.46.59ZM25,16.34c5,.26,11.19.37,16.06-1-4.53.94-10.07,1-16.06,1Zm8.24-.42c.32-.08.57.06.56-.19-.18.07-.65-.12-.56.19Zm-.42-.06Zm13.62-.77c.11.31.08-.33,0,0ZM44.16,15c.06.05,0,0,0,0Zm-2.84.39c.14-.22.66-.08.72-.37-.17.15-.94.14-.72.37Zm-3.69-.14c-.44-.07-.08.25,0,0Zm-.33,0c-.06,0-.16,0-.15.09s.16,0,.15-.09Zm-7,.44c.06,0,0,0,0,0Zm-20,1c.12.32.08-.33,0,0Zm32-1.79c-.07,0-.16,0-.16.09s.16,0,.16-.09Zm-4.4.3c0,.06,0,0,0,0Zm-7.76.4Zm-13.37.68c.05,0,0,0,0,0Zm15.75-.64c.24-.28,1.21.11,1.21-.39-.45,0-1.49-.05-1.21.39Zm-5.8.21c.8-.13,1.61.18,2.29-.11-.17,0-.18-.12-.1-.24-.78.33-1.64,0-2.19.35ZM26,15.79c.13.27.19-.32,0,0Zm-7.92.32c-.06,0-.16,0-.15.1s.16,0,.15-.1Zm-1.45.41c.06-.27-.14-.25-.26-.32,0,.22.05.35.26.32Zm25.69-1.47a2.79,2.79,0,0,0,1.21-.31c-.48.2-1-.08-1.21.31ZM17.72,16.14c.11.31.07-.33,0,0Zm-.09-.08c-.06,0-.16,0-.16.09s.16,0,.16-.09Zm30.1-1.53c.06.05,0,0,0,0ZM23.91,15.74ZM17.3,16c-.06,0-.16,0-.16.09s.16,0,.16-.09Zm-7.09.45c-.05.48,0-.33,0,0Zm34.18-1.82Zm-.25,0Zm1.73.16c.34.22.74-.24.71-.37s.1,0,.08-.08c-.28.13-.62.21-.79.45Zm-11.75.68c1.41-.17,3.54-.22,4.46-.72-1.54.29-3.11.17-4.46.72Zm10.58-1c.06.05,0,0,0,0Zm-4.48.23c-.21.25.23-.24,0,0Zm-4.49.22Zm9.37-.64Zm-5.87.3c.05,0,0,0,0,0Zm5.13-.34c-1.21.39.32-.1,0,0Zm-5.47.19c-.09,0-.23,0-.24.1s.24,0,.24-.1Zm-.48.11Zm-16.15,1a4.33,4.33,0,0,1,1,.19c-.07-.31,0-.29-.11-.48-.26.09-.61,0-.89.29Zm22.43-1.39c.05.05,0,0,0,0ZM20,15.2c-.09,0-.23,0-.24.09s.23,0,.24-.09Zm12.41-.55a.21.21,0,0,0,.23-.17.21.21,0,0,0-.23.17Zm-5.14.26c-.4.1-.4-.25-.83-.12,0,.45.55.24.83.12ZM31.75,17c.08,0,.2-.05.07-.09a55.84,55.84,0,0,1-13.27-.39,6,6,0,0,1-1.24,1.21c.05-.65.74-.73,1-1.2-1.19.06-1.66,1.55-2.64,1.28a13.13,13.13,0,0,0,2.06-1.41c-1.49-.11-1.86,1.29-3,1.71.25-.81,1.38-.83,1.46-1.79-1.62.74-2.23,2.4-3.68,3.29A30,30,0,0,1,15.91,16c-.81,0-1.51-.75-2.4-.53a7.3,7.3,0,0,0-2.41,2.41c0,.5.5.79.47,1.21,1.47-.77,2.29-2.13,3.69-3a15.78,15.78,0,0,1-3.6,3.13,6.18,6.18,0,0,0,.72,1.43,23.62,23.62,0,0,1,2.27-2.08c-.6,1.19-3.32,2.24-1.46,3.51.47-.48,1-1.29,1.56-1.47-.39.71-1.16,1.08-1.45,1.88a1.48,1.48,0,0,0,.35.47,7.15,7.15,0,0,1,1.88-1.65,21.66,21.66,0,0,1-1.8,1.73,5.84,5.84,0,0,0,2.75,2.47c4.08,3.59,14.78,5.13,20.36,1.59a14,14,0,0,1-5.16,1.4c2.65-.67,5.48-1.17,7-2.89a28.67,28.67,0,0,1-6.13,1.79c2.39-.8,5.32-1.11,6.47-3a23.21,23.21,0,0,1-6.2,1.87c2.53-.74,5.45-1.27,7.21-2.9-.35-.09-.58.34-.81.12.44-.39,1.65-.48,1.58-1.06a7.63,7.63,0,0,1-1.67.82c-.45.42-.63,1.09-1.33,1.29a2.92,2.92,0,0,0,.77-.94c-.6.19-1.26.57-1.92.84a4.82,4.82,0,0,1-1.85.58c2-1,4.53-1.51,5.47-3.47-1.2.06-1.34,1-2.15,1.18,0-.12.45-.26.23-.34a13.35,13.35,0,0,1-2.87,1.45c1.1-.86,2.74-1.28,3.81-2.15.53-.44.7-1.16,1.33-1.3-.12.33-.43.5-.62.77a1.84,1.84,0,0,0,1-.62c-.09,0-.23,0-.25-.07.73.1,1.09-.56,1.42-1.05C40,20,38.45,22,36.28,22.47a6.86,6.86,0,0,0,3.44-3,17.62,17.62,0,0,1-3.88,2.49c1.48-1.1,3.62-2,4.06-3.8-.61.64-1.5,1-1.95,1.81-.13,0-.08-.2-.25-.15a8,8,0,0,1-1.59,1.06c-.53.34-1.09,1-1.59.82,1.92-1.17,4.17-2.45,5-4.34-.37.23-.6.59-1.11.71-.47.47-1.1,1.76-1.55,1.63.23-.24.63-.72.61-.93a22.17,22.17,0,0,1-4,2.66A9.68,9.68,0,0,0,37,18c-.39.47-1.2.7-1.57,1.14-.14.16,0,.31-.23.42,0,0-.12-.26,0-.24-.31,0-1,.62-1.43.89s-1,.79-1.43.81c.53-.57,1.37-.84,1.89-1.41-.41-.28.26-.75.36-1.08a2,2,0,0,0-1.1.87c-.61-.18-1,.7-1.53.57,1-.6,2.15-1.42,2.33-2.49A10.07,10.07,0,0,0,32.67,19c-.14,0-.06-.23-.18-.24a4.45,4.45,0,0,1-1.83,1,5.86,5.86,0,0,0,2-2.06c-.43.13-.54.54-.77.85-.21-.1.13-.25-.1-.32a5.44,5.44,0,0,1-1.74,1.15c-.2.1-.44.67-.64.28,1.14-.89,2.43-1.64,3.55-2.55.32.59-.42.83-.58,1.42.79-.22,1-.95,1.56-1.39.17,0,.18.12.09.24.31,0,.2-.34.56-.27.1.24-.41.34-.13.49.19-.18.26-.49.45-.67.44.56-.85,1.16-.73,1.67a9.64,9.64,0,0,0,1.95-1.82c.09.24-.23.51,0,.58.18-.35.71-.4.86-.78-2,.2-4.14.39-5.21.43Zm7.45-2.92c-.21.26.24-.23,0,0Zm-7.5.38c.05.06,0,0,0,0Zm-10.52.7a1.27,1.27,0,0,0,.81-.28,1.77,1.77,0,0,0-.81.28ZM19.38,15c-.07,0-.17,0-.16.09s.16,0,.16-.09Zm22.51-1.23c-.06,0-.16,0-.16.09s.16,0,.16-.09ZM18.72,14.94c.05.05,0,0,0,0Zm-6,.23c-.37.81-2.12,1.38-1.69,2.29a14.49,14.49,0,0,1,2.27-2.08,1.07,1.07,0,0,0-.58-.21Zm29.94-1.53Zm-3.27.17c.14.26.19-.33,0,0ZM24.18,16.22c-.2,0-.58.13-.65,0,.12,0,.3,0,.32-.1-2.81-.11-6-1-8.48-1a36.49,36.49,0,0,0,5,1c.17-.1.07,0,.16-.17.86.63,2.77.34,3.61.31Zm-.55-1.12c.21,0,.25-.14.4-.19-.08-.13,0-.4-.18-.48a.75.75,0,0,0-.22.67ZM33.15,14c-.21.26.23-.23,0,0Zm-4.44,1.21c-.1-.48.41-.82.27-1.08-.18.25-.88.84-.27,1.08Zm-9.18-.35a1.59,1.59,0,0,0,.89-.29c-.47.11-.79-.08-.89.29Zm-2.12,0c.41-.14.71.3,1,0-.36,0-.77-.38-1,0Zm6.93-.35c0,.72.86.48,1,1.1-.41.27-.71-.31-1-.12a1.31,1.31,0,0,0,1.48.25c-.21.07-.16-.16-.25-.23.16-.13.53-.08.72-.2-.28-.74-1-1.49-1.92-.8Zm-9.14.38c-.24.09-.51-.23-.58,0,.13,0,.46.29.58,0ZM38,13.55c.06,0,0,0,0,0Zm-8.85,1.27c.32-.11.72-.54,1.05-.38-.23.31-.76.35-.78.85a2.43,2.43,0,0,0,2.43-.53c-.47,0-.34-.59-.12-.73-.79-.29-2.7-.41-2.58.79ZM17,14.7Zm3.12.25a9.32,9.32,0,0,0,2.74-.79,6.91,6.91,0,0,0-2.74.79Zm-8.19-.24c-.28.72-1.54.93-1.21,1.95a5.87,5.87,0,0,0,1.71-1.73c-.25,0-.33-.15-.5-.22Zm21.69-1.18c-.56-.06-.25.34,0,0Zm-9.69.74c-.05-.23.3-.1.31-.26-.26-.1-.49.21-.31.26ZM16,14.51c-.21.26.23-.24,0,0Zm-1.55.16c-.34,0-.82-.24-1-.12.3,0,.74.34,1,.12Zm24.32-1.08c.56-.08,1.2-.11,1.36-.56a4.56,4.56,0,0,0-1.36.56Zm6.42-.81c.06.05,0,0,0,0Zm-13.13.66c.11-.25-.44-.19-.42-.06.2,0,.19.14.42.06Zm-18.87.64c.62.36-.15-.09,0,0Zm31.08-1.75c-.53-.07-.17.26,0,0ZM32.2,13Zm.32-.18c-.07,0-.16,0-.16.09s.16,0,.16-.09ZM12.78,13.93c.22.31.1-.27,0,0Zm27.73-1.57a1.28,1.28,0,0,1-.8.37c-.36.37.38-.11.73,0,0-.25.56-.11.39-.35-.15.15-.1,0-.32,0ZM10.42,15.77c.47-.07.22-.71.69-.93.25,0,.48-.09.47-.36a6.92,6.92,0,0,1-1.42-.58c-.15.68.24,1.14.26,1.87Zm23.4-3.07c-.21.26.23-.24,0,0Zm-1.22.23c.29,0,.74-.16.56-.28,0,.22-.61,0-.56.28ZM31.05,13c.52-.13,1.21-.1,1.37-.56-.46.14-1,.08-1.37.56ZM33,12.58c.34-.23.61,0,.8-.37-.3,0-.9.08-.8.37ZM19.26,14.26c0,.08-.06.1-.08.17h.17c.19-.33.11-.11-.1-.24.07-.17.31-.2.56-.2.11.26.05.22-.06.42a18.87,18.87,0,0,1,2.68-.47c-.91-1.16-3.86-1.31-5.08-.23.68.2,1.33.73,1.91.56Zm-9.06,2a18,18,0,0,0-.64-2.83,10.94,10.94,0,0,0,.64,2.83Zm29.41-3.95c.74-.27,1.45,0,2-.67a3.15,3.15,0,0,0-2,.67Zm-4.27-.27c-.21.26.24-.23,0,0Zm-4.72.57c.39,0,1.18-.13,1-.46-.19.13-.86.17-1.2.39,0,.16.11.15.17.23a1,1,0,0,0-.88.46,1.63,1.63,0,0,0,1.45-.57c-.18.05-.44.21-.5-.05ZM46.43,13c-.17.57-.77.76-1.17,1.12,2.23-.2,2-2.43.27-2.79.3.56.93.75.9,1.67ZM45,11.39c-.4-.2-.18.28,0,0Zm-10.74,1c0-.25.84-.55.45-.68,0,.32-.66.44-.45.68Zm10.4-1.26c-.06,0-.16,0-.16.09s.16,0,.16-.09Zm-9,.45c-.4.13-.11.39,0,0Zm-2.37.12c-.43.27-1.26.16-1.44.65a2,2,0,0,0,1.44-.65ZM35,11.66Zm.23-.26c-.06,0-.16,0-.15.09s.16,0,.15-.09Zm5.88-.3c0,.05,0,0,0,0Zm.18.32c.56-.12,1.17-.19,1.36-.64a2.11,2.11,0,0,0-1.36.64Zm-8.49.35c.57-.09,1.57-.59,1.35-.89a2.89,2.89,0,0,0-1.35.89Zm1.26-1c.06,0,0,0,0,0Zm7.52-.14c.13.17,1-.26,1.45-.32.11,0,0-.31.15-.33,0,.26.43-.16.15-.18a8.64,8.64,0,0,0-1.75.83Zm-8,1.47a7.17,7.17,0,0,0,2.52-2.09,14.8,14.8,0,0,0-2.52,2.09Zm.75-1.51c.34.18.89-.36.54-.52-.1.25-.51.21-.54.52ZM9.43,12.47c.22-.19.23-1,.27-1.08-.21.25-.17.72-.27,1.08ZM43.15,9.69A.86.86,0,0,0,44,9.24c-.36.09-1,0-.88.45Zm-13.6,2.74c1.31-.06,1.84-1.29,2.85-1.87-.23-.2-.12-.64-.2-.8a31.79,31.79,0,0,1-2.65,2.67ZM36,9.56c.06,0,0,0,0,0ZM46,8.4c.06,0,0,0,0,0ZM34,10.4c.09-.34,1-.56.61-.84.55,0,.58-.52,1.2-.48A4.39,4.39,0,0,1,35,10c.68,0,.72-.65,1.27-.8.2.1-.14.26.1.32,0-.22.33-.22.3-.5-.77.13-1.77-.56-2.21,0,.12,0,.42-.12.41.06-1.64.67-2.58,2-3.85,3,.94,0,1.17-.2,1.84-.83-.21,0-.25.17-.33-.07.45-.24,1.16-.24,1.26-.8-.22,0-.49.27-.65,0a1.16,1.16,0,0,1,.82,0ZM32.81,9c.11.32.08-.33,0,0Zm-18.37.52C12.61,10,10.64,10.65,10,12c.3,1.54,1.95,2,3.06,2.38-.35,0-.23-.37-.43-.55-.64-.58-1.84-.7-1.81-1.71,0-.34.39-.68.69-.93C13,9.86,16.61,9,19.14,8.7a22.31,22.31,0,0,0-4.7.81ZM30.07,8.15c2.49-.14,5,.67,6.89.46-1.8-.16-4.8-.78-6.89-.46Zm1,2.4A6.64,6.64,0,0,1,29.28,12c1.21-1.11,2.49-2.17,3.68-3.3-.15.43.42.06.35.4a1.19,1.19,0,0,0-.84,1.18,12.13,12.13,0,0,0,2-1.49c-1.38,0-3.09-.37-4.68-.33a12.14,12.14,0,0,1-2.9,2.6c.8-1,1.89-1.67,2.73-2.59a17.11,17.11,0,0,0-4.9,0c-.56.44-1,.93-1.57,1.39,0-.78.87-.77,1.16-1.29-3.06.37-7,.61-9.9,1.49-.9.27-3.21,1.44-3.16,2.2,0,.56,1,1,1.7,1.31,1.3.55,2.41,1.06,3.87.45.18,0-.12-.2,0-.4,1.63-1.28,5-1.07,6.23.25a2.93,2.93,0,0,1,3.55.64,2.55,2.55,0,0,1,1.7-.33,11.2,11.2,0,0,0,2-1.65c-1.3-.12-1.51.89-2.47,1.26,1.05-1.07,2.61-2.1,3.35-3.19Zm-10.57-2c-.06,0-.16,0-.16.09s.16,0,.16-.09Zm-.24,0c-.12,0-.43-.07-.41.11.12-.06.43.07.41-.11Zm-.49,0c-.1,0-.24,0-.24.09s.23,0,.24-.09ZM47,6.8c.14.26.19-.33,0,0Zm-8.43-.23c-.06,0-.16,0-.16.09s.16,0,.16-.09Zm9.53-.81s0,0,0,0Zm.07-.25c.11.32.07-.33,0,0Zm-.42-.14c.06,0,0,0,0,0ZM45.42,6a5.42,5.42,0,0,0,2.18-.52c-.13,0-.06-.18,0-.25A4.24,4.24,0,0,0,45.42,6Zm-6.76.5c.12-.38.59-.86.51-1.17-.17.34-.64.82-.51,1.17Zm8-1.39c.41-.21.85.09.88-.45a.7.7,0,0,0-.88.45Zm1-.54c.11.32.08-.33,0,0Zm-.58-.13c0-.19.45,0,.39-.27-.06,0-.09-.06-.09-.16-.19,0-.5.31-.3.43ZM47.69,4c-.09.61,0-.29,0,0Zm-8-.5Zm7.52,0c.12-.05.43.07.41-.1-.23-.18-.41-.87-.69-.7a1.8,1.8,0,0,1,.28.8Zm-8.5,3.38c-.61,1.83-2.21,3.19-2.86,4.72a29.53,29.53,0,0,0,5.39-9.76C40,3.06,40,5.51,38.75,6.81Zm2.77-5.13c-.21.25.24-.24,0,0Zm3.82-.44c-.06,0-.16,0-.16.09s.16,0,.16-.09Zm-7,12.86s.59-.15.15-.17a4.87,4.87,0,0,0-2,.51c0-.56-1.07,0-1.32-.26.47-.46,1.95.23,2.34-.69-.34-.06-.56.28-.58-.13a4.75,4.75,0,0,0,2.41-.78c-.45-.07-.46.26-.8.29-.23-.45-.76.05-1.07-.11.56-.38,1.69-.24,2.09-.76-.23-.06-.76.2-.74-.13A2.91,2.91,0,0,0,41,11.11c-.35,0-.38.33-.72.36-.09-.15.23-.28,0-.33a5.61,5.61,0,0,1-1.46.24c.91-.48,2.57-.27,3-1.13-.67.06-1.54.37-2,.34.89-.54,2.52-.41,3.21-1.14-.89.05-1.74.47-2.44.29,1-.6,3.56-.26,3.86-1.26a5.31,5.31,0,0,1-1.38.23c-.31.07-.9.54-1.14.06,1.12-.37,2.33-.29,3.15-.82-.58,0-1.82.41-2.28.2.86-.49,2.65-.15,3.14-1-.64.19-2.43.67-2.93.24,1.12-.27,3,0,3.55-.84-.76,0-2.12.53-2.76.3.81-.6,3.16-.11,3.46-1a24.21,24.21,0,0,0-2.42.53c-.12-.47-.82-.08-1.23.07A.51.51,0,0,1,43.86,6C45.51,5.9,47,4.91,46.93,3.53c0-.83-.51-1.24-1.07-1.83.09,0,.19.14.24,0-.24,0-.31-.17-.42-.31-1.31.2-2.17-.54-3.21-.24-.78.22-1.13,1.14-1.45,2-.41,1.15-.93,2.13-1.22,3.26C39,7,38.92,8.17,38.11,8.72c-1.3,2.59-3.47,4.38-5.31,6.49a18.51,18.51,0,0,0,2.76-.39c-.3,0-.83.18-.9-.12a11.35,11.35,0,0,0,3.73-.6ZM44.43,1Zm.81-.13ZM42.93.38c.11.31.07-.33,0,0Zm-3.62,3c-.15,0,.09-.13.09,0C40.11,2.16,41,.81,42.52.4A3.65,3.65,0,0,1,44.88.11c.42.15.66.64,1.17.6C47.13,2,49,3,48.58,5.49c-.28,1.68-3,3.55-4.1,4.62A7.67,7.67,0,0,1,48.15,13c.38,6.23-3,10.29-6.34,13.65a12.52,12.52,0,0,0,3-2.85c-1.41,2.3-3.74,3.77-6.28,5.06A6.45,6.45,0,0,1,35,31.7a12.3,12.3,0,0,1-2.52.29c-3.86.34-9.35.46-12.55-2.23-.11,0,0,.15.09.16-.1.25-.33-.08-.26-.31a25.85,25.85,0,0,1-2.69-1.5c-.35,0-.78.92-1.05.3-.52.43-.68,1.6-1.37,1.95a21.08,21.08,0,0,1-8.23,2.38A15,15,0,0,1,0,31.27c1-.64,2.2-.66,3.13-1.14,1.87-1,2.8-3,4.54-4a6.34,6.34,0,0,1-2.94-1.64c.21-.35.6-.15,1-.22,1.55-.29,3.37-1.49,5.5-1.18a4.33,4.33,0,0,1,1.94,1.13c-1.51-2.4-3.16-4.83-3.68-8.07A5.13,5.13,0,0,1,9,12.49c-.31-.1-.23.55-.39.35s.13-.56,0-.33c-.34-.21.36-.14.39-.27.17-1.26,1-1.52,2.19-2.07a28.36,28.36,0,0,1,8.47-2.31c5.82-.79,12.73-.38,17.66,0,.8-1.33,1.88-2.82,2-4.52Z"/></g></g></svg>