<svg xmlns="http://www.w3.org/2000/svg" viewBox="0 0 350.67 244.74"><defs><style>.cls-1{fill:#44341f;fill-rule:evenodd;}</style></defs><title>Asset 45</title><g id="Layer_2" data-name="Layer 2"><g id="western"><g id="Layer_26" data-name="Layer 26"><path class="cls-1" d="M106,142.19c.81,0,1.62,0,2.43,0,.48,0,1,.2,1.43.27.64.09,1.29.14,1.93.24a34.3,34.3,0,0,1,5.59,1.7,12.42,12.42,0,0,1,2.26,1.17c1.26.73,2.5,1.49,3.75,2.24.37.22.76.4.9.88,0,.13.21.23.34.32a6.89,6.89,0,0,1,2,2.69c.35.73.87,1.39,1.18,2.13s.78,1.32,1,2c.42,1.33,1.21,2.52,1.36,4,.06.58.41,1.14.44,1.72,0,1.12,0,2.26-.09,3.38a7.19,7.19,0,0,1-1,2.91,7.66,7.66,0,0,1-2.29,2.71,29.11,29.11,0,0,1-4.66,2.61,27.22,27.22,0,0,1-5.38,1.8c-.52.12-1,.31-1.56.47a9,9,0,0,1-3.05.41,25.57,25.57,0,0,0-5,.28,20.52,20.52,0,0,1-4.07.07c-2-.1-3.89-.27-5.83-.45-1.08-.09-2.15-.32-3.23-.38-1.79-.11-3.58-.14-5.37-.19a3.13,3.13,0,0,0-.81.05,23.09,23.09,0,0,1-6.48.26,5.34,5.34,0,0,1-3.9-2.08,14.15,14.15,0,0,0-1-1,8.89,8.89,0,0,1-2-2.53,26,26,0,0,0-1.35-2.41,2.43,2.43,0,0,1-.35-1.39c0-1.14.06-2.28.07-3.42a3.68,3.68,0,0,1,.65-2,33.84,33.84,0,0,1,4.29-5.27,24.22,24.22,0,0,1,5.46-4c.8-.46,1.59-1,2.37-1.43l4.41-2.77a6.26,6.26,0,0,0,1-.61,12.6,12.6,0,0,1,5.29-2.77c2-.57,4-1,6-1.39a23.35,23.35,0,0,1,3.25-.17v0m-.51,1.15a24.12,24.12,0,0,0-3.41.2,55.4,55.4,0,0,0-5.7,1.32,8.61,8.61,0,0,0-4.27,2.25,2.82,2.82,0,0,1-1,.61,10.31,10.31,0,0,0-2.42,1.61,24.57,24.57,0,0,1-2.48,1.85c-.92.57-1.9,1-2.86,1.53A20.32,20.32,0,0,0,78,157.18a21,21,0,0,0-2.58,3.35,5.07,5.07,0,0,0-.74,2.3c-.06.86,0,1.72,0,2.59a2.13,2.13,0,0,0,.43,1.35,8.8,8.8,0,0,1,1,1.83,11.48,11.48,0,0,0,2.87,3.67,6,6,0,0,0,2.62,1.52,9.43,9.43,0,0,0,2.73.35A16.81,16.81,0,0,0,88,174a11.73,11.73,0,0,1,3.06-.29c.92,0,1.85.06,2.77,0a21,21,0,0,1,3.55,0c2.59.19,5.2.23,7.79.44a20.51,20.51,0,0,0,4.83-.27,11.53,11.53,0,0,1,2-.09,12.46,12.46,0,0,0,4.81-.62,6.82,6.82,0,0,1,1.1-.28,22.41,22.41,0,0,0,4.78-1.54,20.49,20.49,0,0,0,3.42-1.85,5.9,5.9,0,0,0,2.37-3.55c.19-1.17.26-2.37.38-3.56a1.72,1.72,0,0,0-.06-.64c-.36-1.14-.47-2.33-.79-3.49-.26-.94-.75-1.78-1-2.71a7.87,7.87,0,0,0-.75-1.61c-.35-.61-.74-1.2-1-1.84a6.9,6.9,0,0,0-3.37-3.57,23.22,23.22,0,0,1-2.21-1.38c-.41-.26-.84-.49-1.24-.75a13.16,13.16,0,0,0-3.46-1.4,32.28,32.28,0,0,0-4.06-1.15,24.4,24.4,0,0,0-5.33-.52"/><path class="cls-1" d="M78.29,162a2.07,2.07,0,0,1,1,1c.22.55.53,1.06.76,1.61a1.77,1.77,0,0,0,.81,1,1.61,1.61,0,0,1,.61.7.6.6,0,0,0,.48.37.39.39,0,0,1,.34.46.63.63,0,0,1-.45.61,1.29,1.29,0,0,1-1.1-.1,5.3,5.3,0,0,1-2.88-4.9c0-.24.11-.44.47-.75"/><path class="cls-1" d="M85,166.62a1.17,1.17,0,0,1,1.34.17A4.09,4.09,0,0,0,89.88,168a2.58,2.58,0,0,1,2.62,1.5.49.49,0,0,1,0,.44.44.44,0,0,1-.41.13,1,1,0,0,1-.56-.3,2.31,2.31,0,0,0-2.29-.9,5.23,5.23,0,0,1-4.13-1.89.75.75,0,0,1-.1-.32"/><path class="cls-1" d="M96.58,169.15a2.17,2.17,0,0,1,2.07,0,5.35,5.35,0,0,0,3.57.6,1.47,1.47,0,0,1,.41.11,1.69,1.69,0,0,1-.35.24c-.51.15-1,.26-1.54.43-1.67.57-2.9-.11-4.16-1.42"/><path class="cls-1" d="M124.09,163.47c.09.13.26.28.24.37a4.92,4.92,0,0,1-.37.89,4,4,0,0,0-.41,1.37,1.91,1.91,0,0,1-1.42,1.6c-.17.06-.46-.22-.42-.39a3.42,3.42,0,0,1,.23-.77,11.83,11.83,0,0,1,2.15-3.07"/><path class="cls-1" d="M120,161.23c.08.24.23.45.19.62a6.86,6.86,0,0,1-.45,1.37c-.31.69-.66,1.35-1,2a3.88,3.88,0,0,1-1.15,1.7c-.07-.09-.14-.15-.13-.17.16-.46.34-.91.5-1.37a6.76,6.76,0,0,1,1.18-2.46c.42-.47.13-1.21.87-1.71"/><path class="cls-1" d="M124,169a1,1,0,0,1,.08-1.07c.35-.49.72-1,1.1-1.41s.39-1.1.9-1.57c0,.24.15.42.11.54a3.79,3.79,0,0,1-.56,1.33c-.6.68-.75,1.71-1.66,2.14Z"/><path class="cls-1" d="M113.73,168.22a1.55,1.55,0,0,1-1.57.62c-.13,0-.27-.16-.37-.27s-.05-.42.1-.58a4.37,4.37,0,0,1,.45-.36l1.43.63Z"/><path class="cls-1" d="M105.74,170.34c-.84.37-1.29-.45-2-.27.84-.59.84-.59,2,.27"/><polygon class="cls-1" points="113.77 168.25 113.8 168.19 113.73 168.22 113.77 168.25"/><path class="cls-1" d="M123.92,168.93l-.12.06-.06-.05.21,0Z"/><path class="cls-1" d="M137.5,135.91c-.17-.76-.29-1.53-.5-2.28-1-3.52-2-7-2.67-10.62-.09-.43-.25-.84-.33-1.26-.43-2.27-.89-4.53-1.25-6.82-.24-1.54-.31-3.11-.48-4.67-.07-.66-.18-1.32-.26-2a61.25,61.25,0,0,1,0-6.21c0-1,0-2,0-3.06a44.58,44.58,0,0,1,.71-6.2c.15-1.09.36-2.17.55-3.25,0-.2.14-.39.27-.77a1.65,1.65,0,0,1,.14,1.27,59,59,0,0,0-.71,7.85c-.07,2.89,0,5.79,0,8.69a3.69,3.69,0,0,0,.08.46c.3,2.45.59,4.9.92,7.35.22,1.58.45,3.17.78,4.74.44,2.09,1,4.17,1.48,6.25.45,1.81,1,3.6,1.43,5.41.24,1,.3,2,.62,2.95a19.25,19.25,0,0,0,.85,2.49c.47,1,.62,2.18,1,3.24a19.1,19.1,0,0,0,1.17,2.41c.36.69.77,1.35,1.16,2,.07.13.13.3.24.37.81.51,1.18,1.41,1.85,2.05l0,0c1,1.2,2.08,2.42,3.14,3.61a6.31,6.31,0,0,0,.62.52c.71.62,1.63,1,2.12,1.85a.43.43,0,0,0,.19.13,22.18,22.18,0,0,0,4.49,2,8.73,8.73,0,0,1,1.13.43,1.67,1.67,0,0,0-.66-1.06c-1.08-1.13-2.12-2.3-3.3-3.32a33.77,33.77,0,0,1-3.5-4.25,26.3,26.3,0,0,1-1.74-2.65c-.35-.56-.72-1.12-1-1.7-.62-1.14-1.18-2.3-1.8-3.44s-1.3-2.23-1.89-3.38c-.48-.93-.87-1.91-1.28-2.88q-.9-2.18-1.77-4.35a36.91,36.91,0,0,0-1.43-3.6,5.62,5.62,0,0,1-.3-1.24c-.38-1.64-.76-3.28-1.17-4.91a2.9,2.9,0,0,1,.09-2l0,0c.1.06.25.12.27.2.25.9.47,1.8.73,2.69.3,1,.7,2.08.93,3.15a10.41,10.41,0,0,0,1.22,3,.71.71,0,0,1,.11.21,19.11,19.11,0,0,0,1.33,3.59c.22.6.53,1.17.77,1.76.65,1.56,1.57,3,2.22,4.54a7.29,7.29,0,0,0,.77,1.13c.69,1.06.91,2.32,1.56,3.39a16,16,0,0,0,1.19,2,17.55,17.55,0,0,1,1.57,2.54c.35.59.82,1.11,1.23,1.67a30.82,30.82,0,0,0,4.13,4.69c1.28,1.16,2.45,2.42,3.63,3.66a7.21,7.21,0,0,0,1.63,1.4,8.92,8.92,0,0,0,2.14.6,2.37,2.37,0,0,1,1.63,1,4.53,4.53,0,0,0,2.79-1.85,9.68,9.68,0,0,1,1-1.09c-1.33-.62-2.68-1.28-4.06-1.89a24.5,24.5,0,0,1-4.2-2.6c-.25-.18-.54-.32-.8-.47l0-.05,0,0a18.21,18.21,0,0,1,2.21,2.92c-.41-.16-.61-.18-.72-.29-.82-.78-1.66-1.55-2.43-2.39-1.36-1.47-2.76-2.92-4-4.49a57.18,57.18,0,0,1-3.26-4.76c-1.56-2.45-3.1-4.92-4.57-7.42a26.37,26.37,0,0,1-1.45-3.09c-.83-2-1.66-3.9-2.43-5.87-.56-1.43-1.06-2.88-1.53-4.34-.64-2-1.3-4-1.83-6s-.93-4-1.26-6q-.78-4.77-1.37-9.57a38.71,38.71,0,0,1-.16-4.57c0-1.85.05-3.7.1-5.55,0-.4-.1-.88.43-1.26,0,1,.08,1.9.07,2.82a59.51,59.51,0,0,0,.49,9.53c.48,3.15,1.06,6.28,1.57,9.42a56.54,56.54,0,0,0,2.12,8.21c.89,2.72,1.78,5.44,2.89,8.09.87,2.09,1.77,4.17,2.68,6.24.37.82.85,1.59,1.3,2.37.07.12.22.18.33.27l.21.49,0,.06v0c-.07-.16-.15-.33-.22-.5a9.83,9.83,0,0,0-.53-1.3,1.74,1.74,0,0,1,0-1.72c.1.29.17.48.23.67a8.22,8.22,0,0,0,1.71,3.3c1.18,1.26,2.28,2.6,3.43,3.88.42.46.91.87,1.37,1.3s.68.64,1.05.93c.7.57,1.41,1.1,2.12,1.66,1.35,1.06,2.68,2.15,4,3.21a4.68,4.68,0,0,0,.82.46l5.44,2.81a6.17,6.17,0,0,0,2.34.74,3.11,3.11,0,0,1,.79.31,1.38,1.38,0,0,1-1.48.4,12.79,12.79,0,0,1-2.34-.76c-1.07-.48-2.1-1.07-3.15-1.6-.39-.19-.79-.35-1.18-.53h0l0,0c.08.13.13.32.25.39l4.37,2.54a2.75,2.75,0,0,1,.41.24,5.35,5.35,0,0,0,2.51,1.18l2.76-1.16-1.32-.53a1.74,1.74,0,0,1,1.77-.11,2.1,2.1,0,0,1,2-.53c.21.07.62-.16.81-.36.78-.88,1.52-1.8,2.26-2.71a1.27,1.27,0,0,0,.13-1.34A112.45,112.45,0,0,0,171.83,131c-1.14-2.16-2.41-4.23-3.69-6.3-.78-1.27-1.73-2.44-2.54-3.7a4.78,4.78,0,0,0-1.9-1.8,10.78,10.78,0,0,1-2.87-2.47,4.85,4.85,0,0,0,0-1.08,3.07,3.07,0,0,1,1-2.74c.29-.37.52-.78.8-1.16a5.58,5.58,0,0,1,.84-1c.76-.63,1.56-1.2,2.34-1.8.19-.15.37-.34.75-.69-1.34,0-2.43,0-3.52,0-.94,0-1.88-.08-2.82-.14a2.58,2.58,0,0,1-1.51-.61,6,6,0,0,0-1-.49,4.55,4.55,0,0,0-.12.9c.12,1.61.23,3.22.42,4.82a4.29,4.29,0,0,0,.51,1.55c1.1,2,2.22,4.06,3.37,6.06,1,1.67,2,3.28,2.95,5,1.27,2.3,2.48,4.64,3.71,7,.57,1.07,1.14,2.15,1.67,3.24s1.08,2.36,1.6,3.55a11.26,11.26,0,0,0,1.4,2.57,39.28,39.28,0,0,0,2.39,3.21,1.5,1.5,0,0,1,.52,1.21,3.93,3.93,0,0,1-2.47-1.73c-1.94-2.92-4.21-5.59-6.33-8.37a74.28,74.28,0,0,1-5.68-8.38c-1.76-3.16-3.61-6.27-5.36-9.44-.62-1.14-1-2.37-1.57-3.57l-1.38-3.25a16.83,16.83,0,0,1-1.05-5.52c.2.46.35.71.44,1,.22.71.44,1.43.63,2.15a44.08,44.08,0,0,0,2.39,5.51c.3.72.72,1.4,1,2.14a15.48,15.48,0,0,0,1.5,2.78c1,1.78,2.07,3.53,3.11,5.29.14.23.23.5.37.73.34.61.7,1.21,1.08,1.86.1-.15.18-.21.17-.24q-4-8.09-7.28-16.5c-.74-1.91-1.38-3.85-2.06-5.78-.49-1.41-.93-2.85-1.48-4.23a38.69,38.69,0,0,1-2.26-8.78c-.25-1.62-.48-3.24-.72-4.87a1,1,0,0,1,.45-1.2c.17.8.34,1.49.47,2.2.28,1.58.54,3.17.81,4.76a2.51,2.51,0,0,1,.15.8,7.21,7.21,0,0,0,.59,3.55c.76,2.1,1.51,4.21,2.31,6.3,1,2.53,2,5,3,7.57a2.53,2.53,0,0,0,.31.49l.05,0-.07,0a6.13,6.13,0,0,0-.06-1.14,26.7,26.7,0,0,1-.69-5.49c-.07-2.24-.25-4.47-.4-6.71-.09-1.37-.16-2.75-.3-4.11-.19-1.83-.44-3.65-.67-5.53a.47.47,0,0,1,.75.37c0,1,.85,1.88.52,2.94.64.87.4,1.9.52,2.85a11.8,11.8,0,0,1,0,2.59,3.82,3.82,0,0,0,.33,2.06,16.44,16.44,0,0,1,1.33-1.59,10.48,10.48,0,0,1,1.7-1.25c.61-.36,1.27-.6,2-.92a9.62,9.62,0,0,1-1-3.84c.39,0,.7.16.74.49.12.88.87,1.55.69,2.54-.09.52.74,1.1,1.35,1a7.86,7.86,0,0,0,1.21-.25c.07-.91-1-.9-1.14-1.59s-1-1-.79-1.83a2.19,2.19,0,0,1,1.74.86c1.34,1.36,2.67,2.73,4,4.08a7.07,7.07,0,0,0,1.06.71c-.21-.51-.35-.85-.5-1.19a17.25,17.25,0,0,1-1.73-4.36,16.24,16.24,0,0,1-.16-2.32,1.52,1.52,0,0,1,.61-1.22A7.28,7.28,0,0,1,170.81,87a25.66,25.66,0,0,1,7.53-1.3,4.53,4.53,0,0,1,3.37,1.4,4.75,4.75,0,0,1,1.34,3.63c-.06.69,0,1.38,0,2.08a10.71,10.71,0,0,1-.16,2.2c-.26,1.06-.7,2.08-1,3.12a3.72,3.72,0,0,0-.09.68l-.23.24-.24.24.13.08.09-.34.25-.22a12.08,12.08,0,0,0,1.18-.93,10.42,10.42,0,0,1,5.28-2.94,4.24,4.24,0,0,1,4.31,1.28c.61.69,1.39,1.24,2,1.93a6,6,0,0,1,1.94,3.69.77.77,0,0,0,0,.34,2.21,2.21,0,0,1-.22,2.23,4.57,4.57,0,0,1-2.43,2.27,13.72,13.72,0,0,1-1.82.41,30,30,0,0,1-5.52.22l0,0c0,.23,0,.56.1.67a10.75,10.75,0,0,1,2,3.32c.42.79.39,1.64.79,2.54.34-.26.64-.48.92-.72a2.43,2.43,0,0,1,1.88-.52.94.94,0,0,1,.92,1,3.07,3.07,0,0,1-.31,1.24,14.71,14.71,0,0,1-2.53,3.38,8.3,8.3,0,0,1-1.54,1.07c-.16.11-.4.23-.54.17-.71-.26-1.16.19-1.72.48a4.72,4.72,0,0,1-2.36.64,9.6,9.6,0,0,0-1.42,0c-2.37.32-4.23-.9-6.13-2a2.15,2.15,0,0,1-.47-.52l-1.39-1.66a4.81,4.81,0,0,0-.29,3.48,6.12,6.12,0,0,0,2.65,3.44,5.61,5.61,0,0,0,2.52.82,24.7,24.7,0,0,0,5.15.19,9.23,9.23,0,0,0,5.9-2.39,10.42,10.42,0,0,1,.82-.67,15.44,15.44,0,0,0,3.66-3.46,6,6,0,0,0,1.21-2.24,4.83,4.83,0,0,1,.49-1.18c.42-.82.31-1.22-.49-1.71-.37-.23-.72-.47-1.08-.72-.05,0-.06-.14-.12-.27a1.41,1.41,0,0,1,1.63-.5,4.73,4.73,0,0,1,1.83,1.21.69.69,0,0,1,.17.86,3.71,3.71,0,0,1-.33.76c-1.33,1.71-2.08,3.78-3.43,5.48a5.38,5.38,0,0,1-.52.64c-1.17,1.05-2.31,2.15-3.56,3.09a12.44,12.44,0,0,1-8.33,2.72,21.86,21.86,0,0,1-3.87-.29,2.2,2.2,0,0,0-.79.1l-.56,0-.37-.23c-.27-.16-.54-.32-.82-.46a6.8,6.8,0,0,1-3-3.87,2.89,2.89,0,0,1,0-1.14,1.85,1.85,0,0,0-.09-1.17,8.57,8.57,0,0,1-.8.85c-1,.84-2,1.66-3.44,1.41-.88-.15-1.78-.2-2.67-.3l-.27-.24-.15-.07.17,0,.26.25a4.19,4.19,0,0,0,.52,1A52.93,52.93,0,0,1,170,126.2a59,59,0,0,1,3.85,6.73,80.62,80.62,0,0,1,4.58,10.58,3.93,3.93,0,0,0,.41.68l1.07-1a.88.88,0,0,0,.21-1.07,7.68,7.68,0,0,1-.37-1.24A58.07,58.07,0,0,0,175,128.61c-.86-1.79-1.71-3.58-2.67-5.59.36.17.54.2.6.3.61,1,1.23,2,1.79,3,1,1.76,1.75,3.6,2.63,5.39a44.91,44.91,0,0,1,2.64,6.8c.25.83.43,1.67.67,2.5a3.06,3.06,0,0,0,.31.59c.5-.24.84-.55.87-1a11.19,11.19,0,0,0-.85-5.88c-.38-.78-.7-1.58-1.08-2.35-.5-1-1-2-1.56-3s-1.23-2.17-1.87-3.3l.56-.62a.78.78,0,0,0,0,.22,2,2,0,0,0,.2.31c0-.1.08-.19.13-.29l.58,0c-.06.56.47.79.69,1.19-.57.28-.57.28-.08.69,0-.26,0-.48.06-.7a1.78,1.78,0,0,1,.7,1.43l-.05,0,.07,0a1.9,1.9,0,0,1,.45.34q3,3.92,6,7.87a12.5,12.5,0,0,1,.76,1.29c-.58.38-.9.1-1.18-.25-.58-.74-1.15-1.5-1.73-2.24-.31-.41-.65-.79-1-1.19a15.43,15.43,0,0,0-1.68-2,3,3,0,0,0,.23.8,10.89,10.89,0,0,1,1.53,6.1,4.48,4.48,0,0,0,.14.86c.9-.37,1.72-.71,2.55-1a11.47,11.47,0,0,1,3.82-1.14c1.68-.81,3.48-.39,5.23-.53,1.25-.11,2.49-.25,3.82-.39-.09-.2-.11-.37-.21-.46a7.86,7.86,0,0,0-2.56-2,5.6,5.6,0,0,1-1.43-1,8.94,8.94,0,0,1,4.34,2,4.09,4.09,0,0,1,.61.7,1.56,1.56,0,0,0,1.49.77,7,7,0,0,1,3.51.78.74.74,0,0,1,.22.1c.7.57,1.59.85,2.3,1.36a16.68,16.68,0,0,0,3.34,1.64c.79.35,1.65.53,2.43.87,1.12.49,2.19,1.08,3.29,1.6s2.41,1.14,3.66,1.62a6.25,6.25,0,0,1,2.27,1.65,3.47,3.47,0,0,0,2.31,1.18,4.89,4.89,0,0,1,2.81,1.08c.64.51,1.32,1,2,1.44.91.65,1.74,1.42,2.71,2.22a2.68,2.68,0,0,0,0-.55,31.07,31.07,0,0,1-.69-5.93c.08-1.61,0-3.22.16-4.82a10.23,10.23,0,0,1,1.43-4.44c.2-.33.33-.71.5-1.06a3,3,0,0,1,2.26-2.07c-.05.16-.05.28-.11.34a11.76,11.76,0,0,0-2.54,4.84,6.37,6.37,0,0,0-.11,2.1c0,1.61.1,3.21.07,4.82a11.93,11.93,0,0,0,.43,3.47,23,23,0,0,0,.85,3.13c.6,1.34.86,2.84,1.94,4a.72.72,0,0,1,.2.29,28.15,28.15,0,0,0,2.48,3.83,5.65,5.65,0,0,0,1.3,1.33c1,.78,1.68,1.81,2.67,2.59a28.61,28.61,0,0,0,4.12,2.61c.23.12.47.24.71.38a2.06,2.06,0,0,0,1.28.52.64.64,0,0,1,.33.12,13.64,13.64,0,0,0,4.8,1.41,1.38,1.38,0,0,1,.34.12,26.2,26.2,0,0,0,4.29,1.19,14.38,14.38,0,0,0,1.62.25c1.83.28,3.66.56,5.49.82s3.8.52,5.71.77c.55.07,1.1.11,1.64.13,2.16.08,4.32.2,6.48.21,3,0,6.06-.08,9.1-.07,1.88,0,3.77.16,5.65.2s3.61,0,5.41,0c2.16,0,4.32.17,6.47.24.79,0,1.57.07,2.35,0a66.26,66.26,0,0,1,7.19.19c1.42.08,2.84.07,4.25.07,3.69,0,7.39-.1,11.08-.05a55.13,55.13,0,0,0,5.76-.34c3-.27,6-.53,8.94-.73,1-.06,2,.07,3.12.11A1.63,1.63,0,0,1,347,173c-1.89.13-3.72.65-5.59.88-2.58.32-5.16.58-7.74.87-3.78.41-7.56.15-11.34.2-2.44,0-4.88,0-7.32,0-1.42,0-2.83-.14-4.25-.19-.9,0-1.81,0-2.72,0-1.73-.06-3.46-.17-5.19-.22s-3.54,0-5.31,0c-3-.08-6.06-.22-9.09-.3-1.22,0-2.44,0-3.66,0-2.87,0-5.75,0-8.61-.12a57.74,57.74,0,0,1-7.76-.65c-2.47-.45-5-.8-7.45-1.23a18,18,0,0,1-2.42-.55,19.3,19.3,0,0,0-4.07-.65,19.8,19.8,0,0,1-7.77-2.22c-1.46-.78-2.91-1.55-4.34-2.38a12.65,12.65,0,0,1-1.64-1.3c-1.15-1-2.36-2-3.41-3.07s-2.21-2.64-3.27-4c-.36-.45-.57-1-.9-1.49-.22-.29-.36-.69-.84-.76-.19,0-.34-.3-.5-.47h0c-.11,0-.25,0-.32-.1a37.66,37.66,0,0,0-9.79-7.11c-.44-.24-.45-.23-1.2-.08a7.41,7.41,0,0,0,1.12,1.69,8.37,8.37,0,0,1,1.6,2.58,6.35,6.35,0,0,1,.7,1.71,10,10,0,0,1,.06,1.82,7.3,7.3,0,0,0,0,.81,10.76,10.76,0,0,1-.46,4.75,15.75,15.75,0,0,1-.78,1.85c-.18.39-.42.75-.62,1.13a18.82,18.82,0,0,1-3,4.23,2.52,2.52,0,0,0-.41.69,11.4,11.4,0,0,1-3.68,4.65c-.36.25-.68.54-1,.79a11.13,11.13,0,0,1-2.85,1.62c-1.11.39-2.1,1.08-3.19,1.52a32.71,32.71,0,0,0-3.23,1.65,7.48,7.48,0,0,1-2.77.91c-1.68.2-3.34.51-5,.72a22.09,22.09,0,0,1-2.7.12c-1.33,0-2.67-.05-4-.06-.71,0-1.42.11-2.12,0a13.61,13.61,0,0,1-4.54-1.18,19.12,19.12,0,0,0-2.63-1,4.68,4.68,0,0,0-1.4-.17,34.21,34.21,0,0,1-7.93-1,8.43,8.43,0,0,1-1.28-.56c-.43-.2-.87-.36-1.28-.6a20.28,20.28,0,0,1-2.46-1.59c-1.15-1-2.2-2-3.28-3a2.51,2.51,0,0,1-.29-.51c-.36-.65-.49-.76-1.21-.6a14,14,0,0,1-3,.2c-1.09,0-2.19.07-3.29.13a24.3,24.3,0,0,1-4.82-.28,5.22,5.22,0,0,1-1-.23,23.93,23.93,0,0,1-5.39-2.6c-.66-.49-1.37-.91-2.06-1.36a11.25,11.25,0,0,1-3.55-3.68,1.62,1.62,0,0,1-.2-.89,22.76,22.76,0,0,1,.27-2.33,3.43,3.43,0,0,1,.75-1.71,3.87,3.87,0,0,0,.46-.68A7.06,7.06,0,0,1,142.7,155c1-.64,2-1.25,3-1.89a3.51,3.51,0,0,0,.56-.49c-.22-.47-.7-.6-1.07-.86-1.76-1.25-3.59-2.4-5.27-3.76a29.55,29.55,0,0,1-4.19-4.39,40,40,0,0,1-3.71-5.81c-.57-1-1.14-2-1.77-3a4.56,4.56,0,0,1-.58-1.39,17.6,17.6,0,0,0-.74-2c-.45-1.08-1-2.13-1.35-3.23a25.05,25.05,0,0,1-.7-2.71c-.21-.91-.41-1.82-.59-2.74-.36-1.8-.64-3.61-.94-5.42a34.72,34.72,0,0,1-.26-5.28c0-2.12.26-4.23.36-6.34.16-3.06,1.16-5.92,1.93-8.83a6.17,6.17,0,0,1,.29-.65,74,74,0,0,1,3.23-7.44,52.25,52.25,0,0,1,3.75-5.84,43.06,43.06,0,0,1,3.43-4.18c1.78-1.82,3.36-3.83,5.23-5.57.91-.86,2-1.57,2.88-2.44a17.14,17.14,0,0,1,5.13-3.3c2.23-1,4.43-2,6.63-3.06a10.37,10.37,0,0,1,5.06-.83,2.71,2.71,0,0,1,.67.2c.22.07.48.24.66.18.6-.22,1.08.1,1.58.27,1.08.37,2.14.78,3.2,1.19a4.23,4.23,0,0,0,3.73-.26,20.85,20.85,0,0,0,3-2.33c1.17-.93,2.34-1.86,3.48-2.82.88-.73,1.71-1.51,2.58-2.24a22.25,22.25,0,0,1,4.87-3.28,6.81,6.81,0,0,1,3.52-.78,1.36,1.36,0,0,1,1.08.59,13.26,13.26,0,0,1,1.69,4c.19.59.26,1.21.47,1.79a1.39,1.39,0,0,0,2.5.48c.37-.4.71-.84,1.07-1.25a5,5,0,0,1,3.21-1.58,2.06,2.06,0,0,1,2.08.79l.77,1,.8,1.12,1.24-.62a6.06,6.06,0,0,1,3.11-.48.79.79,0,0,1,.53.21A4.51,4.51,0,0,1,210.2,62a1.33,1.33,0,0,0,1,1.18,1.62,1.62,0,0,1,.78.5,3.43,3.43,0,0,0,2.84,1.28,19.86,19.86,0,0,0,4.55-.61,13,13,0,0,1,1.75-.27,1.86,1.86,0,0,1,1.68.83,10.53,10.53,0,0,1,1.9,4.58,26.55,26.55,0,0,1,.37,6,12.66,12.66,0,0,1-.24,1.48c-.34,2.3-.68,4.59-1,6.88a4.92,4.92,0,0,0,0,1.15c.11,1.8.14,3.61.41,5.38a15.82,15.82,0,0,0,1.09,3.19c.15.39.47.7.46,1.16a.54.54,0,0,0,.14.32c1.05,1.56,1.85,3.31,3.3,4.58a3.79,3.79,0,0,1,.34.45c.16.21.29.53.5.61.73.26,1.07,1,1.62,1.4a15,15,0,0,0,1.91,1.26c1,.58,1.93,1.3,2.92,1.92a16.84,16.84,0,0,0,5.82,2.66,9.66,9.66,0,0,0,4.66-.08c.45-.12.91-.22,1.37-.33a23,23,0,0,0,7.29-3c.56-.36,1.05-.82,1.59-1.21,1.18-.86,2.33-1.74,3.56-2.53s2.44-1.43,3.68-2.12,2.21-1.21,3.33-1.78a1.55,1.55,0,0,0,.83-.8,10.39,10.39,0,0,1,3.59-4,32.82,32.82,0,0,1,7.5-4c2.21-.92,4.45-1.79,6.69-2.63,1.22-.46,2.47-.8,3.7-1.23,1.82-.62,3.65-1.22,5.45-1.92,2.09-.81,4.15-1.69,6.31-2.29.3-.09.61-.17.92-.24,1.6-.38,3.2-.81,4.82-1.1,1.43-.26,2.89-.35,4.33-.52.74-.08,1.48-.21,2.22-.27a18.78,18.78,0,0,1,5.48.59,17.62,17.62,0,0,1,6.56,3c1,.7,2.13,1.18,3.13,1.86,1.6,1.1,3.15,2.29,4.72,3.44.82.61,1.68,1.17,2.44,1.84a24.43,24.43,0,0,1,1.76,1.9,2.81,2.81,0,0,0,.66.63,14.44,14.44,0,0,0,2.73,1.35c.22.06.43.19.66.26l5.15,1.55c.78.23,1.58.42,2.36.66a1.37,1.37,0,0,1,.59.35.69.69,0,0,1,.22.85c-.18.38-.53.26-.83.18l-6.23-1.81a7.24,7.24,0,0,0-.79-.25,8.67,8.67,0,0,1-4.85-2.73,17.48,17.48,0,0,0-3.67-2.91c-1.47-.9-2.82-2-4.27-3-1.91-1.24-3.87-2.4-5.78-3.64A16.16,16.16,0,0,0,319,79.9a19.06,19.06,0,0,0-5.26-.65c-.7,0-1.4.2-2.11.23a27.77,27.77,0,0,0-9.81,2.32A24.15,24.15,0,0,1,297.9,83c-1.45.33-2.86.87-4.28,1.32-1.84.58-3.69,1.11-5.5,1.76C285.53,87,283,88,280.39,89a42,42,0,0,0-6.06,2.87,16.28,16.28,0,0,0-2.57,1.88,5.67,5.67,0,0,0-1.85,2v0l0-.06a3.91,3.91,0,0,0,2.14-.71,1.62,1.62,0,0,1,0-.44c.13-.45.36-.56.78-.41a2.81,2.81,0,0,0,1.86.26c.12.23.18.52.35.64a11.32,11.32,0,0,0,1.22.7c1.52.81,3.09,1.55,4.54,2.46s2.6,1.86,3.86,2.84c.91.72,1.8,1.47,2.64,2.27.45.42.71,1,1.16,1.46,1.34,1.22,1.89,3,2.93,4.36.41,1.86,1.88,3.23,2.34,5.08a13.81,13.81,0,0,0,1.18,2.57c.33.66.74,1.28,1,2a19.32,19.32,0,0,1,.78,2.21c.41,1.43.83,2.86,1.15,4.32.38,1.67.73,3.36,1,5.06a22.49,22.49,0,0,0,.53,3.48c.22.72.48,1.42.65,2.15s.29,1.53.43,2.3a7.16,7.16,0,0,0,.19.8,10.85,10.85,0,0,1,.54,2.4,1.45,1.45,0,0,0,1.06,1.38c.85.31,1.67.7,2.5,1.05.11,0,.27.07.31.15.42.72,1.22.61,1.83.89a25.26,25.26,0,0,0,4.31,1.18,29.22,29.22,0,0,0,3.6.66c2.68.38,5.37.69,8.06,1,1.82.25,3.65.52,5.47.8.78.12,1.53.37,2.3.46a36,36,0,0,0,5.85.62,6,6,0,0,1,.94.09l2.1.17,2,.2c.23.6,0,1-.44,1-1.45,0-2.9,0-4.36,0-.39,0-.78-.14-1.17-.13a43.31,43.31,0,0,1-7.35-1c-1.05-.17-2.1-.33-3.15-.44-1.29-.14-2.59-.21-3.88-.33A46.58,46.58,0,0,1,313.5,148c-3.11-.82-6.15-1.91-9.19-3a1.66,1.66,0,0,1-.63-.29,2.75,2.75,0,0,0-1.4-.58,23.88,23.88,0,0,1-7.15-2.68c-1.48-.82-3.06-1.45-4.58-2.21s-3.11-1.72-4.73-2.41c-2.54-1.08-4.89-2.5-7.32-3.79-2.16-1.13-4.39-2.14-6.6-3.17q-2.23-1-4.53-2a31.22,31.22,0,0,0-5.78-1.63c-.3-.06-.62-.09-.92-.18a15.61,15.61,0,0,0-4.56-.54c-1.5,0-3,0-4.49,0a20.75,20.75,0,0,0-5.49.73c-1.18.31-2.35.66-3.52,1a11.5,11.5,0,0,0-4,2.13,4,4,0,0,1-.56.29.88.88,0,0,1,.32-1.17,21.75,21.75,0,0,1,7.17-3.5,24.27,24.27,0,0,1,5.65-1.17c1.45-.06,2.91,0,4.37,0,1.06,0,2.12-.07,3.18,0a20.35,20.35,0,0,1,2.56.41c1.27.24,2.55.47,3.8.79a25.84,25.84,0,0,1,5.85,2c.51.28,1.08.46,1.62.69,1.32.58,2.65,1.14,3.95,1.74,1,.46,2,.95,3,1.37s1.88,1.25,3,1.61a6.09,6.09,0,0,1,1.29,1c-.12-.37-.13-.49-.19-.55a27.83,27.83,0,0,1-3.59-5.09,2,2,0,0,1-.3-.87c0-.23.16-.47.34-.92a16.54,16.54,0,0,0,2.59,3.52c.86,1.13,1.88,2.07,2.83,3.1a27.08,27.08,0,0,0,3.09,2.91,22.93,22.93,0,0,0-2.77-4.37c-.26-.4-.55-.77-.77-1.19-.08-.13,0-.48,0-.52a1.07,1.07,0,0,1,.64,0,.8.8,0,0,1,.34.32,63.78,63.78,0,0,1,4,5.5,18.4,18.4,0,0,0,2,2.56,1.16,1.16,0,0,0,.36.3l3.7,1.78,3,1.52a3,3,0,0,0,.63.18,1.41,1.41,0,0,0,0-1.5c-.53-1.11-.49-2.36-.92-3.49a3.74,3.74,0,0,0-.12-.45,12,12,0,0,1-1.12-4.9,11,11,0,0,0-.19-1.28c-.36-1.73-.38-3.51-.9-5.21-.38-1.23-.68-2.48-1.08-3.71A36.49,36.49,0,0,0,293,115.8c-.12-.24-.24-.49-.34-.75a10.11,10.11,0,0,0-1.38-2.72,7.26,7.26,0,0,1-.44-.83c-.46-.82-.93-1.63-1.39-2.44-.06-.11-.15-.19-.2-.3a15.82,15.82,0,0,0-4.49-5.67,39.37,39.37,0,0,0-7.8-5.44c-.9-.48-1.75-1.05-2.63-1.57-.34-.2-.7-.37-1-.55-2.15,1-4.31,2-6.39,3.06s-4,2.27-6,3.48c-1.17.72-2.28,1.54-3.38,2.36a26,26,0,0,1-9.77,4.3l-1.38.32a10.67,10.67,0,0,1-5.58-.17c-1.17-.34-2.34-.7-3.48-1.12a9.82,9.82,0,0,1-1.45-.8c-1.45-.87-2.93-1.69-4.33-2.62a20.23,20.23,0,0,1-2.41-2,17.68,17.68,0,0,1-4.87-6.81c-.27-.81-.66-1.58-1-2.38a8.45,8.45,0,0,1-.61-4.27,1,1,0,0,0,0-.35c0-.07-.09-.12-.22-.27-.52,1-.56,2.14-1,3.12s-.69,2-1.16,3-.59,2.13-1.59,2.92a1,1,0,0,1-.16-1c.47-1.25.91-2.51,1.43-3.74a6.93,6.93,0,0,0,.59-2.5,7.93,7.93,0,0,1,.42-2.19,67.5,67.5,0,0,0,2.34-8.52,17.41,17.41,0,0,0,.13-5.85,4.7,4.7,0,0,1,0-1.06,9.43,9.43,0,0,0-2.18-7.09,5.7,5.7,0,0,0-2.48.3,19.4,19.4,0,0,1-4.56.6,4.1,4.1,0,0,1-3-1.22l-.53-.5c-.88.7-.91,2.08-2.08,2.48-.23-.36-.06-.62.1-.9a7.06,7.06,0,0,0,.63-1.26,4.13,4.13,0,0,0-1.3-3.91,1.44,1.44,0,0,0-.53-.25,3.46,3.46,0,0,0-3.22.83,12.13,12.13,0,0,1,1.33,6.79c-.79.21-1.06,1.36-2.19,1.15a4.65,4.65,0,0,1,.1-.53,3.63,3.63,0,0,1,.27-.42l-1.57-3.63c.66,0,.92.2,1.31,1,.25.53.41,1.09.65,1.73.08-.17.21-.32.19-.45-.19-1.35-.37-2.71-.61-4a4.56,4.56,0,0,0-1-1.74c-.52-.74-1-1.48-1.5-2.25a1,1,0,0,0-.86-.5,3,3,0,0,0-2.9,1.23c-.21.29-.49.52-.68.81-.72,1.09-1.9,1.21-3,1.43-.7.14-1.47-.53-1.74-1.45-.2-.67-.27-1.39-.48-2.06-.31-1-.67-1.92-1-2.86a1.33,1.33,0,0,0-1.7-.88,5.88,5.88,0,0,0-1.25.32,18.08,18.08,0,0,0-4,2.52c-2.61,2.22-5.21,4.44-7.84,6.63-.75.63-1.6,1.14-2.38,1.73a5,5,0,0,1-4.29.7,23.77,23.77,0,0,1-3.16-.93,15.6,15.6,0,0,0-5.06-1,8.52,8.52,0,0,0-3.09.63c-.48.19-.94.41-1.41.61a.78.78,0,0,1-.44.09c-.84-.27-1.44.26-2.07.62-1.3.73-2.57,1.52-3.87,2.25a13.06,13.06,0,0,0-2.39,1.72c-.81.75-1.69,1.42-2.51,2.15s-1.58,1.43-2.3,2.2c-1.45,1.55-2.9,3.11-4.26,4.73a46.7,46.7,0,0,0-5.28,7.08c-.67,1.2-1.3,2.43-1.93,3.65-.13.26-.35.56,0,.84.05,0,0,.22,0,.33a14.23,14.23,0,0,1-.49,1.81,18,18,0,0,0-1,6.47,18.52,18.52,0,0,1-.24,3.64,10.55,10.55,0,0,0,0,2.57c.07,1.76.09,3.53.25,5.29.12,1.27.42,2.54.65,3.8.17.93.33,1.85.53,2.77.28,1.3.55,2.6.91,3.88s.78,2.53,1.2,3.79a10.3,10.3,0,0,0,.47,1.79,31.17,31.17,0,0,1,1.05,3.09c.43,1.12,1,2.18,1.43,3.31a4.92,4.92,0,0,0,1.25,1.93c.09.39.19.78.35,1.42.12-.74,0-1.12-.37-1.4m.22,7.61v0s0,0,0-.06v0m33.13-36.92-.26.25-.21.27a3.73,3.73,0,0,0-.74.31c-1.6,1.07-3.26,2.08-4.75,3.29a15,15,0,0,0-2.12,2.6,1.07,1.07,0,0,0-.19.55c-.06.75-.27,1.47.34,2.19a7.63,7.63,0,0,0,2.41,1.9,7.92,7.92,0,0,1,1.43.79,4.08,4.08,0,0,0,3,.82,1.82,1.82,0,0,0,1.27-.52,4.38,4.38,0,0,0,1.45-2.37,36.94,36.94,0,0,0,.73-3.8c.14-1.78.59-3.54.9-5.31a4.62,4.62,0,0,0,0-1.81,1.19,1.19,0,0,0-1.62.26c-1.28,1.28-2.59,2.53-3.87,3.8-.86.87-1.71,1.74-2.55,2.63a5.45,5.45,0,0,0-1.4,2c0,.12-.19.2-.37.38a1.62,1.62,0,0,1,.09-1.42,12.92,12.92,0,0,1,1.84-2.13c.69-.85,1.47-1.62,2.24-2.41.61-.61,1.25-1.19,1.88-1.78l.21-.26.28-.24,0,0-.06,0m3.53,9.24,0,0,0,0M145.29,149l0,0,0,0h0c.12.06.07,0,0,0m15.64-28.65,0,0,.06,0h0m12-16.09,0,.05,0,0h0M129.68,95l.1,0s0-.05,0-.08l-.11.15,0,0Zm.5-1.12s0,.06,0,.09h-.08l.09-.1-.06-.12.09,0,0,.12m5.88,48,.64.53a2.19,2.19,0,0,0-1.47-1.44c.28.3.55.61.83.93l0,0Zm55.59-27.38-.82.71c-.12-.07-.17-.08-.18-.11-.07-.19-.14-.39-.21-.61a2.71,2.71,0,0,0-1.11,2.18,7.38,7.38,0,0,1-.27,1.37l-.06,0h.05c.77-.8,1.54-1.6,2.29-2.42a1,1,0,0,0,.29-1.16.38.38,0,0,0,.1,0,.2.2,0,0,0,0-.08l-.12.13m-30.22,6.78h0a9,9,0,0,0,1.37,3.72,30,30,0,0,1,2.11,5.12,11.5,11.5,0,0,0,1.24,2.51c.7,1.09,1.54,2.08,2.32,3.11.33.44.66.87,1,1.29a2,2,0,0,0,.38.32,2.39,2.39,0,0,0-.28-1c-.82-1.62-1.62-3.24-2.48-4.83-1.06-2-2.17-3.93-3.26-5.88q-1.2-2.16-2.42-4.32m-5,47.37a.53.53,0,0,1,.22.08,2.79,2.79,0,0,0,2.82.66c.16-.06.39.05.58,0,.49,0,1-.09,1.51-.14-.47-.69-.48-.68-.77-.79a10.86,10.86,0,0,1-5.17-4.07c-.17-.26-.4-.47-.59-.71s-.47-.61-.71-.92a14.69,14.69,0,0,1-1.55-3.65,5.17,5.17,0,0,1-.37-3.1.66.66,0,0,0,0-.34c-.09-.27-.22-.51-.6-.34a10.19,10.19,0,0,0,.27,3,20.92,20.92,0,0,0,.93,3.62c.33.82.58,1.68.91,2.51.57,1.43,1.72,2.4,2.64,3.57,0,.19,0,.39-.07.58h-.19a.37.37,0,0,1,.05.11l.12-.14m-12-13a4.27,4.27,0,0,0-2.59,1.71,5,5,0,0,0-1.18,2.73,3.74,3.74,0,0,0,1.11,3.46,15.72,15.72,0,0,0,3.81,2.74c0-.16,0-.26,0-.3a3.65,3.65,0,0,1-1-2.45,2.07,2.07,0,0,0-.16-.56,11.16,11.16,0,0,1,0-7.35v0Zm2.3,8.88a8.08,8.08,0,0,0,1.48,1.92,8.2,8.2,0,0,0,2.07,1.52c1,.39,2,.58,3,1,.12,0,.32-.09.66-.2a7.07,7.07,0,0,1-1.86-1.65,13,13,0,0,1-3.63-5.67c-.51-1.67-1.18-3.34-.83-5.16.1-.5.15-1,.22-1.51a3.3,3.3,0,0,1,.43,1.93,4.91,4.91,0,0,0,.15,1.16c.48,1.37,1,2.73,1.53,4.09a2.69,2.69,0,0,0,.33.6,16.94,16.94,0,0,0,1.33,1.79c.41.43.6,1.14,1.35,1.2a1.23,1.23,0,0,1,0,.2l.12-.08-.16-.11c-.16-.48-.32-1-.49-1.44a20.91,20.91,0,0,1-1.28-4.85,14.61,14.61,0,0,1-.16-1.74c0-.88.07-1.76.11-2.68l-3.55-1.7a2.56,2.56,0,0,0-1.76,2,10.43,10.43,0,0,0-.47,3,11,11,0,0,0,.6,4.09c.17.43.25.9.4,1.35s.29.7.44,1.06v0Zm35.54-60.25,0,0a3.76,3.76,0,0,1,1,.25,2.9,2.9,0,0,0,1.49.28,11.72,11.72,0,0,0,3.37-.47,19.58,19.58,0,0,1,2.16-.57,3,3,0,0,1,.74,0,1.11,1.11,0,0,1,0,.21,2,2,0,0,1-.35.31,9.43,9.43,0,0,1-3.29,1.23,4.18,4.18,0,0,0-.68.27c1.51,0,3,0,4.39,0a13.46,13.46,0,0,0,2.44-.38,2,2,0,0,0,1.48-1.64,6.63,6.63,0,0,0-1.49-4.57c-.62-.75-1.27-1.49-1.94-2.19a3.65,3.65,0,0,0-3.89-1,10.26,10.26,0,0,0-4.2,2.51c-1.41,1.31-2.78,2.66-4.16,4,0,0,0,.14,0,.22.39,0,.39,0,.58.6.48.13,1,.25,1.47.39a1.54,1.54,0,0,1,1,.63m-5.24,12a3.27,3.27,0,0,0,1.4,1.38,19.32,19.32,0,0,1,2,1.07,2.76,2.76,0,0,0,1.46.41c1.1,0,2.2,0,3.3,0a2.48,2.48,0,0,0,2.47-2.13,9.2,9.2,0,0,0,.12-2.1,18.55,18.55,0,0,0-.52-3.46,9.62,9.62,0,0,0-1.74-3.56,1,1,0,0,0-.59-.27,15.14,15.14,0,0,1-3.82-1.48,11.45,11.45,0,0,0-2.63-.93,1.9,1.9,0,0,0-2,.4l-1-.32a3.92,3.92,0,0,0,.44,3.08c1,1.61,1.73,3.42,3,4.85.49.54,1,1,1.5,1.61a3.21,3.21,0,0,0,1.75,1.1c.34.09.7.15.84.54l-.19.17a.85.85,0,0,1-.22.09,3.3,3.3,0,0,1-3.48-1.16c-.45-.48-.85-1-1.28-1.53a6.68,6.68,0,0,1-1.39-2.43A2.12,2.12,0,0,0,175.3,110a3.74,3.74,0,0,0,.16,2.58c.21.67.41,1.35.56,2a2.6,2.6,0,0,0,1,1.65Zm-7.28,51.1a9.25,9.25,0,0,1,1.78,2.09,1.43,1.43,0,0,0,.75.66,2.48,2.48,0,0,1,.81.65,11.42,11.42,0,0,0,1.4,1.19c.88.62,1.71,1.31,2.59,1.92.48.33,1.05.53,1.54.85s1,.84,1.6,1.15,1.28.53,1.9.82a8,8,0,0,1,1.65.92c1.72,1.4,3.78,1.64,5.87,1.73,1.49.06,3,0,4.48,0a22.3,22.3,0,0,0,4-.19c1.24-.2,2.48-.48,3.72-.57a9.13,9.13,0,0,0,3.75-1.3c.76-.41,1.57-.73,2.35-1.09,1.65-.75,3.32-1.46,4.93-2.27a9.09,9.09,0,0,0,4.38-4.44l2.17-4.83a2,2,0,0,0,1.6-1.08,10.11,10.11,0,0,0,1.13-4.05c.1-1,0-2,0-3a7.05,7.05,0,0,0-.5-2.75,9.36,9.36,0,0,0-1.49-2.63,6.52,6.52,0,0,1-.48-.8,8.68,8.68,0,0,0-1.68-2.39,20.16,20.16,0,0,0-2-1.47,5.4,5.4,0,0,1-1.24-1,5.89,5.89,0,0,0-3.19-2.11,18,18,0,0,1-2.46-.78,7.68,7.68,0,0,1-1.66-.86,2.53,2.53,0,0,0-1.39-.56,4.44,4.44,0,0,1-2.23-.7c-.5-.31-1.05-.54-1.57-.81-.19-.11-.37-.24-.55-.36.13-.2.21-.34.41-.64-1-.07-1.88-.16-2.73-.17a34.94,34.94,0,0,0-4.57.19c-2.05.23-4.17-.22-6.18.6a3.28,3.28,0,0,1-.46,0c-.5.11-1,.2-1.49.35-.79.26-1.56.54-2.33.84a2.68,2.68,0,0,0-1.13.57c-.56.72-1.23,1.31-1.81,2a23.17,23.17,0,0,0-2.6,3.5,14.2,14.2,0,0,1-2.59,3.17c-.06.05-.1.12-.16.17a5.73,5.73,0,0,1-1.83,1.21,21.22,21.22,0,0,0-2.58,1.25c0,.31,0,.49.06.75a2.58,2.58,0,0,0-2,.85c-.21.18-.48.28-.7.45a14.5,14.5,0,0,0-1.57,1.24,44.82,44.82,0,0,0-3.16,3.31,7.18,7.18,0,0,0-1.33,2.46,12.15,12.15,0,0,0-.29,2.29,32.79,32.79,0,0,0,0,3.29,1,1,0,0,0,.2.63c.94,1,1.16,2.59,2.43,3.39.13.77.78,1.07,1.28,1.56a19.68,19.68,0,0,0,3.86,2.78,7.32,7.32,0,0,0,3.57,1.32,9.28,9.28,0,0,1,1.6.38,5.2,5.2,0,0,0,.69.08c.62.06,1.24.13,1.87.18a2.76,2.76,0,0,0,1.42-.1c-.64-.41-1.09-.77-1.61-1a15.71,15.71,0,0,1-3.85-2.82c-.8-.75-1.55-1.56-2.41-2.23a10.28,10.28,0,0,1-2.33-3.08c-.19-.32,0-.51.39-.62m4.85-62.88c1-.29,2-.37,2.64-1.26.31-.46.61-.91.9-1.38a25.46,25.46,0,0,1,1.46-2.42,12.53,12.53,0,0,0,1.91-7,10.34,10.34,0,0,0,0-1.76,3.91,3.91,0,0,0-4-3.65,30.75,30.75,0,0,0-4.08.52c-1,.21-2,.44-3,.72s-1.56.81-1.52,1.68a5.66,5.66,0,0,0,.4,2.39c.39.8.7,1.65,1,2.49.45,1.2,1.06,2.32,1.6,3.47a2.14,2.14,0,0,1,.22.52,5,5,0,0,0,.69,1.73c.36.6.61,1.27.91,1.9a2.8,2.8,0,0,0,.38.73,3,3,0,0,0,.75.42c-.1.29-.18.54-.3.93M172,103.26l.21-.19c-.29-.71-.62-1.41-.87-2.13a4.11,4.11,0,0,0-1.52-2c-.41-.31-.82-.62-1.25-.89a8.47,8.47,0,0,0-5-1.62c-.32,0-.63,0-1,0a4.4,4.4,0,0,0-4,2.42,7.09,7.09,0,0,0-.7,5.12,7.38,7.38,0,0,0,.82,1.67c1,.44,1.9,1.25,3.14,1.16a15.14,15.14,0,0,1,1.65,0c1.57,0,3.14.1,4.71.11a2.31,2.31,0,0,0,1-.31c.83-.44,1.64-.92,2.46-1.38l.68-.36a16,16,0,0,0-1.76-1.6c-1.4-.94-2.87-1.78-4.31-2.67-.19-.12-.36-.29-.54-.43a2.74,2.74,0,0,1,2.06.42,11.9,11.9,0,0,0,1.58,1,4.59,4.59,0,0,1,2.19,1.48c.09.13.33.16.49.23M129.39,96l-.14,0c-.16.47-.34,1-.47,1.43-.36,1.29-.62,2.61-1,3.86a27.2,27.2,0,0,0-.66,4.73c-.2,1.26,0,2.6-.24,3.85a18.32,18.32,0,0,0,0,3.47,24.86,24.86,0,0,0,.65,5.75c.14.64.15,1.31.3,2,.31,1.32.79,2.6,1,4a7.58,7.58,0,0,1,.35,1.91c.69,1,.82,2.25,1.37,3.32.13.27.39.5.46.79a10.8,10.8,0,0,0,1.56,3.6,17.21,17.21,0,0,1,1.12,1.9,20.07,20.07,0,0,0,4.7,5.92,2.85,2.85,0,0,1,.23.26,17.45,17.45,0,0,1,1.61,2c.28.46.82.57,1.07,1.08s.77.73,1.13,1.12a9.11,9.11,0,0,0,2.12,1.36c.06,0,.18,0,.36-.08-1.22-1.24-2-2.73-3.24-3.86a19.61,19.61,0,0,1-1.48-1.67,20.3,20.3,0,0,1-2.93-4c-.17-.31-.42-.57-.6-.87a22.35,22.35,0,0,1-1.53-2.62c-.79-1.87-1.48-3.79-2.19-5.69A24.15,24.15,0,0,1,132,127c-.43-1.71-.95-3.39-1.29-5.12,0-.15-.11-.3-.15-.45-.3-1.13-.68-2.25-.89-3.41-.31-1.76-.56-3.54-.71-5.33-.18-2.26-.22-4.54-.35-6.81a38.87,38.87,0,0,1,.28-4.7c.08-1.24.14-2.49.23-3.74,0-.48.15-1,.23-1.44m18.86,38.89-.13.09a2.64,2.64,0,0,0,.19.64c.39.63.83,1.23,1.24,1.85.86,1.31,1.72,2.63,2.59,3.94a11,11,0,0,0,.74,1.05c1.08,1.23,2.08,2.53,3.23,3.7a28.47,28.47,0,0,0,4.52,3.69,13.54,13.54,0,0,0,3.46,2,1.06,1.06,0,0,1,.21.11,15.52,15.52,0,0,0,3.92,1.66l1-.74c-.19-.17-.29-.31-.42-.35-1.66-.54-3-1.68-4.55-2.43a5.17,5.17,0,0,1-.78-.54c-1.21-.87-2.4-1.77-3.63-2.62a12.19,12.19,0,0,1-3-3.12,4.81,4.81,0,0,0-.73-.88c-1.33-1.17-2.75-2.24-4-3.49a41,41,0,0,1-2.78-3.36c-.34-.4-.7-.79-1.05-1.19m12.52,31.84c.38-1.33,0-2.47.26-3.57a9.17,9.17,0,0,1-3.2-2.64,11.39,11.39,0,0,1-1.91-2.77c-.3-.82-1.33-1.35-2.74-1.69a1.55,1.55,0,0,0,.16,1.24c.37.81.69,1.66,1.09,2.45a19.47,19.47,0,0,0,1.41,2.43c.61.86,1.34,1.65,2,2.46.07.09.16.23.25.23.74,0,1,.7,1.48,1l1.19.82m2-7.92a5,5,0,0,0-2.82-1.12,3,3,0,0,1-.57-.14l-2.7-.65a1.48,1.48,0,0,0,.48,1.22c1,1,2,1.95,3,3a2.17,2.17,0,0,0,1.12.58c.44-.76.88-1.48,1.29-2.22a3.77,3.77,0,0,0,.23-.64m-8.26,10.69c-.31-.43-.31-.43-.68-.05l.68.05"/><path class="cls-1" d="M162.79,140.88c-.75-.91-1.51-1.81-2.24-2.73-1.48-1.88-3-3.72-4.4-5.68-1.89-2.71-3.74-5.45-5.4-8.29-1.42-2.44-2.6-5-3.78-7.59-1-2.22-1.91-4.49-2.78-6.76a26.6,26.6,0,0,1-1-3.51c-.6-2.6-1.14-5.21-1.7-7.82a1.11,1.11,0,0,1,.16-.88c.5,2,1,3.91,1.51,5.88a51.34,51.34,0,0,0,1.81,6c.3.81.58,1.62.92,2.41.76,1.73,1.51,3.46,2.33,5.17.74,1.55,1.6,3.06,2.35,4.62a67.45,67.45,0,0,0,4.85,7.79c1,1.47,1.91,3,3,4.35,1.59,2,3.32,4,4.93,6a8.06,8.06,0,0,0,1.41,1.39A34,34,0,0,1,169,145.1a9.23,9.23,0,0,0,2.53,1.66,19.76,19.76,0,0,1,1.79,1.12c.07.05.07.2.14.43a6,6,0,0,1-.69-.12,12.49,12.49,0,0,1-3.84-1.57c-1.81-1.26-3.67-2.44-5.44-3.75-1.1-.82-2.08-1.8-3.09-2.72s-2.22-2-3.27-3.08c-.65-.67-1.18-1.46-1.77-2.2a72.6,72.6,0,0,1-5.43-7.7,110.11,110.11,0,0,1-5.44-10.59,91.36,91.36,0,0,1-4.72-12.7,21.08,21.08,0,0,1-.76-3.21A17.71,17.71,0,0,1,139,98a1.8,1.8,0,0,1,.35,1.31,5.47,5.47,0,0,0,.3,2.08,95,95,0,0,0,3.79,10.78c1.19,2.74,2.52,5.41,3.82,8.09.75,1.55,1.55,3.09,2.37,4.61.43.79,1,1.5,1.43,2.3a33.22,33.22,0,0,0,2.78,4.07c1.14,1.55,2.3,3.08,3.46,4.62a2.66,2.66,0,0,0,.39.43l3.27,3c.4.38.78.77,1.2,1.12a4.66,4.66,0,0,0,.7.38c.15.17.3.35.46.52l0,0,0,0-.48-.49m1.9,1.64,0,0,0,0-.09,0,.09,0m-.65-.39s.08,0,.08,0a.45.45,0,0,0,0-.11l-.1,0,0,.1"/><path class="cls-1" d="M145.44,96.42c.1,1.25.18,2.38.29,3.51a22.29,22.29,0,0,0,1.05,4.57c.34,1.1.78,2.15,1.09,3.25a69.56,69.56,0,0,0,3.18,8.11c.45,1,.81,2.13,1.31,3.16s1.11,2.07,1.72,3.08c1.61,2.65,3.26,5.28,4.86,8a69.1,69.1,0,0,0,7.53,10.23,24.33,24.33,0,0,0,3.83,3.62,6.15,6.15,0,0,1,1.51,1.91c-.26,0-.51,0-.64-.1-1.09-.85-2.19-1.68-3.22-2.59a44.77,44.77,0,0,1-6.6-7.67c-2-2.86-3.82-5.87-5.62-8.87-1.27-2.13-2.64-4.21-3.74-6.42-1.2-2.39-2.15-4.9-3.19-7.36a73.13,73.13,0,0,1-2.83-8.63,18,18,0,0,1-.72-5.94c0-.57-.25-1.17.19-1.81"/><path class="cls-1" d="M168,148.22a1.5,1.5,0,0,1-1.21-.34c-1.46-.86-3-1.66-4.33-2.65a45.79,45.79,0,0,1-9.7-9.41c-1-1.35-2.11-2.64-3.05-4-1.59-2.38-3.18-4.78-4.6-7.27a58.27,58.27,0,0,1-5.37-11.78c-.27-.9-.55-1.8-.81-2.71a10.43,10.43,0,0,1,0-4.45,2.28,2.28,0,0,1,.07.57,12.59,12.59,0,0,0,1.14,5.84c.6,1.54,1.24,3,1.84,4.59a40.67,40.67,0,0,0,2,4.21c.59,1.11,1.18,2.22,1.83,3.3.73,1.24,1.51,2.46,2.3,3.67,1.07,1.64,2.12,3.3,3.27,4.89,1,1.36,2.1,2.64,3.17,3.94q.7.87,1.44,1.71a16,16,0,0,0,1.12,1.21c1,.91,2,1.75,2.93,2.69a20.76,20.76,0,0,0,3.89,3c1.17.72,2.16,1.7,3.39,2.35.28.15.47.49.7.74Z"/><path class="cls-1" d="M165.62,67.32l1.14.45a7.65,7.65,0,0,1-.94,1.9,2.32,2.32,0,0,0-.49,1.75c.13,1.07,0,2.18.12,3.26a26.43,26.43,0,0,0,.89,4.49,17.35,17.35,0,0,1,.41,1.84,1,1,0,0,1-.64,1.32,12.25,12.25,0,0,1-1.2-2.47,30.34,30.34,0,0,0-1.4-3.87,10.29,10.29,0,0,1-.71-2.84,3.19,3.19,0,0,1,.47-2.26c.63-1,1.23-2.1,1.87-3.14a2,2,0,0,1,.5-.41Z"/><path class="cls-1" d="M175.76,67.75a5.32,5.32,0,0,1,.68,2.07,11,11,0,0,1-.59,5.39,22.42,22.42,0,0,0-.72,3,2.28,2.28,0,0,1-.76,1.19,2.32,2.32,0,0,1-.61-2.35,24.79,24.79,0,0,1,.9-2.93,13.2,13.2,0,0,0,.65-4.24,22.85,22.85,0,0,0-2.92-1.12c-1-.35-2,.1-3.22,0a3.85,3.85,0,0,1,2.8-1.13c1-.12,1.79.49,2.71.65l.84-1.42c.13.47.19.71.26.94v0Z"/><path class="cls-1" d="M150.8,106.42a7.3,7.3,0,0,1-1.67-3c0-.11-.06-.23-.11-.34-1-1.92-1.17-4.06-1.58-6.13-.33-1.68-.32-3.42-.49-5.13-.15-1.44-.31-2.88-.5-4.31a29.39,29.39,0,0,1-.32-4.29,6.61,6.61,0,0,1,.23-.94c.21,1.26.36,2.26.56,3.26.39,1.84.47,3.72.8,5.57-.26,1.17.3,2.29.26,3.47a8,8,0,0,0,.55,3.31,2.28,2.28,0,0,1,.15.57c.14,1.87,1,3.52,1.53,5.29.23.81.37,1.65.59,2.64"/><path class="cls-1" d="M142.18,78.47c-.31.71-.62,1.42-.94,2.13a8.78,8.78,0,0,0-.81,2.7c0,.38-.22.75-.3,1.13a34.18,34.18,0,0,0-.78,6.76,20,20,0,0,1-.09,2.9,8.8,8.8,0,0,0-.27,2,4.16,4.16,0,0,1-.8-2.55c-.05-1,0-2,0-3.06,0-.35.05-.71.09-1.06.09-.85.16-1.71.29-2.55a10.91,10.91,0,0,1,.41-1.59,21.54,21.54,0,0,1,1.21-4.16c.39-.73.74-1.48,1.16-2.19a3.56,3.56,0,0,1,.63-.66l.23.15"/><path class="cls-1" d="M210.6,105.23a11.2,11.2,0,0,1-1.12,1.34c-.94.82-1.95,1.57-2.93,2.35-.22.17-.48.28-.69.45a18.71,18.71,0,0,1-4.19,2.11,4,4,0,0,1-2.1.07c-.14,0-.39-.25-.38-.36a.82.82,0,0,1,.35-.52,1.35,1.35,0,0,1,.67-.14,8.43,8.43,0,0,0,4.49-1.63c1.68-1.07,3.28-2.29,4.92-3.43a8.65,8.65,0,0,1,.76-.47Z"/><path class="cls-1" d="M303.35,142.18c-.16-.08-.27-.09-.29-.14a10.68,10.68,0,0,1-.77-3c-.05-1.29-.16-2.58-.26-3.86-.16-2.14-.52-4.25-.85-6.37,0-.26-.2-.51-.25-.77a2.92,2.92,0,0,1,.08-.72,3.51,3.51,0,0,1,.44.57,13.11,13.11,0,0,1,.86,3.28c.17,1.08.41,2.15.6,3.23.08.42.1.85.14,1.28.11,1.28.2,2.57.32,3.86a8.12,8.12,0,0,0,.28,1.37,1.14,1.14,0,0,1-.3,1.32"/><path class="cls-1" d="M305.73,130.17l.72,2.82a1.25,1.25,0,0,1,.07.47c-.14,2,.48,3.88.4,5.84a6.08,6.08,0,0,0,.21,1.29.66.66,0,0,1-.7.46.77.77,0,0,1-.65-.74,14.71,14.71,0,0,1-.08-1.76,4.07,4.07,0,0,0,.06-.59c-.27-2.09.05-4.23-.46-6.32a4,4,0,0,1,.1-1.37s.2-.06.33-.1"/><path class="cls-1" d="M144.57,82c.43.48.16.89.07,1.29a15.52,15.52,0,0,0-.42,3.11c0,1,.1,1.95.09,2.92,0,1.39-.09,2.78-.15,4.33-.24-.18-.47-.25-.5-.38a5.92,5.92,0,0,1-.27-1.48c0-2-.11-3.93,0-5.89a19.62,19.62,0,0,1,.7-3.44c0-.18.3-.3.47-.46"/><path class="cls-1" d="M181,127.82c.77.8,1.57,1.59,2.32,2.41a30.66,30.66,0,0,0,5.27,4.3,9.31,9.31,0,0,0,1.26.64l.83.47c-.34.46-.7.35-1.09.25a9.34,9.34,0,0,1-3-1.76,33.44,33.44,0,0,1-5.54-5.74,1.7,1.7,0,0,1-.17-.48l.16-.09"/><path class="cls-1" d="M196.25,136.38a4.39,4.39,0,0,1-2.5-.54,34.44,34.44,0,0,1-5.64-3.34,6.49,6.49,0,0,1-1.13-1,5.93,5.93,0,0,1-.54-1,5.1,5.1,0,0,1,.63.32,10,10,0,0,0,3.52,2.3,2.33,2.33,0,0,1,.62.34,7.93,7.93,0,0,0,2.6,1.49c.47.17.92.42,1.4.58a1.51,1.51,0,0,1,1,.91"/><path class="cls-1" d="M153.09,95.89c-.39-.25-.34-.62-.33-1a35.05,35.05,0,0,0-.59-6.62,13,13,0,0,1-.12-1.39,2.06,2.06,0,0,1,.23-.66c.2.24.42.39.41.51a5.4,5.4,0,0,0,.49,2.28,3.58,3.58,0,0,1,0,.81,7.38,7.38,0,0,0,.13,1.49,11.15,11.15,0,0,1,0,4.27c0,.09-.13.16-.22.26"/><path class="cls-1" d="M188.36,62.49a3.49,3.49,0,0,1,0-2,6.55,6.55,0,0,1,.46-1.18c0-.07.21-.06.35-.09a2.86,2.86,0,0,1,.49,1.76c0,.35.11.65.43.75.53.16.43.57.47.94-.8.6-1.48.19-2.19-.23"/><path class="cls-1" d="M159.38,89.91a2.36,2.36,0,0,1,.34.67c.39,2.35.45,4.63.12,5.41a2,2,0,0,1-.55-1.37c0-1.39-.12-2.79-.18-4.19V90l.27-.09"/><path class="cls-1" d="M310.58,134.65a11.44,11.44,0,0,1-.07,5.54c-.19-.15-.46-.27-.46-.39a7.13,7.13,0,0,1,.07-1.73,12.37,12.37,0,0,0,.27-2.19,6.55,6.55,0,0,1,.19-1.23"/><path class="cls-1" d="M321.16,122.46c0,.5.07,1,.06,1.48,0,.82-.07,1.64-.09,2.46a.46.46,0,0,1-.39.49.38.38,0,0,1-.48-.38,4.33,4.33,0,0,1,.12-1.62,6.76,6.76,0,0,0,.44-2.16.86.86,0,0,1,.14-.29l.2,0"/><path class="cls-1" d="M319.19,123.83a4.26,4.26,0,0,1-.36-.47,3.21,3.21,0,0,1-.22-.54.78.78,0,0,1,0-.34c.12-1.19-.38-2.38,0-3.65.53.48.14,1.16.4,1.6s.16,1.07.19,1.6.51,1.09,0,1.8"/><path class="cls-1" d="M319.5,140c-.48-1.32.15-2.4.38-3.52a.68.68,0,0,1,.67-.64,17.41,17.41,0,0,1-.64,3.67c0,.15-.23.28-.41.49"/><path class="cls-1" d="M335.76,123.54a4.26,4.26,0,0,1-1.34,3.47c-.32-.09-.49-.36-.34-.62.51-.93,1.08-1.84,1.68-2.85"/><path class="cls-1" d="M201.81,64.27c-.7-.77-1.45-1.51-2.11-2.31a2.18,2.18,0,0,1-.4-1.36c.13.13.26.27.38.41s.24.31.36.46a10.22,10.22,0,0,0,1.18,1.42,1.81,1.81,0,0,1,.63,1.34Z"/><path class="cls-1" d="M201.06,136.57a6.31,6.31,0,0,1-1.72-2.58c.3.07.55,0,.63.16.4.56.78,1.15,1.13,1.75.07.13,0,.36,0,.67"/><path class="cls-1" d="M323.23,125.51c.62,1.36.53,2-.41,3-.38-.53.11-1,.05-1.53a1.66,1.66,0,0,1,.36-1.42"/><path class="cls-1" d="M339.59,128.94a4.4,4.4,0,0,1,.81-2.12c0-.06.21,0,.44-.06a2.59,2.59,0,0,1-1.25,2.18"/><path class="cls-1" d="M337.9,125.86a3,3,0,0,1-.61,1.57.39.39,0,0,1-.39.07.38.38,0,0,1-.11-.38c.24-.5.45-1.05,1.11-1.26"/><path class="cls-1" d="M136.49,116.1c-.55-.81-.56-.86-.14-2.13.12.86.43,1.47.12,2.15l0,0"/><path class="cls-1" d="M141.52,96.88c-.11-.44-.21-.88-.31-1.32l.22,0,.06,1.37Z"/><path class="cls-1" d="M133.93,87.2l-.06,1.24a1.19,1.19,0,0,1,.07-1.22Z"/><path class="cls-1" d="M313.79,136.48l-.16.11s-.05-.07,0-.1a.43.43,0,0,1,.09-.16l.11.15"/><path class="cls-1" d="M168,148.24a1.64,1.64,0,0,1,.22,0s.05.07.07.11-.08,0-.1,0a.79.79,0,0,1-.17-.14Z"/><path class="cls-1" d="M310.76,134.12s-.06,0-.09,0,0,0-.06-.07l.14-.07a.38.38,0,0,1,0,.1"/><polyline class="cls-1" points="141.5 96.9 141.51 96.88 141.5 96.9"/><polyline class="cls-1" points="133.94 87.22 133.93 87.2 133.94 87.22"/><path class="cls-1" d="M165.64,67.34l0-.09-.05.07v0"/><path class="cls-1" d="M201.85,64.23l.14.11-.18-.07,0,0"/><path class="cls-1" d="M182.29,166.67c.1.11.26.21.31.34a1.26,1.26,0,0,0,1,.9,7.4,7.4,0,0,1,1.6.88,5.26,5.26,0,0,0,2.21.73,5.4,5.4,0,0,1,.7.13c.69.16.68.17,1.12.83,1,.06,2,.13,3.06.18a4.32,4.32,0,0,0,3.33-1.22,2.69,2.69,0,0,1,2-.87c-.6.74-1.56.86-1.9,1.78l.55-.09c1-.2,2.06-.43,3.1-.6s2.26-.31,3.38-.5a1.31,1.31,0,0,0,.82-.4c.31-.49.59-.88,1.26-.88.18,0,.42-.35.54-.58.37-.73,1.09-1.08,1.69-1.74.21.95-.86,1.24-.72,2.07a12.36,12.36,0,0,0,3.6-3.75,7.31,7.31,0,0,0,.86-4.43A5.77,5.77,0,0,0,209.5,157a26.93,26.93,0,0,0-5.25-4.8,21.11,21.11,0,0,0-5.15-2.44,29.77,29.77,0,0,0-4.18-1.18,9.85,9.85,0,0,0-5.3.2l-.07,0q-2.51,1.14-5,2.31a2,2,0,0,0-.37.22c-1.37,1.06-2.47,2.8-4,3.92a19.54,19.54,0,0,0-2.34,2.48,9.49,9.49,0,0,0-2,3,16.38,16.38,0,0,1,.47,1.74c.12.69.15,1.39.22,2.09a.32.32,0,0,0,.07.22c.58.37.68,1.28,1.66,1.3a2.31,2.31,0,0,1-1.9.6c0-.08,0-.19-.06-.22a.77.77,0,0,0-.27,0c0,.06.07.15.12.18a.77.77,0,0,0,.23.06,6.4,6.4,0,0,1,.92,1.17,2.18,2.18,0,0,0,1,.93,24.14,24.14,0,0,1,2.88,2.14,35.24,35.24,0,0,0,3.32,2.19,21.31,21.31,0,0,0,1.91,1.13,8.75,8.75,0,0,0,4.16.87c1.21,0,2.41,0,3.62,0,1.05,0,2.1.2,3.16.24a5.52,5.52,0,0,0,1.62-.18c.51-.14.87.2,1.32.25a3.35,3.35,0,0,1-2.85.64c-1.2-.18-2.41-.29-3.62-.41a2.44,2.44,0,0,0-.64.13l1.37.73a2.68,2.68,0,0,1-2.17.12.5.5,0,0,0-.21,0,11.85,11.85,0,0,1-6.63-1,4.4,4.4,0,0,1-.51-.29c-.85-.48-1.74-.91-2.56-1.45a31.17,31.17,0,0,1-2.61-2,26.69,26.69,0,0,1-2.1-1.87c-.66-.66-1.25-1.39-1.87-2.09-.18-.2-.32-.44-.51-.63a14.19,14.19,0,0,1-2.22-3c-.26-.44-.15-.81.34-1.21.15.7,1,.93.82,1.72a.05.05,0,0,0,0,0c.4.35.81.69,1.34,1.13a2.81,2.81,0,0,0,.07-.71c-.14-.93-.29-1.85-.46-2.78a1.28,1.28,0,0,0-.24-.65,1,1,0,0,1,0-1.39,13.35,13.35,0,0,1,4.15-4.89.8.8,0,0,0,.35-.68c0-.63.49-.89.87-1.21a6,6,0,0,0,.81-.69c1.81-2.28,4.32-3.56,7-4.69.31-.14.6-.3.9-.47a6.79,6.79,0,0,1,3.42-.86,13.15,13.15,0,0,1,4.19.48c.15,0,.34,0,.44.13,1,1,2.55.88,3.67,1.7a6.5,6.5,0,0,0,1.54.53,28.15,28.15,0,0,1,6.68,3.59,16.57,16.57,0,0,1,2.69,2.87,4,4,0,0,1,.91,2.69,10.82,10.82,0,0,1-4.09,8.15,12.75,12.75,0,0,1-4,2.48,11.46,11.46,0,0,1-2.14.57,28.85,28.85,0,0,1-2.94.21,15.18,15.18,0,0,0-3.35.52,11.85,11.85,0,0,1-3.45.66c-1.41,0-2.82.13-4.23.11l-.29,0c-1.25-.27-2.48-.6-3.72-.94A4.75,4.75,0,0,1,182,169a13,13,0,0,1-2.11-2.78,9.67,9.67,0,0,1-.53-1.54,2.34,2.34,0,0,1,.51-2.28,34,34,0,0,1,2.8-2.83c.12-.1.15-.32.21-.48h0a2.62,2.62,0,0,1-3,.18c.28-.44.75-.37,1.17-.42a5,5,0,0,0,2.49-.69h0a5.66,5.66,0,0,0,1.26-.3c.38-.18.65-.59,1-.78,1.36-.7,2.74-1.35,4.12-2,.42-.2.84-.36,1.42-.61-.46-.35-.77-.56-1-.81a1.57,1.57,0,0,1-.48-.64c-.06-.16.08-.39.15-.67.58.38,1.08.68,1.54,1a2,2,0,0,0,1.86.38,22.63,22.63,0,0,1,2.49-.35,2,2,0,0,1,.11-.52c.29-.65.82-.72,1.24-.18l.64.84a2.74,2.74,0,0,0,1.52,1c.79.21,1.54.51,2.2.74l1.55-.78a3.21,3.21,0,0,1,.26.69,7.22,7.22,0,0,0,0,.81c.07.29.31.31.54.12h0l1.42,1.25L206,157c.07,0,.17.09.18.14a11,11,0,0,1,.15,1.27c0,.82-.07,1.64,0,2.45a2.4,2.4,0,0,1-.81,2.08l-.47.48-.18.12.16-.14c.23.17.3.4.11.61a4.06,4.06,0,0,1-.81.68,2.9,2.9,0,0,0-1.44,1.64l-.21-.94a.62.62,0,0,0-.87.29,9.24,9.24,0,0,1-.65,1,2.41,2.41,0,0,1-.55.38c-.39-.73.37-1,.43-1.66a12.86,12.86,0,0,0-3,1.2,2.14,2.14,0,0,1-.85.34c-1.45.13-2.9.16-4.35.32a8.49,8.49,0,0,1-3.46-.57c-.59-.19-1.17-.46-1.75-.69a1.66,1.66,0,0,1-1.18-1.79,6.57,6.57,0,0,1,1.37-3.72l0,0a26.18,26.18,0,0,1,3.55-1.59l.14.22-1.25,1.1c1.29.29,2.56-.17,3.76.54l-.67.71c.24.51.73.58,1.18.72a18.25,18.25,0,0,0,1.78.54,3.61,3.61,0,0,0,2.5-.26c.5-.28.5-.58.13-1a2.45,2.45,0,0,0-2.44-1.07,1.13,1.13,0,0,1-1.16-.42l.74-.7c0-.12-.09-.3-.16-.5.8-.71,1.47,0,2.12.26a6.47,6.47,0,0,1,1.27.95c.46-.31.61-.9,1.3-1a4.24,4.24,0,0,1-.72,3.63,4.33,4.33,0,0,1-4.2,1.31,2.58,2.58,0,0,0-1.38,0c-.76.24-1.34-.27-1.94-.62-.44-.25-.83-.58-1.28-.83-.7-.4-1.42-.76-2.24-1.19a3.88,3.88,0,0,0-.42.56,2.91,2.91,0,0,0-.21.67c-.39,1.54-.26,1.73,1.16,2.45a17.12,17.12,0,0,0,3.07,1,6.86,6.86,0,0,0,5.13-.57,1,1,0,0,1,.35-.05l0,0-.24.48-.07,0,.08,0,1.44-.71,0,0,.49-.26,0,0a35.54,35.54,0,0,0,4.33-1.79c1.06-.66,1.23-1,.9-2.2a3.26,3.26,0,0,1-.22-.78,2.71,2.71,0,0,0-1.61-2.26c-.63-.37-1.2-.84-1.83-1.22a9.14,9.14,0,0,0-1.55-.81c-1-.38-2.08-.72-3.13-1a1.21,1.21,0,0,0-.77.08,3.35,3.35,0,0,1-2.41.18c-.71-.23-1.28.27-1.88.51-1.22.5-2.4,1.12-3.61,1.65a9.79,9.79,0,0,0-2.15,1.34c-.77.59-1.55,1.2-2.28,1.84s-1.36,1.29-2,2a2,2,0,0,0-.3,2.59,22.33,22.33,0,0,0,1.27,1.84Z"/><path class="cls-1" d="M211,149.89l-1.3-1.35a12.4,12.4,0,0,1,4.26,2.64c1.16,1.06,2.4,2.06,3.46,3.24v0a2.58,2.58,0,0,1,.73,2,1.23,1.23,0,0,0,0,.47c.72,2,.43,4.16.34,6.26,0,.45,0,.94-.59,1.19-.46-.38-.27-1-.53-1.52a6.27,6.27,0,0,0-1,1.87,9.24,9.24,0,0,1-1.87,3.49c-.39.48-.66,1.06-1.09,1.51a11,11,0,0,1-4.83,3.18c-1.92.58-3.89.94-5.81,1.46-.64.17-1.31.25-2,.38v0c.49-.67,1.33-.54,2-.85l-.87-.51c.11-.15.15-.29.24-.32a.85.85,0,0,1,.45-.06c1.73.25,3.33-.41,5-.69a.78.78,0,0,0,.3-.18,1.4,1.4,0,0,0,.16-.22l-1.42-.3a.84.84,0,0,1,.91-.51,8.72,8.72,0,0,0,3.49-1,3.51,3.51,0,0,0,1.71-1.56,2.58,2.58,0,0,1,.43-.7c1-.82,1.27-2.05,1.78-3.15a4.51,4.51,0,0,1,.29-.63,8,8,0,0,0,1-5.09c0-.62-.23-1.23-.3-1.84a6.66,6.66,0,0,1-.06-1.41,1.24,1.24,0,0,0-.29-1.09c-.81-.72-1.64-1.4-2.6-2.21,0,.87.29,1.57-.19,2.31a5.35,5.35,0,0,1-.48-.53,22.8,22.8,0,0,1-1.31-2.09,2.11,2.11,0,0,0-1.61-1.21,13.11,13.11,0,0,1-4-1.83,7.63,7.63,0,0,1-.67-.49c0-.28.18-.59.09-.76s-.42-.3-.67-.39l-3.51-1.31-3.28-1.28a3.6,3.6,0,0,1-.52-.26c-.67-.41-1.31-.86-2-1.21a6,6,0,0,0-1.36-.35c-.25-.05-.5-.07-.95-.14a2.67,2.67,0,0,1,2.18-.38c1.37.32,2.72.73,4,1.18.69.23,1.33.64,2,.93A10.15,10.15,0,0,0,202,145l-.51-.94c.24-.36.5-.35.73-.13s.41.48.61.71a4.8,4.8,0,0,0,2.58,1.67,2.57,2.57,0,0,1,1.39,1,4,4,0,0,0,1.15,1.11,27.65,27.65,0,0,0,2.53,1.46,1.37,1.37,0,0,0,.58.05Z"/><path class="cls-1" d="M178.16,151.77a3.12,3.12,0,0,1-.41.79,10.49,10.49,0,0,1-1.48,1.35,47.43,47.43,0,0,0-4.24,3.9,15.53,15.53,0,0,1-2.09,1.72,2.7,2.7,0,0,0-1.45,3c.17.84.33,1.68.54,2.51.06.24.33.42.44.66a1.24,1.24,0,0,1,.18.75c-.08.27-.3.63-.52.68s-.55-.21-.75-.41a1.49,1.49,0,0,1-.4-.71c-.28-1.38-.84-2.72-.63-4.17a5.35,5.35,0,0,0,0-.69,1.59,1.59,0,0,1,0-.58A30.54,30.54,0,0,1,169,157.4a9,9,0,0,1,1.72-1.59c.35-.3.73-.56,1.12-.86.09,1-.85,1.7-1.07,2.93.88-.86,1.61-1.48,2.23-2.2a15.78,15.78,0,0,1,2.7-2.27c.78-.58,1.62-1.09,2.44-1.62Zm-9.23,7.29a1.46,1.46,0,0,0,1.39-.74.82.82,0,0,0-.19-1.13l-1.2,1.87"/><path class="cls-1" d="M178.18,151.79a14.34,14.34,0,0,1,1.74-2.75c.75-.8,1.45-1.64,2.15-2.48a14.18,14.18,0,0,1,3.61-3,7.2,7.2,0,0,1,2.64-1.24c.52-.08.52-.09.79.61a5.62,5.62,0,0,1-.55.15,7.79,7.79,0,0,0-2.57,1,15.24,15.24,0,0,0-3.69,3.07,31.23,31.23,0,0,0-3.12,3.66,4.74,4.74,0,0,1-1,.91Z"/><path class="cls-1" d="M197.81,165.27a4.49,4.49,0,0,1,.54-.53c.36-.26.55-.07.64.29h0l-1.2.23Z"/><path class="cls-1" d="M203.9,156.07a.88.88,0,0,1-.09-.2,1.08,1.08,0,0,1,0-.31c.06,0,.18,0,.18,0a.76.76,0,0,1,0,.3.71.71,0,0,1-.12.2l0,0"/><path class="cls-1" d="M200.89,174.72l-.39.19c0-.06,0-.11,0-.17h.44Z"/><polygon class="cls-1" points="208.84 147.69 208.84 147.61 208.92 147.65 208.84 147.69"/><path class="cls-1" d="M209.41,148.21l0,0Z"/><path class="cls-1" d="M209.39,148.23l.1.1-.07,0a.31.31,0,0,1,0-.1Z"/><polyline class="cls-1" points="217.45 154.42 217.46 154.37 217.45 154.4 217.45 154.42"/><path class="cls-1" d="M199.48,164.78l-.12-.09s.06,0,.07,0,0,.06,0,.09Z"/><path class="cls-1" d="M182.2,166.69l0,0Z"/><path class="cls-1" d="M179.15,92.75a1.88,1.88,0,0,1,.2.64,15.19,15.19,0,0,1-.33,2.79,24.51,24.51,0,0,1-1.27,3.64c-.48,1.11-1.12,2.15-1.71,3.21-.06.11-.23.17-.44.31a1.67,1.67,0,0,1,.12-1.49c.55-1,1.12-2.06,1.64-3.11.21-.42.3-.89.47-1.33s.33-.78.5-1.17a2,2,0,0,0,.21-.54c.11-.84.18-1.68.27-2.52,0-.14.08-.27.11-.41l.23,0"/><path class="cls-1" d="M179.24,92.2a.61.61,0,0,1-.25.06s-.08-.16-.07-.17a1.75,1.75,0,0,1,.24-.11,1.52,1.52,0,0,0,.08.22"/><path class="cls-1" d="M164.93,100l-.2,0,.18.07Z"/><path class="cls-1" d="M164.91,100l.09,0-.07,0Z"/><polyline class="cls-1" points="182.22 104.26 182.19 104.24 182.22 104.26"/><path class="cls-1" d="M148.08,153.9l-.11.21a1.5,1.5,0,0,1-.24-.18s.05-.13.08-.19l.27.16"/><path class="cls-1" d="M147.58,64.73a1.42,1.42,0,0,0,.37.89c.34.47.71.94,1,1.43s.46.9.75,1.33c.49.71.87,1.5,1.44,2.18.26.29.19.78.51,1.07A7.77,7.77,0,0,0,153,73.89a26.76,26.76,0,0,1,2.24,4.23,16.29,16.29,0,0,0,.92,2c.73,1.31,1.32,2.68,1.94,4,0,.1.07.2.12.3.19.32,0,.7.24,1a2.75,2.75,0,0,1,.29,1l.24,1.08c.07.36.13.72.19,1.08a17.62,17.62,0,0,0,.38,2,9,9,0,0,1,.16,3.06,1.63,1.63,0,0,1-1,1.46,6.92,6.92,0,0,1-1.52.59,3.39,3.39,0,0,1-1.64-.09c-.05,0-.12,0-.23.07a4.18,4.18,0,0,1,.14,2.35,1.71,1.71,0,0,0,.07.54,3.72,3.72,0,0,1-1.05,3.2c-.11.1-.22.19-.32.3a2.08,2.08,0,0,1-1.45.91,3.4,3.4,0,0,1-2.42-.51,9.87,9.87,0,0,1-2.42-2.53,2.64,2.64,0,0,0-.34-.41s-.06,0-.1,0c-.23.14-.2.38-.19.58a3.35,3.35,0,0,1-1.69,2.9.74.74,0,0,1-.4.19c-.94,0-1.91.24-2.74-.46a1.94,1.94,0,0,0-.69-.34,1.93,1.93,0,0,1-1.09-.87A3.56,3.56,0,0,0,140,101c-.29-.29-.59-.55-.88-.81-.09,0-.18,0-.21,0a2.36,2.36,0,0,1-2.07.8,2.53,2.53,0,0,0-.55,0,2.74,2.74,0,0,1-2.73-1.66,7.3,7.3,0,0,0-2.07-2.52,4.74,4.74,0,0,1-.77-.78c-1.07-1.25-2.26-2.39-3.22-3.74-.63-.9-1.31-1.77-1.88-2.7-.35-.57-.81-1-1.19-1.56-.26-.35-.54-.69-.8-1-.39-.53-.75-1.08-1.14-1.61A3.7,3.7,0,0,0,121,84.16a10.87,10.87,0,0,1-3.24-2.22,6.76,6.76,0,0,0-1.41-1,12,12,0,0,1-2.22-1.78,10.48,10.48,0,0,0-1.23-1.07,9,9,0,0,1-1-.88A15.72,15.72,0,0,0,110,75.57a4.57,4.57,0,0,1-1.06-.95c-.75-1-1.53-2-2.35-2.9a11.38,11.38,0,0,1-1.21-1.7,24,24,0,0,1-1.66-3,2.87,2.87,0,0,0-.2-.39,11.84,11.84,0,0,1-1.11-2,9,9,0,0,0-.89-1.64,3.14,3.14,0,0,1-.55-1.53,5.69,5.69,0,0,0-.37-1.15,7.63,7.63,0,0,0-1-2.09A5.63,5.63,0,0,1,99,57.06,1.45,1.45,0,0,0,97.8,56a2,2,0,0,1-.64-.17,27.39,27.39,0,0,0-4.32-1.27c-1.51-.35-3-.75-4.47-1.19a49.19,49.19,0,0,0-6.23-1.4c-2.07-.33-4.12-.72-6.18-1.11-2.6-.49-5.19-1-7.77-1.62a16.43,16.43,0,0,0-1.84-.31A18.94,18.94,0,0,1,62.71,48c-1.43-.45-2.84-1-4.25-1.52-.93-.34-1.85-.69-2.77-1.07a12.73,12.73,0,0,1-1.28-.64.49.49,0,0,1-.15-.68.48.48,0,0,1,.59-.15c.53.34,1.24.22,1.71.69a5.48,5.48,0,0,1,1.69.44l1.36.44,1.46.46c.7.21,1.37.49,2.09.65,1.11.23,2.14.73,3.28.87s2.18.34,3.26.55c1.27.23,2.52.52,3.78.76s2.58.56,3.88.77c2.32.37,4.62.86,6.94,1.2,1,.13,1.86.42,2.78.64a16.52,16.52,0,0,1,2.75.77,15.76,15.76,0,0,0,1.78.52l1.59.43c.43.11.86.21,1.27.35a21.7,21.7,0,0,1,2.36.91,7.89,7.89,0,0,0,1.59.72,1.14,1.14,0,0,1,.52.38,4.61,4.61,0,0,1,.89,1.24,2.35,2.35,0,0,0,.57.8,6.68,6.68,0,0,1,1.41,2.67,2.21,2.21,0,0,0,.21.5,9.52,9.52,0,0,1,1.55,3,.76.76,0,0,0,.08.21,7.19,7.19,0,0,1,.9,1.74c.68,1.38,1.58,2.62,2.32,4,.29.53.8,1,1.15,1.46s1,.91,1.26,1.61c.72.7,1.2,1.65,2.22,2a2.36,2.36,0,0,1,1.27,1.18c0,.09.12.21.21.24.63.2,1,.75,1.45,1.14s.84.82,1.27,1.22a7.05,7.05,0,0,0,.61.47,19.62,19.62,0,0,1,3.52,3.11,2,2,0,0,0,.48.43,9.86,9.86,0,0,1,1.9,1.51,4.58,4.58,0,0,0,.67.57A9.88,9.88,0,0,1,125,86.93a5.38,5.38,0,0,0,.59.56,4.6,4.6,0,0,0,1.86-.3.4.4,0,0,1,0,.53,1.33,1.33,0,0,1-1,.66c-.16,0-.23.38-.1.47a5.14,5.14,0,0,1,1.37,1.8,4.29,4.29,0,0,0,.91,1.08,4,4,0,0,1,.83,1,2.49,2.49,0,0,0,.88,1,.83.83,0,0,1,.36.4,6,6,0,0,0,.95,1.34q1.11,1.44,2.34,2.76a9.51,9.51,0,0,1,.89,1.12,2.17,2.17,0,0,0,2.48.69.6.6,0,0,0,.34-.39,6,6,0,0,0,.05-1.2.93.93,0,0,0-.25-.48c-.32-.39-.67-.77-1.05-1.2a1.44,1.44,0,0,1-1.18-.34,1.08,1.08,0,0,0-1.28-.27c-.08-.52.23-.55.46-.63a7.76,7.76,0,0,1,.8-.2c-.21-.25-.42-.48-.6-.73s-.4-.62-.63-.9a5.71,5.71,0,0,0-.68-.71,10.35,10.35,0,0,1-1.58-2.09c-.84-1.42-1.83-2.74-2.76-4.1-.41-.6-.75-1.26-1.16-1.86-.65-.93-1.34-1.84-2-2.76-.38-.53-.77-1.07-1.13-1.62a8.78,8.78,0,0,0-1.42-1.68,4.16,4.16,0,0,1-1.11-1.48c-.08-.19-.29-.32-.43-.48a.45.45,0,0,1,.19-.77,1.11,1.11,0,0,1,.54,0,6.75,6.75,0,0,1,.83.28,4.14,4.14,0,0,0,.7,1.59,15.82,15.82,0,0,0,.87,1.38,11.63,11.63,0,0,1,1.2,1.57,11.34,11.34,0,0,1,1.17,1.56,14.19,14.19,0,0,1,1.94,2.5c.32.44.65.86,1,1.31s.6.89.91,1.33.49.64.72,1a1.79,1.79,0,0,1,.33.68,2.42,2.42,0,0,0,.8,1.41,10.32,10.32,0,0,1,1.56,2.1,3,3,0,0,0,.49.59,7.15,7.15,0,0,1,.62.61c.24.32.36.76.65,1a5.69,5.69,0,0,1,.85.85c.33.39.57.85.86,1.27a15.64,15.64,0,0,0,2.33,2.73c.44.4.66,1,1.19,1.27.16.09.26.27.42.34a1.53,1.53,0,0,1,.85.64.83.83,0,0,0,.86.37c.36,0,.73,0,1.1,0a1.34,1.34,0,0,0,1.16-.87,4.48,4.48,0,0,0,.21-2.17,3.94,3.94,0,0,0-.89-2.2c-.81-1-1.52-2.14-2.26-3.22-.58-.84-1.15-1.69-1.73-2.52s-1.26-1.71-1.86-2.58c-.77-1.11-1.54-2.22-2.28-3.35s-1.6-2.11-2.3-3.22-1.71-2.29-2.53-3.47a5.87,5.87,0,0,0-.58-.65c-.33-.35-.67-.68-1-1a3.37,3.37,0,0,1-.39-.66.5.5,0,0,1,.21-.58.41.41,0,0,1,.51,0,2.27,2.27,0,0,1,.35.26,3.61,3.61,0,0,1,.33.44,10,10,0,0,0,1.69,1.81,2,2,0,0,1,.58.91,6.61,6.61,0,0,0,1.26,2.14c.92,1.14,1.85,2.28,2.73,3.45a26.42,26.42,0,0,0,1.59,2.22c.25.29.3.73.67,1s.36.66.69.94.47.87.85,1.24a4.48,4.48,0,0,1,.89,1.11c.46.92,1.29,1.59,1.69,2.54.07.15.26.25.38.39a7.07,7.07,0,0,1,1.13,1.46c.26.59.78,1,1.06,1.51a3,3,0,0,0,1,1.09,5.09,5.09,0,0,1,1.32,1.11c.34.48.92.74,1.14,1.31a1.14,1.14,0,0,0,.62.6c.1,0,.25.09.27.17.18.55.63.54,1.08.56a1.52,1.52,0,0,0,1.17-.5,2.27,2.27,0,0,0,.75-2.08,6.56,6.56,0,0,1,0-1,3.94,3.94,0,0,0-.32-2,1.24,1.24,0,0,1-.09-.52c0-.22,0-.44,0-.66a1.2,1.2,0,0,0-.36-1c-.45-.48-.86-1-1.27-1.52a.89.89,0,0,1-.2-.49,2,2,0,0,0-.46-1,7.28,7.28,0,0,1-.53-.83,3.3,3.3,0,0,0-.9-1.1,2.22,2.22,0,0,1-.54-.67c-.64-1.07-1.26-2.15-1.9-3.22-.2-.35-.44-.67-.65-1-.88-1.47-1.76-3-2.66-4.41-.37-.59-.8-1.13-1.19-1.71a25.3,25.3,0,0,0-2.36-3c-.15-.15-.22-.37-.36-.54s-.36-.55-.73-.64a1.57,1.57,0,0,1-.82-.69c-.57-.76-1.21-1.47-1.79-2.22a3.84,3.84,0,0,1-.73-1.24c.36-.36.68-.68,1.24-.59a1.1,1.1,0,0,1,1.06,1c.08.8.71,1.36.87,2.11a.3.3,0,0,0,.13.16c.56.23.77.77,1.1,1.2a14.37,14.37,0,0,0,2.26,2.54,3.35,3.35,0,0,1,.43.49c.92,1.31,1.76,2.67,2.71,4a16.23,16.23,0,0,1,1.9,3,.92.92,0,0,0,.16.27A6.51,6.51,0,0,1,150,87a3.09,3.09,0,0,0,.73,1.19,2.38,2.38,0,0,1,.4.49,17.45,17.45,0,0,1,1.4,2.36,5.44,5.44,0,0,0,.76,1.06c.43.55.9,1.07,1.27,1.65a3,3,0,0,0,2.23,1.2.8.8,0,0,0,.52-.13,2.25,2.25,0,0,0,1-1.73,9.61,9.61,0,0,0-.27-2.51,1.8,1.8,0,0,0-.08-.21c-.32-.65-.67-1.29-1-2a.83.83,0,0,0-.86-.55,2.57,2.57,0,0,0-2.15.91,6,6,0,0,0-.51,1.11c-.2.1-.31,0-.37-.22a1.13,1.13,0,0,1,.19-1,4,4,0,0,1,3-1.59c.32,0,.65,0,1,0a4.35,4.35,0,0,0-.07-.59c-.23-.69-.44-1.4-.72-2.07s-.64-1.48-1-2.19-.67-1.46-1-2.19a43.93,43.93,0,0,0-2.39-4.81c-.89-1.47-1.66-3-2.48-4.52-.52-1-1.1-1.9-1.69-2.82-.41-.65-.75-1.33-1.19-2a16.41,16.41,0,0,1-1-2.07c-.3-.59-.63-1.16-.94-1.75s-.74-1.32-1-2c.16-.22.3-.18.4-.06a14.65,14.65,0,0,1,1.9,2.62,18.91,18.91,0,0,1,3.6,2c.06,0,.11.12.18.13,1,.21,1.89,1,3,1a2.27,2.27,0,0,1,.62.24,1.4,1.4,0,0,0,1.36-.08,1.27,1.27,0,0,1,.52-.16,1,1,0,0,0,.64-.56.53.53,0,0,0-.16-.77l-1.6-1.15c-.38-.28-.76-.56-1.12-.87a1.41,1.41,0,0,1-.23-1.88c.17-.23.38-.43.57-.64a1,1,0,0,0-.63-.6,24,24,0,0,0-4-1.44,8.32,8.32,0,0,1-1.87-.66c-.92-.45-1.86-.87-2.81-1.26a9.14,9.14,0,0,1-2.35-1.4,2.65,2.65,0,0,0-1.09-.71,1.16,1.16,0,0,0-.18-.24s-.12,0-.18,0,0,.15.07.16a1.56,1.56,0,0,0,.31,0,6.92,6.92,0,0,0,1,1.67c.34.55.66,1.12,1,1.69a.21.21,0,0,1-.05.2c-.08.06-.21.15-.28.13a1.37,1.37,0,0,1-.56-.33c-.54-.69-1.21-1.25-1.75-2s-1-1.16-1.45-1.77c-.7-.94-1.36-1.91-2-2.9a5.36,5.36,0,0,0-.78-1.06,1.92,1.92,0,0,1-.4-.64,12.79,12.79,0,0,0-1.09-1.9,13.31,13.31,0,0,1-1.5-2.41.57.57,0,0,0-.19-.26c-.58-.38-1-1-1.67-1.24a1.43,1.43,0,0,1-.37-.23c-1-.92-2.33-1.53-3.38-2.44A1.33,1.33,0,0,1,127,40a4.49,4.49,0,0,0-2.89-1.4,4.48,4.48,0,0,1-.52-.16A15.85,15.85,0,0,1,120.15,37c-1.56-.56-3-1.43-4.49-2.09-.8-.34-1.55-.82-2.35-1.2-1.92-.91-3.85-1.82-5.85-2.54-1.45-.53-2.91-1-4.37-1.53a83,83,0,0,0-9.84-2.4c-4.5-.94-9-2-13.36-3.32-1.8-.54-3.55-1.19-5.33-1.8l-4.47-1.53c-.35-.12-.7-.23-1-.36-1.57-.62-3.15-1.24-4.7-1.89a18.13,18.13,0,0,1-2-1c-1.38-.75-2.74-1.55-4.12-2.3-.74-.41-1.52-.75-2.29-1.1a9.88,9.88,0,0,1-1.88-1.11,1.21,1.21,0,0,1-.2-.29,1.34,1.34,0,0,1,1.37-.12c.89.31,1.75.69,2.63,1.05.44.47,1.17.38,1.6.81s1.05.5,1.54.82A14.42,14.42,0,0,0,63.3,16.2a4.4,4.4,0,0,0,1.27.37,3.83,3.83,0,0,1,1.74.61,8.89,8.89,0,0,0,1,.46c.54.24,1.08.46,1.6.72,1.41.71,2.9,1.23,4.34,1.86,1.21.52,2.48.87,3.7,1.35.75.3,1.52.52,2.28.78,1,.33,2,.59,2.91.95.48.18,1,.23,1.47.38a27.58,27.58,0,0,0,3,.85c.94.18,1.86.41,2.78.63,1.53.36,3.08.63,4.61,1,1.71.41,3.44.69,5.15,1.09.43.1.84.25,1.26.37.11-.23-.09-.27-.18-.32-1.83-1-3.67-2-5.5-3-1.28-.72-2.51-1.51-3.8-2.22-1.1-.59-2.09-1.36-3.18-2-2.93-1.6-5.69-3.48-8.56-5.19-1.88-1.13-3.77-2.26-5.58-3.53-.51-.35-1-.75-1.48-1.12-.18-.13-.35-.28-.54-.39a34.49,34.49,0,0,1-3.26-2.39c-.15-.11-.31-.19-.46-.3a3.45,3.45,0,0,1-.72-.51c-.77-.85-1.77-1.43-2.57-2.24a14.8,14.8,0,0,1-1.8-1.91,6.32,6.32,0,0,1-1.4-1.38,3.92,3.92,0,0,1-.53-.83c0-.07,0-.19,0-.29s.11,0,.13,0l1.37,1.24a11.8,11.8,0,0,1,1,1c.2.24.61.33.58.75,0,0,.14.12.23.17s.35.15.45.28c.58.72,1.46,1.07,2.08,1.74.57.06.72.69,1.23.88a5.23,5.23,0,0,1,1.17.81l1.21.93A1.26,1.26,0,0,0,70.5,8a5,5,0,0,1,1,.56,5.67,5.67,0,0,0,.93.57c.9.56,1.79,1.13,2.68,1.7.59.37,1.16.78,1.76,1.13a7.8,7.8,0,0,0,1.35.87,7.79,7.79,0,0,1,1.44.79c.47.29.91.6,1.38.9s.93.58,1.4.85a44.1,44.1,0,0,1,3.81,2.38c.8.19,1.32.9,2.09,1.14.46.49,1.13.63,1.63,1.05s1,.39,1.36.89a6.65,6.65,0,0,1,1.53.83c.47.28,1,.5,1.46.76a3.14,3.14,0,0,1,.66.4,7.12,7.12,0,0,0,1.59,1q1.06.52,2.1,1.11c.67.38,1.31.8,2,1.18s1.34.76,2,1.14a3.67,3.67,0,0,1,.82.55,18.25,18.25,0,0,0,2.18,1.44c.16.12.43.06.62.15,1.17.53,2.42.84,3.56,1.45.74.39,1.54.67,2.28,1.07a27.57,27.57,0,0,1,3,1.55,11.18,11.18,0,0,0,1.47.73c.48.25.93.57,1.43.8a5.49,5.49,0,0,0,1.57.73,1.07,1.07,0,0,1,.49.24,33.44,33.44,0,0,0,2.92,1.67.83.83,0,0,0,.51.1,2.37,2.37,0,0,1,1.57.35c.38.21.86.22,1.16.58.62,0,1,.44,1.52.72a15.42,15.42,0,0,1,2.73,2c.21.2.45.37.67.55.4.32.78.65,1.19,1a9.07,9.07,0,0,0,.83.54.84.84,0,0,1,.47.57,1.47,1.47,0,0,0,.47.72c.47.51.89,1.07,1.36,1.58a6.58,6.58,0,0,0,1.77,1.47.47.47,0,0,1,.18.12A13.48,13.48,0,0,0,140,49.42c.32.24.69.42,1,.63.1.05.18.14.28.16,1,.21,1.83.86,2.82,1.15a9.32,9.32,0,0,1,2.61,1.15,6.12,6.12,0,0,0,1.18.57,7.91,7.91,0,0,1,2.82,2.21,6.22,6.22,0,0,0,1.79,1.56,2.6,2.6,0,0,1,.89,1.08,1.05,1.05,0,0,0,.48.69c.35.26.69.55,1,.83s.73.61,1.1.9a8.92,8.92,0,0,1,1.05.78,3.66,3.66,0,0,0,.93.52l-.05.06,0-.09a2.23,2.23,0,0,1,1.15.56,1.26,1.26,0,0,1,.4.73,1.36,1.36,0,0,1-.11.74,1.77,1.77,0,0,1-1,1.11,2.5,2.5,0,0,0-.73.48,11.88,11.88,0,0,1-1.61,1.12,3.67,3.67,0,0,1-2.62.5,1,1,0,0,1-.43-.08,7.14,7.14,0,0,0-2.08-.62,6.77,6.77,0,0,1-2.77-1.22.59.59,0,0,0-.6-.19c-.19-.4-.19-.4-.59-.56l.61.54M150,56.49a1.21,1.21,0,0,0-.09-.44,14.59,14.59,0,0,0-2.28-2,1.35,1.35,0,0,0-.41-.16,5.72,5.72,0,0,1-1.59-.73,4.69,4.69,0,0,0-1.29-.57c-1.31-.46-2.54-1.11-3.81-1.69A11.14,11.14,0,0,1,138,49.29a.27.27,0,0,0-.43,0c.11.19.17.46.4.57A6.08,6.08,0,0,1,139.46,51c.43.42,1.06.62,1.48,1.08.8.24,1.23,1,2,1.34a4.65,4.65,0,0,0,2,1.13,24.76,24.76,0,0,1,2.3,1c.68.37,1.42.56,2.12.88a2,2,0,0,0,.69,0m6.45,7.58c.44,0,.87.07,1.3.12a.58.58,0,0,0,.56-.27.69.69,0,0,0,.11-.73c-.26-.17-.54-.34-.8-.53-.5-.37-1-.76-1.49-1.12s-1.25-.89-1.88-1.33a1.84,1.84,0,0,0-.36-.15c-.46.43-.27.91-.27,1.33a14.65,14.65,0,0,0,3,2.19c-.08.2-.14.36-.2.49"/><path class="cls-1" d="M150.81,94.76a13,13,0,0,0-1.27.5c-.32.16-.61.4-.92.58a.33.33,0,0,1-.29,0,.33.33,0,0,1,0-.28,1.47,1.47,0,0,1,.8-.73c.51-.27,1-.51,1.58-.74a1.11,1.11,0,0,1,1.47.35,2.72,2.72,0,0,1,.8,1.29,1.12,1.12,0,0,0,.28.46,1.62,1.62,0,0,1,.26,1.65s-.09.14-.14.14-.25,0-.28-.09a6,6,0,0,1-.51-1,6.32,6.32,0,0,0-1.09-1.62,2.87,2.87,0,0,0-.65-.51"/><path class="cls-1" d="M151,75.15v.74c-.43.06-.79-.37-1.26-.15A4.12,4.12,0,0,0,148.05,77c-.18.23-.36.46-.55.67a.21.21,0,0,1-.2,0,.58.58,0,0,1-.18-.25.31.31,0,0,1,0-.21,3.85,3.85,0,0,1,.51-.83A5.17,5.17,0,0,1,149.76,75c.54-.17.55-.16,1.22.24"/><path class="cls-1" d="M141.84,97.53a3.15,3.15,0,0,1,1.9-.72,4.2,4.2,0,0,0,.7.55c.57.28.77.84,1.09,1.31.08.12,0,.34,0,.63a5.83,5.83,0,0,1-.6-.42c-.3-.26-.59-.54-.87-.83a1.19,1.19,0,0,0-1.47-.36.87.87,0,0,1-.42,0c-.09,0-.17-.1-.32-.21"/><path class="cls-1" d="M212.26,62a.88.88,0,0,1,.45.77,5.93,5.93,0,0,0,.22,1.39.45.45,0,0,1-.21.64.66.66,0,0,1-.82-.34,2.61,2.61,0,0,1-.13-.74,3.2,3.2,0,0,1,.49-1.72"/><path class="cls-1" d="M116.5,77.51c.16-.24.3-.37.62-.16s.93.51,1.39.77a1.17,1.17,0,0,1,.42.33A.72.72,0,0,1,119,79a.37.37,0,0,1-.48.13,3.43,3.43,0,0,1-1.63-.83,1.57,1.57,0,0,1-.4-.75"/><path class="cls-1" d="M143.77,82.58a1.6,1.6,0,0,1-.24.47,8.9,8.9,0,0,0-1.17,1.57,2,2,0,0,1-.92.75.4.4,0,0,1-.29-.07.24.24,0,0,1,0-.37,3.2,3.2,0,0,0,1-1.26,1.85,1.85,0,0,1,.76-.76c.25-.14.48-.3.72-.45l.13.12"/><path class="cls-1" d="M133.94,74.44a.4.4,0,0,1,0-.16c.33-.64.52-.67.89-.14a1.92,1.92,0,0,1,.13.17,1,1,0,0,0,.75.7c.12,0,.1.3,0,.36a1,1,0,0,1-1.43-.31,6.07,6.07,0,0,1-.36-.62"/><path class="cls-1" d="M140.29,68.16c0,.1.09.17.08.23a1.67,1.67,0,0,0,.36,1.5.36.36,0,0,1-.27.56,2.09,2.09,0,0,1-.43,0,.49.49,0,0,1-.41-.45,7.58,7.58,0,0,1,0-1.17.73.73,0,0,1,.62-.63"/><path class="cls-1" d="M142.79,81.37a3,3,0,0,1-2.06,1.91c-.14.06-.35,0-.53,0a.24.24,0,0,1-.11-.16.25.25,0,0,1,0-.2.85.85,0,0,1,.38-.19,2.14,2.14,0,0,0,1.57-.91,2.83,2.83,0,0,1,.48-.43s.13,0,.22,0"/><path class="cls-1" d="M215.26,65.72a.24.24,0,0,1-.33.18c-.11-.07-.28-.17-.29-.28a9.1,9.1,0,0,1-.13-1.28c0-.07.1-.16.17-.21a.22.22,0,0,1,.19.07,1.32,1.32,0,0,1,.27.45c.07.35.08.71.12,1.07"/><path class="cls-1" d="M134.32,85.07a8.45,8.45,0,0,1-.68.66,3,3,0,0,1-.75.4c-.21.09-.49,0-.44-.14a.58.58,0,0,1,.26-.31c.39-.14.61-.51.93-.73s.32-.12.68.12"/><path class="cls-1" d="M148.48,79.12c.64-.47,1-.94,1.8-.9-.3.29-.51.47-.69.68s-.36.45-.53.67c-.33,0-.23-.33-.58-.45"/><path class="cls-1" d="M261,72.3l-.07.07s0-.06,0-.09.05,0,.07-.07l0,.09"/><path class="cls-1" d="M279.35,212.28c-.94-.38-1.78-.76-2.66-1.05a5.34,5.34,0,0,1-2.22-1.64c-.67-.76-1.31-1.54-1.94-2.34a5.84,5.84,0,0,1-.61-1c-.23-.48-.26-.32.1-1.41a.81.81,0,0,1,.27,0c.25.13.41.37.78.23a3.69,3.69,0,0,1,2.71.11,14.9,14.9,0,0,0,2.51.52c.14-.38-.13-.59-.25-.84-.32-.71-.69-1.4-1-2.11a12.25,12.25,0,0,1-1-4.54,1.61,1.61,0,0,1,2.39-1.71,8,8,0,0,1,2.48,1.19,6.17,6.17,0,0,0,1.67.81c.06-.15.14-.25.13-.32-.27-1.19-.57-2.37-.82-3.56a5.88,5.88,0,0,1,0-2.47c0-.16.21-.3.34-.47a11.7,11.7,0,0,1,4.87,4.91c.06.14.29.22.43.32a3.67,3.67,0,0,0,.93-1.37,14.4,14.4,0,0,1,1.56-2.31c.28-.33.49-.72.74-1.08.14-.2.25-.46.45-.57a2.49,2.49,0,0,0,1.1-1.33c0-.12.2-.2.32-.27a2.85,2.85,0,0,1,.42-.16,2.6,2.6,0,0,0,.58,1.16c.78.88,1.54,1.77,2.25,2.71.43.58.73,1.26,1.12,1.87a4.88,4.88,0,0,0,.59.7c.25-.29.45-.49.61-.72a11.09,11.09,0,0,1,3.13-3.05,2.87,2.87,0,0,1,.4-.18.48.48,0,0,1,.56.35q.12,1.82.21,3.63c0,.59,0,1.17.06,1.87.3-.1.52-.15.73-.24l3.55-1.41a3.68,3.68,0,0,1,.57-.15c.6-.13,1,.12,1,.73a16,16,0,0,1-.19,4.21c.38.31.69.13,1,0l2.2-1.18a4,4,0,0,1,.68-.26.61.61,0,0,1,.77.48,3,3,0,0,1-.09,1.88c-.58,1.29-1.25,2.55-1.89,3.81a6.65,6.65,0,0,1-.47.77c.41.41,1.11,0,1.45.54a3.52,3.52,0,0,1,1.43.2,11,11,0,0,0,1.61.27,2.29,2.29,0,0,1-.05.63,4.64,4.64,0,0,1-2.06,2.41,14.08,14.08,0,0,0-1.34.88,16.63,16.63,0,0,1-3.39,1.72c-1,.35-1.94.64-2.95,1v1.52c-.59.49-1.11.94-1.64,1.36a9.24,9.24,0,0,1-7.71,2,6.36,6.36,0,0,1-2.43-1.32,1.22,1.22,0,0,1-.29-.5c-.23-.48-.45-1-.68-1.47-.51.32-1,.66-1.58,1a5.44,5.44,0,0,1-2.67.71,33.62,33.62,0,0,1-4.26,0,7.62,7.62,0,0,1-3.39-.81,3.17,3.17,0,0,0-.84-.26,5.2,5.2,0,0,1-1-.3,3,3,0,0,0-1.55-.36.91.91,0,0,1-.44,0c-.21-.1-.48-.24-.55-.42a.75.75,0,0,1,.19-.65,13.46,13.46,0,0,1,2.82-2.33,2.29,2.29,0,0,0,.28-.25M303,204.22l0,0a1.23,1.23,0,0,1-.1.43c-.76,1.19-1.54,2.37-2.32,3.55-.65,1-1.33,1.91-2,2.87a.34.34,0,0,0,.51,0c.78-.6,1.55-1.2,2.31-1.81a6.29,6.29,0,0,0,1-.89,23.38,23.38,0,0,1,2.11-2.23c.14-.13.33-.26.38-.43a6.48,6.48,0,0,1,1.36-2.06,6.45,6.45,0,0,0,.49-.89,6.66,6.66,0,0,0,.79-4.37c0-.18.08-.38.09-.58a.43.43,0,0,0-.58-.44c-.83.3-1.65.63-2.48.92a5.72,5.72,0,0,0-1.68.87,6.09,6.09,0,0,1-1.94,1,4,4,0,0,0-1.74,1.13c0,.85-.1,1.71,0,2.59a14.78,14.78,0,0,1,0,2.49,6.88,6.88,0,0,1-.91,2.92,1.82,1.82,0,0,0-.37,1,.77.77,0,0,0,.76-.46c.54-.82,1.06-1.64,1.53-2.5a13.09,13.09,0,0,1,2.5-3c.09-.09.26-.07.4-.1m-12.39-.89,0,0a3.69,3.69,0,0,1,.21.84,5.67,5.67,0,0,0,.92,2.88,14.46,14.46,0,0,0,2.61,3.82.21.21,0,0,1,.05.13c0,.48.43.51.74.55a1.54,1.54,0,0,0,1.72-1.21,2.62,2.62,0,0,1,.11-.57,10.37,10.37,0,0,0,.78-4.44,24.38,24.38,0,0,0-.71-6.69,9.24,9.24,0,0,0-1-2.26c-.76-1.3-1.56-2.58-2.23-3.94a6.5,6.5,0,0,0-.54-.86.54.54,0,0,0-.67,0,1.23,1.23,0,0,0-.26.34,3,3,0,0,1-1.43,1.59,1.9,1.9,0,0,0-.69.74,13.56,13.56,0,0,0-1.8,4,11.34,11.34,0,0,1-.77,2.21c-.88,1.67-.67,3.51-.86,5.28a4.47,4.47,0,0,0,.24,1.14c.11.61.58,1,.88,1.5.89,1.52,2.48,2.12,3.92,2.9a.78.78,0,0,0,.43,0c.21,0,.51,0,.55-.23a10.45,10.45,0,0,1-1.21-1.88c-.2-.56-.53-1-.75-1.57a5,5,0,0,1-.61-3.36c.09-.32,0-.69.36-.92M277,197.21a1.87,1.87,0,0,0-.13,1.39c.31.76.58,1.53.92,2.27a9.56,9.56,0,0,0,2,3.46,1,1,0,0,1,.27.34c.63,1.57,2,2.6,2.87,4a.53.53,0,0,0,.22.2c1,.46,1.59,1.64,2.89,1.53.1,0,.21.18.32.27.36.28.36.28,1.21,0a3.91,3.91,0,0,0-.74-.73,9.63,9.63,0,0,1-2.45-2.27c-.42-.48-.87-.93-1.25-1.44a3.21,3.21,0,0,1-.69-1.89c.17,0,.29,0,.33.07.49.67,1,1.34,1.44,2a6.37,6.37,0,0,0,1.56,1.06c-.67-.94-.25-1.74-.19-2.55s.1-1.35.15-2a2.27,2.27,0,0,1-1.13-.73,14,14,0,0,0-7.61-5m6,17.15c.52-.15.71-.22.9-.25s.68-.05,1-.06a7,7,0,0,0,1.3,0,44.25,44.25,0,0,0,4.76-1.21c0-.09,0-.15-.08-.18a2.93,2.93,0,0,0-2.34-.57,7,7,0,0,1-3.48-.17,1.82,1.82,0,0,0-1.15.07,11.66,11.66,0,0,1-2.42.56,1.61,1.61,0,0,0-.68.25c-.59.34-1.17.7-1.73,1.08-.27.18-.59.36-.48.8,1.16.4,2.3.84,3.46,1.19a9.7,9.7,0,0,0,2.56.59c1.65,0,3.31-.09,5-.19a2.82,2.82,0,0,0,1.94-.93c.69-.74,1.4-1.46,2.24-2.34a35.54,35.54,0,0,0-4.16,1,17.81,17.81,0,0,1-4,.76,12.93,12.93,0,0,1-1.76,0,4.54,4.54,0,0,1-.83-.32m12.25-1.66a1.73,1.73,0,0,0-.39.18,3.47,3.47,0,0,0-.66,3.9,2.1,2.1,0,0,0,.69.73,4.31,4.31,0,0,0,2.36.72c.68,0,1.36,0,2.05,0a3.45,3.45,0,0,0,1.55-.38c.85-.4,1.68-.82,2.5-1.24.31-.16.64-.32.62-.74s-.39-.39-.57-.59a3.68,3.68,0,0,0-2.11-1.23,1,1,0,0,1-.81-.57,1.32,1.32,0,0,0-.9-.71c-.84-.25-1.69-.46-2.54-.69a.41.41,0,0,0-.29,0c-.15.11-.35.22-.4.37a.71.71,0,0,0,.11.54.93.93,0,0,0,.46.34c.86.34,1.54,1,2.42,1.33a.42.42,0,0,1,.22.63c-.42-.08-.86-.14-1.28-.25a3.81,3.81,0,0,1-.8-.35,4.3,4.3,0,0,1-2.23-2m18.41-4a5.45,5.45,0,0,1-1-.16,10.74,10.74,0,0,0-4-.63,7.92,7.92,0,0,0-2.47.2,4.41,4.41,0,0,1-1.16.09l-.87.06c-.66.66-1.22,1.2-1.76,1.76-.08.08-.08.23-.12.35a1.06,1.06,0,0,0,.32.13,16,16,0,0,0,5.19-.74,3.8,3.8,0,0,1,2.28-.16c-.25.17-.36.3-.49.32a9.86,9.86,0,0,0-2.65.84,1,1,0,0,1-.42.11c-1.52,0-3,.48-4.52.38-.25,0-.58-.14-.77.17,0,.06,0,.12.06.14.86.45,1.72.9,2.58,1.33a1.57,1.57,0,0,0,.58.07,10.1,10.1,0,0,0,5-1c1.25-.56,2.36-1.36,3.56-2a1.79,1.79,0,0,0,.46-.36.75.75,0,0,0,.21-.84m-40.28-2.66a4.87,4.87,0,0,0,1.41,2,2.5,2.5,0,0,1,.67.57,4.27,4.27,0,0,0,2.38,1.81c.21.08.26.34.56.38a17.25,17.25,0,0,1,2.13.48,3.17,3.17,0,0,0,2.46-.37c0-.09,0-.22-.09-.27a19.4,19.4,0,0,1-2.82-3,2,2,0,0,0-1.37-.74c-.58-.08-1.16-.19-1.73-.32-.76-.18-1.51-.39-2.26-.59a1.65,1.65,0,0,0-1.34,0m38.5-5.07c-1.21.54-2.36,1-3.49,1.57a1.83,1.83,0,0,0-.8.61,40.33,40.33,0,0,1-2.47,4s.14.27.22.27a6.56,6.56,0,0,0,1.17-.06c.86-.14,1.71-.31,2.7-.5a4.93,4.93,0,0,0,1.64-2.38,8.65,8.65,0,0,1,.43-.93c.24-.53.49-1.06.7-1.61a.84.84,0,0,0-.1-.93m-29.13-8.23a7.71,7.71,0,0,0,.11,1.21c.54,1.87,1.1,3.72,1.66,5.58.26.89.62,1.21,1.77,1.5a8.29,8.29,0,0,1,.62-1.27,2.8,2.8,0,0,0,.53-1.75,5.3,5.3,0,0,1-1.16-1.5,8.57,8.57,0,0,0-1.31-1.9,27.83,27.83,0,0,0-2.22-1.87m19.21.14c-1.81,1.19-2.71,2.82-3.9,4.29.85.88.55,2.13,1.12,3.19.43-.26.84-.51,1.26-.74s.85-.44,1.35-.69c.11-1.93.15-3.86.17-6.05"/><path class="cls-1" d="M295.72,210.14a.59.59,0,0,1-.39-.62,11.69,11.69,0,0,1,0-1.45,12,12,0,0,0-.14-2.47,17,17,0,0,1-.07-2,.35.35,0,0,1,.38-.35c.23.93.07,2,.57,2.83-.08,1.2.24,2.42-.11,3.61a2.12,2.12,0,0,1-.25.47"/><path class="cls-1" d="M295,202.28l-.08.06s-.06-.09-.05-.1l.13-.08Z"/><path class="cls-1" d="M290.65,203.33l0,0Z"/><path class="cls-1" d="M303,204.22c.06-.14.11-.29.17-.43h0a.31.31,0,0,1-.17.4Z"/><polygon class="cls-1" points="303.21 203.79 303.26 203.83 303.18 203.78 303.21 203.79"/><path class="cls-1" d="M282,203.11a3.74,3.74,0,0,1,.27.31c0,.05-.06.15-.1.22s-.09,0-.12,0c-.19-.13-.21-.29,0-.49"/><path class="cls-1" d="M139.6,177.56l1.11-.8c.27.59.49,1.13.76,1.65a1.37,1.37,0,0,1,.08,1.41.84.84,0,0,0,.37,1.19,5.57,5.57,0,0,0,1.8.62,14.08,14.08,0,0,1,3.14.56,3.42,3.42,0,0,1,1.37.86,5.75,5.75,0,0,0,1.26.8c.25.16.52.29.75.47a9,9,0,0,0,.93.58,10.82,10.82,0,0,1,1.39,1.08,4.39,4.39,0,0,1,1.4,2.09c.23.64.49,1.27.71,1.91a3.75,3.75,0,0,1,.22.86,23.07,23.07,0,0,1,.17,4.07,2.8,2.8,0,0,0,0,.5c.22,1.92.09,3.84.12,5.75,0,1.05-.14,2.09,0,3.15a3.77,3.77,0,0,1-.11.87,2.56,2.56,0,0,0,0,1.26,1.53,1.53,0,0,1-.37,1.55,8.7,8.7,0,0,1-1.33,1.38c-.55.42-1,.91-1.51,1.37a3.65,3.65,0,0,1-1,.73c-.6.23-1.14.57-1.71.85a9.59,9.59,0,0,1-4.54,1.12c-.69,0-1.37,0-2.05,0a6,6,0,0,0-1.4.17,7,7,0,0,1-1.64.2,9,9,0,0,1-4.12-.7c-1.14-.49-2.33-.83-3.48-1.28a11.53,11.53,0,0,1-1.33-.74c-.08,0-.17-.1-.19-.17-.27-.94-1.09-1.6-1.18-2.64a22.46,22.46,0,0,0-.54-2.37,16.15,16.15,0,0,1-.42-2.87,18.09,18.09,0,0,1,0-2.55,1.68,1.68,0,0,0,0-.63,14.62,14.62,0,0,1-.27-3.79,9,9,0,0,0-.15-1.27c-.17-1.26-.36-2.53-.52-3.79a13.19,13.19,0,0,1-.05-1.4,1.59,1.59,0,0,1,.33-1,9.07,9.07,0,0,1,4.12-3.5,8.66,8.66,0,0,0,1.44-.83,14.43,14.43,0,0,0,2.71-1.91,2.86,2.86,0,0,1,1.61-.7c.71-.12,1.41-.31,2.11-.49.46-.12.76-.37.69-.91a4.72,4.72,0,0,1,.05-.64,1.9,1.9,0,0,0-.41-1.55,2.21,2.21,0,0,1-.26-.6m-10.83,14.29-.06,0h.09a1.24,1.24,0,0,0-.06.49c.26.94.15,1.94.45,2.88a1.6,1.6,0,0,1,.05.49,21.17,21.17,0,0,0,.2,3.28,10.49,10.49,0,0,1,.15,1.77c0,.68,0,1.36.08,2a7.88,7.88,0,0,0,.27,2.11c.16.48.26,1,.41,1.46a2.27,2.27,0,0,1,.14,1.38,1.31,1.31,0,0,0,.2,1.09c.08.15.26.26.3.41a2.52,2.52,0,0,0,1.79,1.66c1.39.54,2.82,1,4.25,1.36a4.41,4.41,0,0,0,.89.09c1.41,0,2.82,0,4.23,0a21.68,21.68,0,0,1,2.28,0,7.54,7.54,0,0,0,4.77-1.08,3.75,3.75,0,0,1,.68-.37,4.7,4.7,0,0,0,2-1.36,3.94,3.94,0,0,1,.47-.44,2.55,2.55,0,0,0,1-2.11c0-1,0-2,0-3.07a13.54,13.54,0,0,1,.2-3.42,2.16,2.16,0,0,0,0-.51c.12-2.64,0-5.28.29-7.91,0-.26.11-.6-.25-.86a11.28,11.28,0,0,0-1.1.55,6.54,6.54,0,0,1-3.78.91,3.12,3.12,0,0,0-1.37.23,12,12,0,0,1-5.11,1h-4.1a16.2,16.2,0,0,1-3.18-.27c-.75-.14-1.5-.29-2.24-.48a9.39,9.39,0,0,1-3.24-1.16.71.71,0,0,0-.72-.12m10.29-9.49a11.52,11.52,0,0,1-1.29.39,6.52,6.52,0,0,0-2.4,1.12c-1.19.75-2.26,1.67-3.51,2.32a12,12,0,0,0-1.7,1.14,5.16,5.16,0,0,0-1,1,1.13,1.13,0,0,0-.28,1.11,6.94,6.94,0,0,0,.62.56,7.37,7.37,0,0,0,2.32,1.3c1.14.32,2.32.49,3.44.88a1.21,1.21,0,0,0,.38.06c.85.05,1.7.11,2.55.13,1.58,0,3.15.07,4.73,0a10.82,10.82,0,0,0,4.64-.68.92.92,0,0,1,.37-.09,20.69,20.69,0,0,0,3.94-1.07,6.39,6.39,0,0,0,.64-.3,5.3,5.3,0,0,0,.19-.93,1.57,1.57,0,0,0-.11-.87,6.81,6.81,0,0,0-1.55-2c-.55-.45-1.22-.77-1.76-1.24a6.94,6.94,0,0,0-1.47-1,3.31,3.31,0,0,1-.61-.45,5.76,5.76,0,0,0-3.1-1.37.33.33,0,0,0-.35.5.79.79,0,0,1-.24,1.12,2.44,2.44,0,0,1-.53.35.26.26,0,0,1-.41-.15c.07-.09.13-.2.21-.29.42-.48.48-.53.12-1-.21-.27,0-.5-.14-.75l-1.15-.07a3.06,3.06,0,0,0-.18,1,2.82,2.82,0,0,0,.45.81,2,2,0,0,1-1.54,1,2.46,2.46,0,0,0-.73.36l-1.56-.66c.07-.39-.42-.61-.27-1.08a1.1,1.1,0,0,1,1-.16,12.44,12.44,0,0,0,1.38.25.38.38,0,0,0,.28-.2.35.35,0,0,0-.07-.33c-.38-.27-.79-.5-1.27-.79"/><path class="cls-1" d="M152.11,200c-.17.69-.33,1.39-.5,2.08.25.23.45.44.68.64a1,1,0,0,1,.33,1.15c-.25.81-.54,1.62-.85,2.41-.22.55-.51,1.07-.75,1.61a1,1,0,0,1-1,.63,8.66,8.66,0,0,1-.87-.12c-.1-.61.48-.34.72-.65a2.29,2.29,0,0,1,.8-1.29,2.14,2.14,0,0,0,.56-.84c.29-.62.54-1.25.8-1.87-.11-.68-.73-.77-1.24-1a2.79,2.79,0,0,1,0-.65,8.58,8.58,0,0,1,.37-1.22c.17-.43.39-.86,1-.84Z"/><path class="cls-1" d="M151.84,197a3.93,3.93,0,0,1-1.23,2.5.35.35,0,0,1-.33.05.34.34,0,0,1-.14-.31c.3-.86.52-1.79,1.46-2.24.06,0,.15,0,.24,0"/><path class="cls-1" d="M152.13,200.06V200l0,.07Z"/><path class="cls-1" d="M73.53,179.21l.35.7c.49-.2,1-.38,1.43-.6a19.14,19.14,0,0,1,4.25-1.6c1.27-.27,2.56-.42,3.84-.63.64-.11,1.28-.23,1.92-.31a35.34,35.34,0,0,1,5.82-.09.69.69,0,0,1,.25,0,26.11,26.11,0,0,0,3.46,1.07,6.82,6.82,0,0,1,.78.45c.84.34,1.56.9,2.44,1.16a3.29,3.29,0,0,1,1.36,1,7.85,7.85,0,0,0,1.44,1.08,2.41,2.41,0,0,1,.61.45c.53.68,1.09,1.33,1.61,2a2.22,2.22,0,0,1,.61,1.39,1.13,1.13,0,0,0,.45.9.5.5,0,0,1,.2.32c-.1,1.11.7,2.11.38,3.27a3.47,3.47,0,0,0,.06,1.15,2.62,2.62,0,0,1-.32,1.5c-.47.82-.94,1.65-1.39,2.49a7.11,7.11,0,0,1-2.46,2.26c-.6.41-1.3.68-1.91,1.07a9.46,9.46,0,0,1-2.8,1c-1.3.33-2.6.62-3.92.87a11.8,11.8,0,0,1-2.06.22,13.13,13.13,0,0,1-3.48-.22,2.35,2.35,0,0,0-.65-.06,18.51,18.51,0,0,1-4.63-.56c-1.1-.25-2.22-.35-3.33-.51-.86-.12-1.71-.22-2.58-.26a12.1,12.1,0,0,1-2.66-.49c-1.21-.33-2.38-.78-3.58-1.14a7.21,7.21,0,0,1-2.53-1.54c-.33-.28-.61-.61-.91-.92a1.14,1.14,0,0,1-.25-.3C65,193.07,64,192,64.15,190.57a13.71,13.71,0,0,1,.38-3.19c0-.12,0-.26.1-.38.37-.82.74-1.65,1.13-2.47a2.67,2.67,0,0,1,.45-.61,11,11,0,0,0,1.29-1.26,5.3,5.3,0,0,1,1.83-1.4c.63-.38,1.24-.78,1.87-1.16a4.24,4.24,0,0,1,2.33-.89m16.34,19.55a24.59,24.59,0,0,0,2.71-.25c1.27-.25,2.51-.66,3.78-.92a12,12,0,0,0,3.75-1.72,4.37,4.37,0,0,0,1.92-2c.16-.4.47-.73.66-1.11a2.38,2.38,0,0,0,.26-.86,15.26,15.26,0,0,0-.15-4.27,6.47,6.47,0,0,0-1.25-2.81,22,22,0,0,0-2.33-2.4,16,16,0,0,0-3-2,18.33,18.33,0,0,0-4.3-1.78,3.51,3.51,0,0,1-.61-.24,4.61,4.61,0,0,0-2.14-.39c-.52,0-1,0-1.56,0a23.09,23.09,0,0,0-3.62.23l-1.67.24A20.83,20.83,0,0,0,75,180.52a12.7,12.7,0,0,1-1.45.55c-.49.17-1,.3-1.47.51a3.31,3.31,0,0,1-1.71.5,1,1,0,0,0-.49.14,6.89,6.89,0,0,0-2.83,2.62,9.44,9.44,0,0,0-1.44,4.91,3.25,3.25,0,0,0,.68,2.55,1.29,1.29,0,0,1,.28.71,1.23,1.23,0,0,0,.38.65,13.31,13.31,0,0,0,2.14,1.68,2.42,2.42,0,0,0,1.4.56,3.71,3.71,0,0,1,1.23.37,8.47,8.47,0,0,0,1,.32,15.83,15.83,0,0,0,4.58.68,4.66,4.66,0,0,1,.64.08,13.46,13.46,0,0,0,1.53.23,20.79,20.79,0,0,1,3.59.56,11.68,11.68,0,0,0,2.43.28,6.16,6.16,0,0,1,1.43.06,15.56,15.56,0,0,0,3,.28"/><path class="cls-1" d="M69.68,188c.21.39.34.61.45.84a1.57,1.57,0,0,0,.69.75,10.29,10.29,0,0,0,1.67,1,7.35,7.35,0,0,0,3.32.24,21.55,21.55,0,0,1,4-.24,9.43,9.43,0,0,1,2.18.21,3.94,3.94,0,0,0,.77,0,2.38,2.38,0,0,1,.76.14,10.08,10.08,0,0,0,2.36.59,16,16,0,0,0,2.68.28,5,5,0,0,0,1.89-.27,2.9,2.9,0,0,1,1.76-.24s.07.05.1.07c0,.23-.17.29-.31.35a8,8,0,0,0-1.84,1,3.1,3.1,0,0,1-2,.55c-.21,0-.43,0-.64,0a6.52,6.52,0,0,1-2.44-.28c-.89-.3-1.81-.52-2.69-.9a6.78,6.78,0,0,0-2.64-.59,20.74,20.74,0,0,0-4,.2,16,16,0,0,1-2.2.12,10.33,10.33,0,0,1-2.27-.49,4.16,4.16,0,0,1-2-2.42c-.08-.34.23-.5.37-.88"/><path class="cls-1" d="M98.64,192.14l.68,1.72a1.21,1.21,0,0,1-.53.84,3.17,3.17,0,0,1-1.75.75s-.07,0-.09-.08,0-.1,0-.11a2.22,2.22,0,0,1,.48-.39c.38-.2.83-.26,1.15-.71l-.27-.9c-.13,0-.23,0-.28,0-.27.27-.5.59-.79.84s-.64.47-1.09.07c.08-.37.42-.59.67-.85a9.43,9.43,0,0,1,.81-.69l-.49-.75a6.55,6.55,0,0,0,.78-.44c.68-.45,1.37-.9,2-1.41a3.76,3.76,0,0,0,.69-.92c.3-.43.57-.86.87-1.29a.4.4,0,0,1,.57,0c.09.12.19.34.14.45a5.62,5.62,0,0,1-2.07,2.74,14,14,0,0,0-1.47,1.1"/><path class="cls-1" d="M96.48,191c-.15.82-.76,1.2-1.2,1.7a2.66,2.66,0,0,1-1.31.75c-.09,0-.23-.09-.31-.17s0-.16,0-.24a.14.14,0,0,1,0-.11A9.37,9.37,0,0,1,96.22,191a2.18,2.18,0,0,1,.26,0"/><path class="cls-1" d="M98.11,188.49c.33-.64,1-.4,1.44-.68a.49.49,0,0,1,.69.14c-.23.45-.74.32-1.09.53a1.25,1.25,0,0,1-1,0"/><path class="cls-1" d="M217.05,197.89c.64-1,1.33-2.08,2-3.16a7.38,7.38,0,0,1,1.57-1.68,4.69,4.69,0,0,0,1-1,4.48,4.48,0,0,1,1.47-1.27c.71-.39,1.41-.79,2.11-1.19a3.76,3.76,0,0,1,1.74-.52,5.22,5.22,0,0,0,1.57-.32,13.66,13.66,0,0,1,2.56-.69c1.51-.26,3-.5,4.55-.72a10.54,10.54,0,0,1,1.38-.07c1.77,0,3.53,0,5.3,0a3.09,3.09,0,0,1,.65.16,8.44,8.44,0,0,1,2.8.95,1.49,1.49,0,0,0,.44.1,9.75,9.75,0,0,1,4.23,1.94,1.72,1.72,0,0,1,.6.69,11.3,11.3,0,0,0,1,1.63,6.55,6.55,0,0,1,.46,1c.21.57.1,1.23.48,1.75-.08.76.12,1.51,0,2.29a7.36,7.36,0,0,1-1.2,2.71,10.27,10.27,0,0,1-4.41,3.92,13.79,13.79,0,0,1-1.55.75,9.85,9.85,0,0,1-3.27.6,6.65,6.65,0,0,0-1.72.16,4.81,4.81,0,0,1-1.26.08,49.13,49.13,0,0,0-5.29.18c-1,.08-1.93,0-2.89,0-.65,0-1.3,0-2,0a7.12,7.12,0,0,1-2.16-.28l-3.33-.94a2.81,2.81,0,0,0-.55-.15,9.75,9.75,0,0,1-3.43-1.28c-.81-.77-1.65-1.49-2.41-2.31a2.75,2.75,0,0,1-.56-1.94c0-.46.05-.92.08-1.52m23.32,6.75a14.71,14.71,0,0,1,2.85-.3,10.13,10.13,0,0,0,5-1.9,10.31,10.31,0,0,0,2.21-2.31,4.57,4.57,0,0,0,.74-1.54,9.19,9.19,0,0,0-.19-4.42,4.43,4.43,0,0,0-.38-.83c-.19-.37-.38-.75-.6-1.1a3.09,3.09,0,0,0-.77-1,9.21,9.21,0,0,0-2.11-1.16c-1.54-.48-3-1.15-4.59-1.55a5.18,5.18,0,0,0-1.23-.2c-1.5,0-3,0-4.51,0a14.08,14.08,0,0,0-1.71.14c-1.38.18-2.75.37-4.11.59a9.58,9.58,0,0,0-2.66.74,3.77,3.77,0,0,1-1.1.32,12,12,0,0,0-3.86,1.73,1.76,1.76,0,0,0-.5.48,10.2,10.2,0,0,1-1.56,1.52,9.94,9.94,0,0,0-1.23,1.36c-.45.58-.82,1.22-1.24,1.81a2.64,2.64,0,0,0-.51,1.62,10.46,10.46,0,0,0,.17,1.37,1.16,1.16,0,0,0,.7,1c.19.08.3.33.47.48a10.54,10.54,0,0,0,1.22,1,13.72,13.72,0,0,0,1.52.8,3,3,0,0,0,.73.33c.37.08.77,0,1.13.13s.77.38,1.17.44a9.8,9.8,0,0,1,1.44.37l.66.17a15,15,0,0,0,4,.26c2.23,0,4.45-.23,6.67-.35a2,2,0,0,0,.87-.24c.41-.23.81-.44,1.24-.63a.45.45,0,0,1,.63.12c-.15.19-.3.39-.57.76"/><path class="cls-1" d="M244.45,197.11c0,.11-.07.24-.15.31-.34.3-.69.6-1.06.87-1.82,1.33-1.59,1.23-3.72,1.15a4.73,4.73,0,0,0-1.24.15c-.8.22-1.63.36-2.44.54a4,4,0,0,1-2.48-.15,5.16,5.16,0,0,0-3.27-.19c-.6.14-1.2.24-1.81.34a7.77,7.77,0,0,1-2.84-.28c-.63-.12-1-.69-1.38-1.16a2.61,2.61,0,0,1-.31-.56,1.57,1.57,0,0,1,.38-1c.12,0,.23,0,.25.07A5.87,5.87,0,0,0,225.8,199c.54.12,1.06.27,1.58.35a4.47,4.47,0,0,0,1.71,0,13.07,13.07,0,0,1,3.18-.4,5.77,5.77,0,0,1,1.58.21,4.23,4.23,0,0,0,2.81.09,30.32,30.32,0,0,0,3.26-.65c1.84.16,1.81-.38,3.59-1.06.32-.12.63-.26,1-.4Z"/><path class="cls-1" d="M249.7,199.24c.22,0,.37.22.27.4A4.18,4.18,0,0,1,247.6,202c-.4.11-.78.32-1.18.42a3.06,3.06,0,0,1-.74,0,.3.3,0,0,1,.16-.42,17.09,17.09,0,0,0,2.12-1.12,14.47,14.47,0,0,0,1.63-1.6.21.21,0,0,1,.11,0"/><path class="cls-1" d="M229.19,202.26a.6.6,0,0,1,.77-.11,9.53,9.53,0,0,0,3.64.87,9,9,0,0,1,1,.16c.29.06.58.16.87.25,0,.27-.22.3-.36.27a38,38,0,0,1-3.84-.64,11.38,11.38,0,0,1-2.1-.8"/><path class="cls-1" d="M249.48,197a2.88,2.88,0,0,1-1.06,1.41c-.79.6-1.6,1.18-2.4,1.77a.81.81,0,0,1-.22.07.35.35,0,0,1-.09-.57,2.54,2.54,0,0,1,.6-.53c.48-.32,1-.63,1.47-.91a3.45,3.45,0,0,0,1.3-1.1c0-.07.18-.07.4-.14"/><path class="cls-1" d="M249.61,194a.7.7,0,0,1,0,.26c-.25.55-.51,1.1-.79,1.64,0,.06-.21.07-.32.06s-.1-.11-.11-.18a.65.65,0,0,1,0-.34c.24-.6.48-1.19.74-1.77,0-.07.18-.11.28-.13s.12.09.14.16a2.11,2.11,0,0,1,.07.3"/><path class="cls-1" d="M247.64,194.94c0,.32,0,.53-.27.63a.67.67,0,0,1-.77-.31.26.26,0,0,1,0-.21.87.87,0,0,1,.83-.46c.08,0,.17.12.22.21a.19.19,0,0,1,0,.14"/><polygon class="cls-1" points="242.78 203.17 242.87 203.21 242.78 203.25 242.78 203.17"/><path class="cls-1" d="M241.84,200.89l-.17.07s0-.05-.08-.07a.67.67,0,0,1,.18-.07s0,0,.07.07"/><path class="cls-1" d="M228.73,201.83a.59.59,0,0,1,0,.08l-.1-.12.09,0a.18.18,0,0,1,0,.07"/><path class="cls-1" d="M236.85,203.08,237,203l-.16.09Z"/><path class="cls-1" d="M236.83,203.05c0,.13,0,.21-.15.21a.1.1,0,0,1-.08-.06s0-.07.05-.07a.84.84,0,0,1,.2,0Z"/><polygon class="cls-1" points="244.46 197.11 244.49 197.07 244.45 197.11 244.46 197.11"/><path class="cls-1" d="M140.15,214.75a5.22,5.22,0,0,0,2.48-.24,2.29,2.29,0,0,1,1.64-.11,1.79,1.79,0,0,1,0,.69,5.32,5.32,0,0,1-1.08,2.55,12.84,12.84,0,0,1-2.12,3,13.85,13.85,0,0,1-2.77,2.64c-.07.05-.09.17-.15.29.09.08.18.22.3.25a12.34,12.34,0,0,0,3.76.71,7.64,7.64,0,0,1,1.78.63c.21.13.42.26.62.4a1,1,0,0,1,.46,1.27,3.47,3.47,0,0,1-.27.55,8.27,8.27,0,0,0-2.45,1.26,14.05,14.05,0,0,1-4.69,2.13,12.49,12.49,0,0,1-4.55.55,5.16,5.16,0,0,0-1.08.14c.12.39.23.71.32,1a3.19,3.19,0,0,1-.21,2.44,2.17,2.17,0,0,1-2,1.28,23.94,23.94,0,0,1-5.61-.45,6.42,6.42,0,0,1-2.92-1.38,7.19,7.19,0,0,0-1.32-.94,2.31,2.31,0,0,1-1.22-1.59,1,1,0,0,0-.17-.26c-.42-.06-.5.39-.77.56s-.54.42-.82.62a6.09,6.09,0,0,1-1.07.78c-2,.93-4.06,1.82-6.1,2.71a2.25,2.25,0,0,1-.84.2c-1.79,0-3.57,0-5.35,0-1,0-1.31-.58-.83-1.49A4.88,4.88,0,0,1,105,233c.24-.14.56-.21.61-.56,0,0-.06-.09-.09-.09-1,0-2-.07-3,0a15,15,0,0,1-8.68-2.56,18.22,18.22,0,0,0-1.66-.95,8.58,8.58,0,0,1-2-1.56,5.12,5.12,0,0,1,2.61-1.89c.58-.14,1.17-.22,1.75-.35a4.89,4.89,0,0,0,.71-.28c-.61-.52-1.15-.94-1.64-1.41s-.87-1-1.3-1.42a5.57,5.57,0,0,1-1.48-2.36.86.86,0,0,0-.11-.28,3.69,3.69,0,0,1-.39-2.92,2,2,0,0,1,2.3,0,6.4,6.4,0,0,0,1,.6c.35.16.71.37,1.12.12.08.13.16.27.25.4h0l-.07,0-.25-.35c.15-.49-.2-.85-.33-1.26a4.16,4.16,0,0,1-.26-1.88,8.69,8.69,0,0,0,0-.89,9,9,0,0,0,.06-1,3.68,3.68,0,0,0-.21-.84,6.89,6.89,0,0,1,3,.86,6.68,6.68,0,0,0,1.81.62,4.31,4.31,0,0,1,1.19.53c.08,0,.16.2.2.18.88-.29,1.42.6,2.24.61,0,0,.13-.24.11-.36a19.31,19.31,0,0,1-.14-4.43c0-.15,0-.29,0-.44a15.61,15.61,0,0,1,.16-2.06,7.86,7.86,0,0,1,.7-1.77,3.29,3.29,0,0,1,.6-.68c.58.4.8,1.05,1.3,1.43a11.85,11.85,0,0,1,1.39,1.53c.42.46.58,1.16,1.27,1.45a2.87,2.87,0,0,0,.15-.37,11.81,11.81,0,0,1,1.74-4.06,2.43,2.43,0,0,0,.34-.66,6.1,6.1,0,0,1,1.28-2,1,1,0,0,1,1-.42,3.79,3.79,0,0,0,.9,0c.38.24.8.49,1.21.77a1.89,1.89,0,0,1,.56.44,12.44,12.44,0,0,0,2.27,2.08,4.7,4.7,0,0,1,1.21,1.46c.11.21.25.41.4.66a2,2,0,0,0,.54-.31,3.94,3.94,0,0,0,.54-.87,7.44,7.44,0,0,1,1.32-2.3,1.69,1.69,0,0,0,.36-.64,5,5,0,0,1,1.81-2.1.57.57,0,0,1,.93.3,11.06,11.06,0,0,1,.52,3.47,2.92,2.92,0,0,0,.25,1.59,1.67,1.67,0,0,1,.08.72,9.07,9.07,0,0,0,.19,2.1,2.1,2.1,0,0,0,.42-.26c.4-.44.77-.9,1.17-1.34s.91-.91,1.29-1.42a5.12,5.12,0,0,1,1.76-1.55c.74-.39,1.52-.72,2.29-1.06a1.41,1.41,0,0,1,1.37.16,5.69,5.69,0,0,1,.41,1.47,24.14,24.14,0,0,1,.35,3.05c0,.21.19.44.34.74a3.81,3.81,0,0,0,.45-.44,8.07,8.07,0,0,1,3.55-2.8,1.36,1.36,0,0,1,1.4.14,3.15,3.15,0,0,1,.28,1.86,8.93,8.93,0,0,0,0,1.16c.1,1.33.12,2.67.13,4a3.57,3.57,0,0,1-.21,1c-.12.47-.25.95-.38,1.42,0,0-.08,0-.1,0s0,.06,0,.09l.08-.14m-6.24,2.08c.14,0,.31.1.43,0a22.2,22.2,0,0,1,3.1-.95,1.61,1.61,0,0,0,1.05-.77,6.61,6.61,0,0,0,1-3c0-1.77.15-3.53.22-5.3a2,2,0,0,0-.1-.58.55.55,0,0,0-.8-.39,5.21,5.21,0,0,0-.52.28,6.72,6.72,0,0,0-2,1.92c-.34.48-.69,1-1.07,1.41a2.42,2.42,0,0,0-.67,2,3.87,3.87,0,0,1-.09.88,12.12,12.12,0,0,1-.88,3.7s0,.1,0,.15c-.22.15-.26.27-.09.25s.1-.13.14-.2c.1.2.2.39.29.58l-.06,0ZM124.17,212a4.64,4.64,0,0,0-1.43,1.83,11.38,11.38,0,0,1,.53,1.55,17.38,17.38,0,0,1,.27,3.81c0,1.58,0,3.16,0,4.74,0,.21-.06.51.32.59.13-.1.28-.24.44-.35a7.93,7.93,0,0,0,2.78-2.59,1.06,1.06,0,0,1,.19-.23c1-.85,1.34-2.19,2.35-3,.16-.13.15-.46.26-.67a2.69,2.69,0,0,1,1.08-1.29c-.14.64-.22,1.12-.36,1.59a1.74,1.74,0,0,1-.33.65c-1,1.16-1.64,2.58-2.72,3.69a12.81,12.81,0,0,1-2.33,2c-.55.34-1.06.74-1.58,1.12a1.77,1.77,0,0,0-.41.41c-.1.14-.27.33,0,.52a8,8,0,0,1,1.17-.58,4.88,4.88,0,0,0,2.09-1.36,17.76,17.76,0,0,0,3.39-3.89c.38-.74,1-1.38,1.3-2.14a12.09,12.09,0,0,0,1.2-3.94,4.58,4.58,0,0,1,.31-1.29,8.92,8.92,0,0,0,.37-1.72,5.23,5.23,0,0,1,.16-1.15,6,6,0,0,0,.28-2.05,11.87,11.87,0,0,1,.09-2.07,7.42,7.42,0,0,0-.24-2.31c0-.19-.4-.39-.6-.34a2,2,0,0,0-.42.13,8.3,8.3,0,0,0-3.41,2.54c-.25.36-.63.63-.92,1a29.09,29.09,0,0,0-3.84,4.87ZM119.74,228c.36-.45.64-.86,1-1.22a5,5,0,0,0,1.21-3.26c0-1,0-2,0-3,0-.79-.06-1.58,0-2.36a6.64,6.64,0,0,0-.3-2.47c-.14-.53-.34-1-.43-1.57a8.85,8.85,0,0,0-1.06-2.91c-.58-1-1.22-2-1.7-3.11a6.55,6.55,0,0,0-2-2.49,8.1,8.1,0,0,1-2.08-2.09,2,2,0,0,0-1.12-.9c-.41-.14-.79-.34-1.17-.51-.11.1-.23.15-.25.22a17.06,17.06,0,0,1-1.21,3,11.57,11.57,0,0,0-.58,1.36,6.5,6.5,0,0,0-.49,2.31c0,.88,0,1.77.09,2.66a16.83,16.83,0,0,0,.21,2.36,38,38,0,0,0,1.33,4.66A15.88,15.88,0,0,1,112.3,222a1.46,1.46,0,0,0,.16.41l1.34,2.65a2.82,2.82,0,0,0,.48.75,9.16,9.16,0,0,1,1.54,1.57c0,.06.27,0,.4,0s.11-.16.12-.25a.44.44,0,0,0,0-.28c-.66-1.09-1.22-2.24-1.82-3.36a23.27,23.27,0,0,1-1.77-4.22,6.58,6.58,0,0,1-.26-1.46c0-.78,0-1.58,0-2.37,0-.32.07-.66.12-1.07.2.15.39.21.41.31.09.39.11.78.17,1.17a11,11,0,0,0,.88,3.55c.45.86.75,1.8,1.12,2.71a4.36,4.36,0,0,0,.8,1.54,2.92,2.92,0,0,1,.38.64l1.56,3a1.23,1.23,0,0,0,1.2.72,5.09,5.09,0,0,0,.66-.09m-6.26.34c-.41-.16-.7-.32-1-.41a7.37,7.37,0,0,1-3.5-1.47,6.9,6.9,0,0,1-2.54-1.72c-.49-.38-.48-.39-.63-1.26a11.08,11.08,0,0,1,1.71,1.21,3.88,3.88,0,0,0,1.35.86,2.56,2.56,0,0,1,.67.31,8.52,8.52,0,0,0,3.39,1.37c.19.05.47.12.62-.17-.13-.21-.25-.43-.39-.63a5.36,5.36,0,0,0-.4-.43,10.54,10.54,0,0,1-1.77-2.69c-.15-.31-.31-.62-.44-.94a8.53,8.53,0,0,0-.79-1.91,8.92,8.92,0,0,0-1.58-1.32c-.33-.28-.59-.7-1-.9-1.08-.57-2-1.51-3.28-1.65a.57.57,0,0,1-.26-.12,7.48,7.48,0,0,0-1.65-1,12.88,12.88,0,0,0-4.37-1.8,3.88,3.88,0,0,1-1.86-.86,1.55,1.55,0,0,0-.55-.18,1.71,1.71,0,0,0-.13.49,4.86,4.86,0,0,0,1,3,12.64,12.64,0,0,1,1.15,1.52,10.1,10.1,0,0,0,1.5,1.81c.48.5.91,1,1.36,1.55.22.26.4.64.69.75.83.32,1.27,1.07,1.94,1.55a8.53,8.53,0,0,1,1.76,1.79c.26.33.5.72,1,.77a14.72,14.72,0,0,0,2.56,1.46,5.21,5.21,0,0,0,1.09.45c.85.23,1.72.41,2.57.64a2.53,2.53,0,0,0,1.72-.11m29.94-13.1a1.2,1.2,0,0,0-.42,0,12.6,12.6,0,0,1-2.84.79.68.68,0,0,0-.44.33,1,1,0,0,1-.89.43,17.06,17.06,0,0,0-4.88,1.12,2.52,2.52,0,0,0-1.53,1.5,3.47,3.47,0,0,1-1.6,2.06,1,1,0,0,0-.33.3,23.92,23.92,0,0,1-3,3.27c-.07.06,0,.23-.06.47a38.65,38.65,0,0,0,4.4-2.67A27.53,27.53,0,0,1,134.7,221a2.64,2.64,0,0,1,.47-.13,4.11,4.11,0,0,1-1.34,1.27,55.55,55.55,0,0,1-5.34,3.48,9.39,9.39,0,0,1-3.31,1.22.41.41,0,0,0-.4.43,12.63,12.63,0,0,0,4.92-.81c1.4-.5,2.75-1.13,4.12-1.7a10.36,10.36,0,0,0,2.33-1.28,5.86,5.86,0,0,1,1-.61,6.09,6.09,0,0,0,2.74-2.2,2,2,0,0,1,.51-.54,5.5,5.5,0,0,0,1.74-2.17,1.63,1.63,0,0,1,.37-.46,3,3,0,0,0,.89-2.25m-42.62,14a.71.71,0,0,1,1-.11,4.14,4.14,0,0,0,1.65.52c.94.26,2,.12,2.84.7a.57.57,0,0,0,.29.07c1-.07,2.06-.14,3.09-.23.1,0,.18-.19.3-.34a2.12,2.12,0,0,0-1.16-.24,2.73,2.73,0,0,1-1-.16,15.74,15.74,0,0,1-4-2.48,1.72,1.72,0,0,0-.64-.34c-.41-.17-.83-.32-1.25-.45a11.79,11.79,0,0,0-3.76-.69c-.6,0-1.19,0-1.79,0a1.59,1.59,0,0,0-.73.06,3.63,3.63,0,0,1-1.86.33,4.51,4.51,0,0,0-2.31.71c.19.22.3.46.49.57a7.16,7.16,0,0,0,1.33.66,6.75,6.75,0,0,1,2.16,1.24,5.57,5.57,0,0,0,1.38.75,15.67,15.67,0,0,0,1.68.54,14.6,14.6,0,0,0,2.72.67c1.42.12,2.86,0,4.3,0a.59.59,0,0,0-.7-.42,4.8,4.8,0,0,1-2.15-.48c-.5-.22-1-.42-1.5-.64a2.68,2.68,0,0,1-.34-.27m35.11-2c-1,.53-1,.53-1.58.53-1.38,0-2.76,0-4.14,0a9.27,9.27,0,0,0-2.62.43c-.17,0-.3.2-.58.39a6.21,6.21,0,0,1,3,1.09,1.74,1.74,0,0,0,1.13.27c1.18,0,2.37-.07,3.55,0a7.65,7.65,0,0,0,2.48-.25,18.58,18.58,0,0,0,4.83-1.83c.47-.26,1-.47,1.46-.7.18-.07.4-.08.39-.36-.36-.24-.72-.5-1.1-.73a2.69,2.69,0,0,0-1.69-.43,4.8,4.8,0,0,1-2.58-.52l-1.37-.55a1.12,1.12,0,0,0-1.12.12,21.73,21.73,0,0,1-4.13,2,5.94,5.94,0,0,0-.72.45c1.69.19,3.18,0,4.79.07m-16.2,2.92a3.78,3.78,0,0,0,1.4,2.09c.64.45,1.34.82,2,1.25a5.4,5.4,0,0,0,2.91.91,3.25,3.25,0,0,1,.88.09,13.15,13.15,0,0,0,3.81.13c.2-.33.39-.61.55-.91a1.1,1.1,0,0,0,0-1A4.22,4.22,0,0,0,130,231a13.67,13.67,0,0,0-2.59-1.38,9.08,9.08,0,0,1-1.39-.47,3.44,3.44,0,0,0-3.38-.24,1.49,1.49,0,0,1-1.12,0l-1.78,1.3m-.92-.87c-.09-.1-.12-.16-.15-.17l-2.21-.08a2.71,2.71,0,0,0-2.21.56c-1.29.48-2.57,1-3.88,1.42a8.76,8.76,0,0,0-2.14,1c-.65.43-1.36.79-2,1.18a3,3,0,0,0-1.38,1.28c-.11.21-.28.42,0,.74,1.36,0,2.79-.05,4.22,0a4.45,4.45,0,0,0,2.14-.4q2.16-1,4.31-2a10.48,10.48,0,0,0,1-.55,1.56,1.56,0,0,0,.88-1.12,1.15,1.15,0,0,1,.58-.81,1.89,1.89,0,0,0,.84-1.08M103.45,206a4.46,4.46,0,0,0-.09.67,34.81,34.81,0,0,1,.13,3.68,22.84,22.84,0,0,0,.2,3.1,2.3,2.3,0,0,0,1,1.76c1.24.79,2.46,1.61,3.7,2.4.09.06.26,0,.38,0s.07-.15.06-.18a17.59,17.59,0,0,1-.75-4.66,3.66,3.66,0,0,0-.61-2c-.71-1.07-1.43-2.12-2.18-3.17a8.16,8.16,0,0,0-1.8-1.63m19,6.23c.11,0,.16,0,.2,0a5.77,5.77,0,0,0,1.64-2.06c.1-.14.06-.38.06-.57a18.5,18.5,0,0,0-.24-4.27,3.7,3.7,0,0,1,0-.88c0-.35,0-.69,0-1a4.35,4.35,0,0,0-.64-2.17,6.37,6.37,0,0,0-.73.74c-.49.68-1,1.38-1.41,2.08a3.28,3.28,0,0,0-.24.54l-1,2.16a1.45,1.45,0,0,0,.09,1.54,15.56,15.56,0,0,0,1.5,2.51,2.92,2.92,0,0,1,.36.8c.1.22.22.44.32.63M91,216.91a1.82,1.82,0,0,0-.15.55,2.5,2.5,0,0,0,.56,1.5,23.32,23.32,0,0,0,5.72,5.22,2.26,2.26,0,0,0,1.37.44,7.64,7.64,0,0,1,2.47.24c.11,0,.27-.06.42-.1,0-.48-.45-.66-.73-.91a20.47,20.47,0,0,1-3.87-4,1.93,1.93,0,0,0-.94-.68,22.35,22.35,0,0,1-2.75-1.42,5.34,5.34,0,0,0-2.1-.82"/><path class="cls-1" d="M.9,218.31a5.15,5.15,0,0,1,.58,2.86c-.05.84,0,1.68,0,2.52s-.43,1.82-.38,2.77c0,.21-.19.44-.32.65a.3.3,0,0,1-.49-.05,2.08,2.08,0,0,1-.18-1.72,9.14,9.14,0,0,0,.28-2.5c0-.64,0-1.29,0-1.92a7,7,0,0,1,.49-2.59Z"/><path class="cls-1" d="M.93,218.33l0,0Z"/><polygon class="cls-1" points="5.15 212.05 5.13 212.09 5.17 212.02 5.15 212.05"/><path class="cls-1" d="M119.8,242.75a.7.7,0,0,1,.92.09c.27.22.48.5.74.72a5.74,5.74,0,0,0,.75.41.79.79,0,0,1-1.13.07,4.76,4.76,0,0,1-1.28-1.29"/><path class="cls-1" d="M122.77,244.48a.82.82,0,0,1,.91.21.9.9,0,0,1-.91-.21"/></g></g></g></svg>